SplineFontDB: 3.2
FontName: KoreeneSans-ExtraBoldItalic
FullName: Koreene Sans ExtraBold Italic
FamilyName: Koreene Sans ExtraBold
Weight: Heavy
Copyright: (C) Copyright HanYang I&C Co.,Ltd. All rights reserved.
Version: 2.50; ttfautohint (v1.8.4.7-5d5b-dirty)
ItalicAngle: 0
UnderlinePosition: -122
UnderlineWidth: 45
Ascent: 819
Descent: 205
InvalidEm: 0
sfntRevision: 0x00020147
LayerCount: 2
Layer: 0 1 "Back" 1
Layer: 1 1 "Fore" 0
XUID: [1021 531 -1996577725 10965455]
StyleMap: 0x0040
FSType: 0
OS2Version: 4
OS2_WeightWidthSlopeOnly: 0
OS2_UseTypoMetrics: 1
CreationTime: 1068260456
ModificationTime: 1706916186
PfmFamily: 81
TTFWeight: 800
TTFWidth: 5
LineGap: 256
VLineGap: 0
Panose: 0 0 0 0 0 0 0 0 0 0
OS2TypoAscent: 970
OS2TypoAOffset: 0
OS2TypoDescent: -235
OS2TypoDOffset: 0
OS2TypoLinegap: 256
OS2WinAscent: 1098
OS2WinAOffset: 0
OS2WinDescent: 363
OS2WinDOffset: 0
HheadAscent: 970
HheadAOffset: 0
HheadDescent: -235
HheadDOffset: 0
OS2SubXSize: 205
OS2SubYSize: 205
OS2SubXOff: 0
OS2SubYOff: 287
OS2SupXSize: 205
OS2SupYSize: 205
OS2SupXOff: 0
OS2SupYOff: 963
OS2StrikeYSize: 102
OS2StrikeYPos: 512
OS2CapHeight: 735
OS2XHeight: 538
OS2Vendor: 'HY  '
OS2CodePages: 2000019f.00000000
OS2UnicodeRanges: e10002ff.4000001b.00000000.00000000
Lookup: 1 0 0 "'aalt' Access All Alternates lookup 0" { "'aalt' Access All Alternates lookup 0 subtable"  } ['aalt' ('DFLT' <'dflt' > 'cyrl' <'dflt' > 'grek' <'dflt' > 'hang' <'dflt' > 'jamo' <'dflt' > 'latn' <'dflt' > ) ]
Lookup: 3 0 0 "'aalt' Access All Alternates lookup 1" { "'aalt' Access All Alternates lookup 1 subtable"  } ['aalt' ('DFLT' <'dflt' > 'cyrl' <'dflt' > 'grek' <'dflt' > 'hang' <'dflt' > 'jamo' <'dflt' > 'latn' <'dflt' > ) ]
Lookup: 1 0 0 "'locl' Localized Forms in Latin lookup 2" { "'locl' Localized Forms in Latin lookup 2 subtable"  } ['locl' ('latn' <'MOL ' > ) ]
Lookup: 1 0 0 "'locl' Localized Forms in Latin lookup 3" { "'locl' Localized Forms in Latin lookup 3 subtable"  } ['locl' ('latn' <'ROM ' > ) ]

StartChar: exclam
Encoding: 33 33 4
Width: 293
GlyphClass: 2
Flags: W
LayerCount: 2
Fore
SplineSet
17 -3 m 1,0,-1
 42 147 l 1,1,-1
 207 147 l 1,2,-1
 182 -3 l 1,3,-1
 17 -3 l 1,0,-1
197 210 m 1,4,-1
 73 210 l 1,5,-1
 152 740 l 1,6,-1
 293 740 l 1,7,-1
 197 210 l 1,4,-1
EndSplineSet
EndChar

StartChar: quotedbl
Encoding: 34 34 5
Width: 555
GlyphClass: 2
Flags: W
LayerCount: 2
Fore
SplineSet
324 509 m 1,0,-1
 465 814 l 1,1,-1
 605 814 l 1,2,-1
 428 509 l 1,3,-1
 324 509 l 1,0,-1
98 509 m 1,4,-1
 239 814 l 1,5,-1
 379 814 l 1,6,-1
 202 509 l 1,7,-1
 98 509 l 1,4,-1
EndSplineSet
EndChar

StartChar: numbersign
Encoding: 35 35 6
Width: 719
GlyphClass: 2
Flags: W
LayerCount: 2
Fore
SplineSet
28 178 m 1,0,-1
 45 279 l 1,1,-1
 163 279 l 1,2,-1
 209 437 l 1,3,-1
 101 437 l 1,4,-1
 118 538 l 1,5,-1
 239 538 l 1,6,-1
 291 716 l 1,7,-1
 409 716 l 1,8,-1
 357 538 l 1,9,-1
 494 538 l 1,10,-1
 546 716 l 1,11,-1
 665 716 l 1,12,-1
 612 538 l 1,13,-1
 716 538 l 1,14,-1
 699 437 l 1,15,-1
 582 437 l 1,16,-1
 537 279 l 1,17,-1
 643 279 l 1,18,-1
 627 178 l 1,19,-1
 507 178 l 1,20,-1
 456 2 l 1,21,-1
 336 2 l 1,22,-1
 389 178 l 1,23,-1
 251 178 l 1,24,-1
 200 2 l 1,25,-1
 80 2 l 1,26,-1
 133 178 l 1,27,-1
 28 178 l 1,0,-1
281 279 m 1,28,-1
 418 279 l 1,29,-1
 465 437 l 1,30,-1
 327 437 l 1,31,-1
 281 279 l 1,28,-1
EndSplineSet
EndChar

StartChar: dollar
Encoding: 36 36 7
Width: 564
GlyphClass: 2
Flags: W
LayerCount: 2
Fore
SplineSet
15 160 m 1,0,-1
 119 205 l 1,1,2
 161 112 161 112 262 112 c 0,3,4
 303 112 303 112 336.5 137 c 128,-1,5
 370 162 370 162 377 205 c 0,6,7
 381 229 381 229 374.5 246 c 128,-1,8
 368 263 368 263 349 276.5 c 128,-1,9
 330 290 330 290 310 300 c 128,-1,10
 290 310 290 310 253 327 c 128,-1,11
 216 344 216 344 188 360 c 0,12,13
 82 420 82 420 102 539 c 0,14,15
 112 599 112 599 162.5 654.5 c 128,-1,16
 213 710 213 710 299 727 c 1,17,-1
 312 808 l 1,18,-1
 433 808 l 1,19,-1
 419 726 l 1,20,21
 471 720 471 720 512.5 678 c 128,-1,22
 554 636 554 636 566 592 c 1,23,-1
 458 543 l 1,24,25
 420 622 420 622 341 622 c 0,26,27
 299 622 299 622 269 598 c 128,-1,28
 239 574 239 574 233 538 c 0,29,30
 230 520 230 520 234.5 506 c 128,-1,31
 239 492 239 492 246.5 482.5 c 128,-1,32
 254 473 254 473 272 461.5 c 128,-1,33
 290 450 290 450 305 443 c 128,-1,34
 320 436 320 436 351.5 422.5 c 128,-1,35
 383 409 383 409 403 399 c 0,36,37
 532 337 532 337 512 217 c 0,38,39
 498 134 498 134 440.5 78 c 128,-1,40
 383 22 383 22 300 5 c 1,41,-1
 288 -70 l 1,42,-1
 167 -70 l 1,43,-1
 180 8 l 1,44,45
 125 15 125 15 77.5 59 c 128,-1,46
 30 103 30 103 15 160 c 1,0,-1
EndSplineSet
EndChar

StartChar: percent
Encoding: 37 37 8
Width: 981
GlyphClass: 2
Flags: W
LayerCount: 2
Fore
SplineSet
630 173 m 0,0,1
 623 130 623 130 642.5 106 c 128,-1,2
 662 82 662 82 694 82 c 0,3,4
 727 82 727 82 754 106 c 128,-1,5
 781 130 781 130 788 173 c 0,6,7
 795 214 795 214 777 238.5 c 128,-1,8
 759 263 759 263 724 263 c 0,9,10
 691 263 691 263 664 239 c 128,-1,11
 637 215 637 215 630 173 c 0,0,1
221 562 m 0,12,13
 214 519 214 519 233.5 495.5 c 128,-1,14
 253 472 253 472 286 472 c 0,15,16
 320 472 320 472 346 496.5 c 128,-1,17
 372 521 372 521 379 562 c 0,18,19
 386 604 386 604 368 628.5 c 128,-1,20
 350 653 350 653 316 653 c 256,21,22
 282 653 282 653 255 628.5 c 128,-1,23
 228 604 228 604 221 562 c 0,12,13
125 -6 m 1,24,-1
 754 741 l 1,25,-1
 887 741 l 1,26,-1
 257 -6 l 1,27,-1
 125 -6 l 1,24,-1
510 173 m 0,28,29
 523 254 523 254 587.5 308 c 128,-1,30
 652 362 652 362 741 362 c 256,31,32
 830 362 830 362 876.5 308 c 128,-1,33
 923 254 923 254 909 173 c 0,34,35
 895 89 895 89 829.5 36.5 c 128,-1,36
 764 -16 764 -16 678 -16 c 0,37,38
 589 -16 589 -16 542.5 37.5 c 128,-1,39
 496 91 496 91 510 173 c 0,28,29
101 562 m 0,40,41
 114 643 114 643 178.5 697 c 128,-1,42
 243 751 243 751 332 751 c 256,43,44
 421 751 421 751 467 697.5 c 128,-1,45
 513 644 513 644 499 562 c 0,46,47
 485 479 485 479 420.5 426 c 128,-1,48
 356 373 356 373 269 373 c 0,49,50
 180 373 180 373 133.5 426.5 c 128,-1,51
 87 480 87 480 101 562 c 0,40,41
EndSplineSet
EndChar

StartChar: ampersand
Encoding: 38 38 9
Width: 669
GlyphClass: 2
Flags: W
LayerCount: 2
Fore
SplineSet
155 199 m 0,0,1
 147 151 147 151 173.5 123 c 128,-1,2
 200 95 200 95 249 95 c 0,3,4
 311 95 311 95 373 149 c 1,5,-1
 259 341 l 1,6,7
 168 277 168 277 155 199 c 0,0,1
24 197 m 0,8,9
 47 333 47 333 212 432 c 1,10,-1
 206 443 l 2,11,12
 199 455 199 455 197.5 456.5 c 128,-1,13
 196 458 196 458 190.5 468.5 c 128,-1,14
 185 479 185 479 184 483.5 c 128,-1,15
 183 488 183 488 178.5 498 c 128,-1,16
 174 508 174 508 173.5 514 c 128,-1,17
 173 520 173 520 171.5 529.5 c 128,-1,18
 170 539 170 539 170 547.5 c 128,-1,19
 170 556 170 556 172 565 c 0,20,21
 185 642 185 642 245.5 687 c 128,-1,22
 306 732 306 732 396 732 c 0,23,24
 475 732 475 732 522 691.5 c 128,-1,25
 569 651 569 651 583 591 c 1,26,-1
 481 550 l 1,27,28
 451 622 451 622 389 622 c 0,29,30
 354 622 354 622 331.5 606 c 128,-1,31
 309 590 309 590 305 561 c 0,32,33
 303 551 303 551 305.5 538.5 c 128,-1,34
 308 526 308 526 316 507.5 c 128,-1,35
 324 489 324 489 331.5 472.5 c 128,-1,36
 339 456 339 456 355 428.5 c 128,-1,37
 371 401 371 401 384 380.5 c 128,-1,38
 397 360 397 360 419 323 c 128,-1,39
 441 286 441 286 456 261 c 1,40,41
 479 303 479 303 501 371 c 1,42,-1
 616 351 l 1,43,44
 580 236 580 236 518 155 c 1,45,-1
 614 0 l 1,46,-1
 459 0 l 1,47,-1
 426 52 l 1,48,49
 339 -17 339 -17 230 -17 c 0,50,51
 116 -17 116 -17 62.5 45 c 128,-1,52
 9 107 9 107 24 197 c 0,8,9
EndSplineSet
EndChar

StartChar: quotesingle
Encoding: 39 39 10
Width: 343
GlyphClass: 2
Flags: W
LayerCount: 2
Fore
SplineSet
114 509 m 1,0,-1
 255 814 l 1,1,-1
 395 814 l 1,2,-1
 219 509 l 1,3,-1
 114 509 l 1,0,-1
EndSplineSet
EndChar

StartChar: parenleft
Encoding: 40 40 11
Width: 420
GlyphClass: 2
Flags: W
LayerCount: 2
Fore
SplineSet
119 354 m 0,0,1
 164 624 164 624 368 852 c 1,2,-1
 452 795 l 2,3,4
 451 792 451 792 432 767.5 c 128,-1,5
 413 743 413 743 408.5 736.5 c 128,-1,6
 404 730 404 730 386 705.5 c 128,-1,7
 368 681 368 681 361.5 669 c 128,-1,8
 355 657 355 657 339.5 630 c 128,-1,9
 324 603 324 603 316.5 585 c 128,-1,10
 309 567 309 567 296.5 537.5 c 128,-1,11
 284 508 284 508 276.5 482 c 128,-1,12
 269 456 269 456 260.5 422.5 c 128,-1,13
 252 389 252 389 246 354 c 0,14,15
 223 216 223 216 240 116.5 c 128,-1,16
 257 17 257 17 305 -89 c 1,17,-1
 203 -145 l 1,18,19
 141 -30 141 -30 118 89.5 c 128,-1,20
 95 209 95 209 119 354 c 0,0,1
EndSplineSet
Substitution2: "'sups' Superscript lookup 5 subtable" uni207D
Substitution2: "'aalt' Access All Alternates lookup 0 subtable" uni207D
EndChar

StartChar: parenright
Encoding: 41 41 12
Width: 420
GlyphClass: 2
Flags: W
LayerCount: 2
Fore
SplineSet
-9 -89 m 1,0,1
 81 22 81 22 129 124.5 c 128,-1,2
 177 227 177 227 197 353 c 0,3,4
 210 430 210 430 210.5 495.5 c 128,-1,5
 211 561 211 561 199 616 c 128,-1,6
 187 671 187 671 173.5 707.5 c 128,-1,7
 160 744 160 744 137 795 c 1,8,-1
 242 852 l 1,9,10
 301 747 301 747 326 628 c 128,-1,11
 351 509 351 509 325 353 c 0,12,13
 300 204 300 204 237.5 85 c 128,-1,14
 175 -34 175 -34 77 -145 c 1,15,-1
 -9 -89 l 1,0,1
EndSplineSet
Substitution2: "'sups' Superscript lookup 5 subtable" uni207E
Substitution2: "'aalt' Access All Alternates lookup 0 subtable" uni207E
EndChar

StartChar: asterisk
Encoding: 42 42 13
Width: 543
GlyphClass: 2
Flags: W
LayerCount: 2
Fore
SplineSet
33 396 m 1,0,-1
 95 503 l 1,1,-1
 245 439 l 1,2,-1
 268 614 l 1,3,-1
 385 614 l 1,4,-1
 350 439 l 1,5,-1
 521 503 l 1,6,-1
 547 396 l 1,7,-1
 358 344 l 1,8,-1
 472 193 l 1,9,-1
 360 118 l 1,10,-1
 272 286 l 1,11,-1
 127 118 l 1,12,-1
 41 193 l 1,13,-1
 206 344 l 1,14,-1
 33 396 l 1,0,-1
EndSplineSet
EndChar

StartChar: plus
Encoding: 43 43 14
Width: 542
GlyphClass: 2
Flags: W
LayerCount: 2
Fore
SplineSet
27 304 m 1,0,-1
 46 420 l 1,1,-1
 229 420 l 1,2,-1
 261 610 l 1,3,-1
 388 610 l 1,4,-1
 357 420 l 1,5,-1
 540 420 l 1,6,-1
 521 304 l 1,7,-1
 338 304 l 1,8,-1
 305 107 l 1,9,-1
 178 107 l 1,10,-1
 210 304 l 1,11,-1
 27 304 l 1,0,-1
EndSplineSet
Substitution2: "'sups' Superscript lookup 5 subtable" uni207A
Substitution2: "'aalt' Access All Alternates lookup 0 subtable" uni207A
EndChar

StartChar: comma
Encoding: 44 44 15
Width: 275
GlyphClass: 2
Flags: W
LayerCount: 2
Fore
SplineSet
-68 -152 m 1,0,-1
 72 152 l 1,1,-1
 215 152 l 1,2,-1
 36 -152 l 1,3,-1
 -68 -152 l 1,0,-1
EndSplineSet
EndChar

StartChar: hyphen
Encoding: 45 45 16
Width: 377
GlyphClass: 2
Flags: W
LayerCount: 2
Fore
SplineSet
34 304 m 1,0,-1
 53 420 l 1,1,-1
 369 420 l 1,2,-1
 350 304 l 1,3,-1
 34 304 l 1,0,-1
EndSplineSet
EndChar

StartChar: period
Encoding: 46 46 17
Width: 275
GlyphClass: 2
Flags: W
LayerCount: 2
Fore
SplineSet
7 0 m 1,0,-1
 32 152 l 1,1,-1
 196 152 l 1,2,-1
 171 0 l 1,3,-1
 7 0 l 1,0,-1
EndSplineSet
EndChar

StartChar: slash
Encoding: 47 47 18
Width: 383
GlyphClass: 2
Flags: W
LayerCount: 2
Fore
SplineSet
-70 -53 m 1,0,-1
 346 783 l 1,1,-1
 480 783 l 1,2,-1
 64 -53 l 1,3,-1
 -70 -53 l 1,0,-1
EndSplineSet
EndChar

StartChar: zero
Encoding: 48 48 19
Width: 550
GlyphClass: 2
Flags: W
LayerCount: 2
Fore
SplineSet
178 367 m 256,0,1
 133 95 133 95 236 95 c 0,2,3
 338 95 338 95 383 367 c 256,4,5
 428 639 428 639 325 639 c 0,6,7
 223 639 223 639 178 367 c 256,0,1
41 367 m 0,8,9
 56 456 56 456 82.5 525.5 c 128,-1,10
 109 595 109 595 139.5 636.5 c 128,-1,11
 170 678 170 678 207.5 705 c 128,-1,12
 245 732 245 732 277.5 741.5 c 128,-1,13
 310 751 310 751 344 751 c 0,14,15
 461 751 461 751 506 649 c 128,-1,16
 551 547 551 547 521 367 c 0,17,18
 492 189 492 189 412.5 86 c 128,-1,19
 333 -17 333 -17 218 -17 c 0,20,21
 187 -17 187 -17 157 -8 c 128,-1,22
 127 1 127 1 98.5 27 c 128,-1,23
 70 53 70 53 52.5 94 c 128,-1,24
 35 135 35 135 30.5 205.5 c 128,-1,25
 26 276 26 276 41 367 c 0,8,9
EndSplineSet
EndChar

StartChar: one
Encoding: 49 49 20
Width: 550
GlyphClass: 2
Flags: W
LayerCount: 2
Fore
SplineSet
100 505 m 1,0,-1
 117 607 l 1,1,-1
 151 607 l 2,2,3
 231 607 231 607 271 640 c 128,-1,4
 311 673 311 673 320 723 c 2,5,-1
 322 740 l 1,6,-1
 439 740 l 1,7,-1
 315 -7 l 1,8,-1
 178 -7 l 1,9,-1
 263 505 l 1,10,-1
 100 505 l 1,0,-1
EndSplineSet
Substitution2: "'subs' Subscript lookup 6 subtable" uni2081
Substitution2: "'sups' Superscript lookup 5 subtable" onesuperior
Substitution2: "'sinf' Scientific Inferiors lookup 4 subtable" uni2081
AlternateSubs2: "'aalt' Access All Alternates lookup 1 subtable" uni2081 onesuperior
EndChar

StartChar: two
Encoding: 50 50 21
Width: 550
GlyphClass: 2
Flags: W
LayerCount: 2
Fore
SplineSet
76 549 m 1,0,1
 112 643 112 643 179.5 697 c 128,-1,2
 247 751 247 751 340 751 c 0,3,4
 439 751 439 751 492.5 693 c 128,-1,5
 546 635 546 635 529 537 c 0,6,7
 518 473 518 473 481.5 422 c 128,-1,8
 445 371 445 371 383 318 c 0,9,10
 368 305 368 305 330 273 c 128,-1,11
 292 241 292 241 272 222.5 c 128,-1,12
 252 204 252 204 223.5 173 c 128,-1,13
 195 142 195 142 174 111 c 1,14,-1
 456 111 l 1,15,-1
 438 0 l 1,16,-1
 -7 0 l 1,17,18
 1 46 1 46 22.5 91.5 c 128,-1,19
 44 137 44 137 67.5 170.5 c 128,-1,20
 91 204 91 204 132 244.5 c 128,-1,21
 173 285 173 285 199.5 308.5 c 128,-1,22
 226 332 226 332 273 371 c 0,23,24
 284 381 284 381 291 385 c 0,25,26
 379 458 379 458 392 540 c 0,27,28
 399 585 399 585 379 612 c 128,-1,29
 359 639 359 639 320 639 c 0,30,31
 232 639 232 639 183 514 c 1,32,-1
 76 549 l 1,0,1
EndSplineSet
Substitution2: "'subs' Subscript lookup 6 subtable" uni2082
Substitution2: "'sups' Superscript lookup 5 subtable" twosuperior
Substitution2: "'sinf' Scientific Inferiors lookup 4 subtable" uni2082
AlternateSubs2: "'aalt' Access All Alternates lookup 1 subtable" uni2082 twosuperior
EndChar

StartChar: three
Encoding: 51 51 22
Width: 550
GlyphClass: 2
Flags: W
LayerCount: 2
Fore
SplineSet
-1 155 m 1,0,-1
 110 194 l 1,1,2
 135 95 135 95 226 95 c 0,3,4
 273 95 273 95 311 126 c 128,-1,5
 349 157 349 157 358 212 c 0,6,7
 366 262 366 262 335.5 294.5 c 128,-1,8
 305 327 305 327 248 327 c 0,9,10
 215 327 215 327 179 323 c 1,11,-1
 198 434 l 1,12,13
 221 432 221 432 261 432 c 0,14,15
 306 432 306 432 342 460.5 c 128,-1,16
 378 489 378 489 387 540 c 0,17,18
 394 583 394 583 372 611 c 128,-1,19
 350 639 350 639 310 639 c 0,20,21
 236 639 236 639 185 536 c 1,22,-1
 82 570 l 1,23,24
 114 651 114 651 181 701 c 128,-1,25
 248 751 248 751 335 751 c 0,26,27
 437 751 437 751 488.5 695 c 128,-1,28
 540 639 540 639 526 552 c 0,29,30
 517 498 517 498 483 454 c 128,-1,31
 449 410 449 410 405 387 c 1,32,33
 449 370 449 370 477.5 324.5 c 128,-1,34
 506 279 506 279 495 212 c 0,35,36
 477 105 477 105 399.5 44.5 c 128,-1,37
 322 -16 322 -16 209 -16 c 0,38,39
 117 -16 117 -16 61.5 34 c 128,-1,40
 6 84 6 84 -1 155 c 1,0,-1
EndSplineSet
Substitution2: "'subs' Subscript lookup 6 subtable" uni2083
Substitution2: "'sups' Superscript lookup 5 subtable" threesuperior
Substitution2: "'sinf' Scientific Inferiors lookup 4 subtable" uni2083
AlternateSubs2: "'aalt' Access All Alternates lookup 1 subtable" uni2083 threesuperior
EndChar

StartChar: four
Encoding: 52 52 23
Width: 550
GlyphClass: 2
Flags: W
LayerCount: 2
Fore
SplineSet
10 258 m 1,0,-1
 402 740 l 1,1,-1
 516 740 l 1,2,-1
 437 260 l 1,3,-1
 520 260 l 1,4,-1
 502 149 l 1,5,-1
 419 149 l 1,6,-1
 393 -5 l 1,7,-1
 261 -5 l 1,8,-1
 286 149 l 1,9,-1
 -8 149 l 1,10,-1
 10 258 l 1,0,-1
135 260 m 1,11,-1
 305 260 l 1,12,-1
 335 445 l 2,13,14
 343 492 343 492 353 536 c 1,15,-1
 349 536 l 1,16,17
 303 473 303 473 291 457 c 2,18,-1
 135 260 l 1,11,-1
EndSplineSet
Substitution2: "'subs' Subscript lookup 6 subtable" uni2084
Substitution2: "'sups' Superscript lookup 5 subtable" uni2074
Substitution2: "'sinf' Scientific Inferiors lookup 4 subtable" uni2084
AlternateSubs2: "'aalt' Access All Alternates lookup 1 subtable" uni2084 uni2074
EndChar

StartChar: five
Encoding: 53 53 24
Width: 550
GlyphClass: 2
Flags: W
LayerCount: 2
Fore
SplineSet
4 142 m 1,0,-1
 120 183 l 1,1,2
 128 145 128 145 154 120 c 128,-1,3
 180 95 180 95 216 95 c 0,4,5
 268 95 268 95 305.5 132 c 128,-1,6
 343 169 343 169 354 231 c 0,7,8
 364 290 364 290 337.5 329.5 c 128,-1,9
 311 369 311 369 260 369 c 0,10,11
 197 369 197 369 138 300 c 1,12,-1
 59 333 l 1,13,-1
 165 735 l 1,14,-1
 536 735 l 1,15,-1
 518 623 l 1,16,-1
 268 623 l 1,17,-1
 219 449 l 1,18,19
 265 479 265 479 324 479 c 0,20,21
 416 479 416 479 463 413 c 128,-1,22
 510 347 510 347 492 235 c 0,23,24
 484 187 484 187 462.5 144 c 128,-1,25
 441 101 441 101 406.5 64 c 128,-1,26
 372 27 372 27 319.5 5.5 c 128,-1,27
 267 -16 267 -16 203 -16 c 0,28,29
 118 -16 118 -16 69 27 c 128,-1,30
 20 70 20 70 4 142 c 1,0,-1
EndSplineSet
EndChar

StartChar: six
Encoding: 54 54 25
Width: 550
GlyphClass: 2
Flags: W
LayerCount: 2
Fore
SplineSet
161 236 m 0,0,1
 150 169 150 169 172.5 132 c 128,-1,2
 195 95 195 95 241 95 c 0,3,4
 286 95 286 95 319.5 131.5 c 128,-1,5
 353 168 353 168 364 236 c 256,6,7
 375 304 375 304 354 340.5 c 128,-1,8
 333 377 333 377 286 377 c 256,9,10
 240 377 240 377 206 338.5 c 128,-1,11
 172 300 172 300 161 236 c 0,0,1
40 336 m 0,12,13
 59 452 59 452 100 543 c 128,-1,14
 141 634 141 634 211.5 692.5 c 128,-1,15
 282 751 282 751 371 751 c 0,16,17
 518 751 518 751 556 593 c 1,18,-1
 446 557 l 1,19,20
 419 639 419 639 352 639 c 0,21,22
 273 639 273 639 218 509 c 0,23,24
 198 462 198 462 190 427 c 1,25,26
 242 488 242 488 323 488 c 0,27,28
 420 488 420 488 469 417 c 128,-1,29
 518 346 518 346 500 236 c 0,30,31
 482 125 482 125 408.5 54.5 c 128,-1,32
 335 -16 335 -16 226 -16 c 0,33,34
 111 -16 111 -16 65 62 c 0,35,36
 9 151 9 151 40 336 c 0,12,13
EndSplineSet
EndChar

StartChar: seven
Encoding: 55 55 26
Width: 550
GlyphClass: 2
Flags: W
LayerCount: 2
Fore
SplineSet
91 620 m 1,0,-1
 110 735 l 1,1,-1
 572 735 l 1,2,-1
 557 643 l 1,3,4
 352 383 352 383 200 -5 c 1,5,-1
 62 -5 l 1,6,7
 174 315 174 315 397 620 c 1,8,-1
 91 620 l 1,0,-1
EndSplineSet
EndChar

StartChar: eight
Encoding: 56 56 27
Width: 550
GlyphClass: 2
Flags: W
LayerCount: 2
Fore
SplineSet
226 540 m 0,0,1
 219 495 219 495 237.5 467 c 128,-1,2
 256 439 256 439 292 439 c 0,3,4
 330 439 330 439 358 467.5 c 128,-1,5
 386 496 386 496 393 540 c 0,6,7
 400 582 400 582 382.5 610.5 c 128,-1,8
 365 639 365 639 325 639 c 256,9,10
 286 639 286 639 259.5 610.5 c 128,-1,11
 233 582 233 582 226 540 c 0,0,1
10 204 m 0,12,13
 22 276 22 276 67 320.5 c 128,-1,14
 112 365 112 365 162 386 c 1,15,16
 71 443 71 443 89 546 c 0,17,18
 104 635 104 635 177 693 c 128,-1,19
 250 751 250 751 344 751 c 0,20,21
 440 751 440 751 493.5 693 c 128,-1,22
 547 635 547 635 533 546 c 0,23,24
 516 444 516 444 406 386 c 1,25,26
 453 363 453 363 481.5 318 c 128,-1,27
 510 273 510 273 498 204 c 0,28,29
 482 105 482 105 404 44.5 c 128,-1,30
 326 -16 326 -16 217 -16 c 0,31,32
 116 -16 116 -16 54.5 41.5 c 128,-1,33
 -7 99 -7 99 10 204 c 0,12,13
150 211 m 0,34,35
 142 161 142 161 165 128 c 128,-1,36
 188 95 188 95 235 95 c 256,37,38
 282 95 282 95 317.5 128.5 c 128,-1,39
 353 162 353 162 361 211 c 0,40,41
 369 258 369 258 345.5 293.5 c 128,-1,42
 322 329 322 329 274 329 c 0,43,44
 227 329 227 329 192.5 294 c 128,-1,45
 158 259 158 259 150 211 c 0,34,35
EndSplineSet
EndChar

StartChar: nine
Encoding: 57 57 28
Width: 550
GlyphClass: 2
Flags: W
LayerCount: 2
Fore
SplineSet
197 501 m 0,0,1
 186 437 186 437 207.5 399.5 c 128,-1,2
 229 362 229 362 273 362 c 0,3,4
 318 362 318 362 352 401 c 128,-1,5
 386 440 386 440 396 502 c 0,6,7
 406 561 406 561 386 600 c 128,-1,8
 366 639 366 639 319 639 c 0,9,10
 274 639 274 639 240.5 600 c 128,-1,11
 207 561 207 561 197 501 c 0,0,1
0 141 m 1,12,-1
 114 176 l 1,13,14
 141 95 141 95 206 95 c 0,15,16
 241 95 241 95 270 114.5 c 128,-1,17
 299 134 299 134 318 167.5 c 128,-1,18
 337 201 337 201 350 236 c 128,-1,19
 363 271 363 271 370 310 c 1,20,21
 318 252 318 252 236 252 c 0,22,23
 145 252 145 252 94.5 319.5 c 128,-1,24
 44 387 44 387 62 500 c 0,25,26
 81 612 81 612 157.5 681.5 c 128,-1,27
 234 751 234 751 337 751 c 0,28,29
 424 751 424 751 472.5 695 c 128,-1,30
 521 639 521 639 527 546 c 0,31,32
 531 487 531 487 516 401 c 0,33,34
 483 199 483 199 401 91.5 c 128,-1,35
 319 -16 319 -16 187 -16 c 0,36,37
 111 -16 111 -16 61 31.5 c 128,-1,38
 11 79 11 79 0 141 c 1,12,-1
EndSplineSet
EndChar

StartChar: colon
Encoding: 58 58 29
Width: 275
GlyphClass: 2
Flags: W
LayerCount: 2
Fore
SplineSet
7 0 m 1,0,-1
 32 153 l 1,1,-1
 196 153 l 1,2,-1
 171 0 l 1,3,-1
 7 0 l 1,0,-1
73 395 m 1,4,-1
 98 548 l 1,5,-1
 262 548 l 1,6,-1
 236 395 l 1,7,-1
 73 395 l 1,4,-1
EndSplineSet
EndChar

StartChar: semicolon
Encoding: 59 59 30
Width: 275
GlyphClass: 2
Flags: W
LayerCount: 2
Fore
SplineSet
-68 -152 m 1,0,-1
 73 153 l 1,1,-1
 215 153 l 1,2,-1
 36 -152 l 1,3,-1
 -68 -152 l 1,0,-1
82 395 m 1,4,-1
 108 548 l 1,5,-1
 272 548 l 1,6,-1
 247 395 l 1,7,-1
 82 395 l 1,4,-1
EndSplineSet
EndChar

StartChar: less
Encoding: 60 60 31
Width: 539
GlyphClass: 2
Flags: W
LayerCount: 2
Fore
SplineSet
36 296 m 1,0,-1
 56 416 l 1,1,-1
 500 719 l 1,2,-1
 553 620 l 1,3,-1
 170 357 l 1,4,-1
 465 92 l 1,5,-1
 380 -6 l 1,6,-1
 36 296 l 1,0,-1
EndSplineSet
EndChar

StartChar: equal
Encoding: 61 61 32
Width: 539
GlyphClass: 2
Flags: W
LayerCount: 2
Fore
SplineSet
30 201 m 1,0,-1
 49 316 l 1,1,-1
 501 316 l 1,2,-1
 482 201 l 1,3,-1
 30 201 l 1,0,-1
64 408 m 1,4,-1
 84 525 l 1,5,-1
 535 525 l 1,6,-1
 516 408 l 1,7,-1
 64 408 l 1,4,-1
EndSplineSet
Substitution2: "'sups' Superscript lookup 5 subtable" uni207C
Substitution2: "'aalt' Access All Alternates lookup 0 subtable" uni207C
EndChar

StartChar: greater
Encoding: 62 62 33
Width: 539
GlyphClass: 2
Flags: W
LayerCount: 2
Fore
SplineSet
63 -6 m 1,0,-1
 11 92 l 1,1,-1
 392 357 l 1,2,-1
 98 620 l 1,3,-1
 183 719 l 1,4,-1
 528 416 l 1,5,-1
 508 296 l 1,6,-1
 63 -6 l 1,0,-1
EndSplineSet
EndChar

StartChar: question
Encoding: 63 63 34
Width: 557
GlyphClass: 2
Flags: W
LayerCount: 2
Fore
SplineSet
100 572 m 1,0,1
 133 649 133 649 202.5 702.5 c 128,-1,2
 272 756 272 756 362 756 c 0,3,4
 460 756 460 756 512 698 c 128,-1,5
 564 640 564 640 548 545 c 0,6,7
 541 501 541 501 518.5 466 c 128,-1,8
 496 431 496 431 468 407.5 c 128,-1,9
 440 384 440 384 412.5 362 c 128,-1,10
 385 340 385 340 363.5 309.5 c 128,-1,11
 342 279 342 279 336 242 c 2,12,-1
 330 208 l 1,13,-1
 196 208 l 1,14,-1
 203 252 l 2,15,16
 210 297 210 297 232.5 334 c 128,-1,17
 255 371 255 371 282.5 395 c 128,-1,18
 310 419 310 419 337 441 c 128,-1,19
 364 463 364 463 384.5 491 c 128,-1,20
 405 519 405 519 411 551 c 0,21,22
 418 592 418 592 399.5 616.5 c 128,-1,23
 381 641 381 641 345 641 c 0,24,25
 270 641 270 641 212 532 c 1,26,-1
 100 572 l 1,0,1
146 -3 m 1,27,-1
 171 147 l 1,28,-1
 335 147 l 1,29,-1
 310 -3 l 1,30,-1
 146 -3 l 1,27,-1
EndSplineSet
EndChar

StartChar: at
Encoding: 64 64 35
Width: 905
GlyphClass: 2
Flags: W
LayerCount: 2
Fore
SplineSet
52 346 m 0,0,1
 83 532 83 532 223 652 c 128,-1,2
 363 772 363 772 552 772 c 0,3,4
 724 772 724 772 817.5 665.5 c 128,-1,5
 911 559 911 559 884 398 c 0,6,7
 874 336 874 336 851.5 286 c 128,-1,8
 829 236 829 236 802 204.5 c 128,-1,9
 775 173 775 173 742.5 152 c 128,-1,10
 710 131 710 131 680 122 c 128,-1,11
 650 113 650 113 620 113 c 0,12,13
 581 113 581 113 555 135 c 128,-1,14
 529 157 529 157 526 191 c 1,15,-1
 525 191 l 1,16,17
 507 162 507 162 468 138 c 128,-1,18
 429 114 429 114 386 114 c 0,19,20
 314 114 314 114 275 169.5 c 128,-1,21
 236 225 236 225 251 315 c 0,22,23
 271 436 271 436 342 504.5 c 128,-1,24
 413 573 413 573 497 573 c 0,25,26
 528 573 528 573 550.5 559 c 128,-1,27
 573 545 573 545 583 530 c 1,28,-1
 592 567 l 1,29,-1
 689 567 l 1,30,-1
 624 269 l 2,31,32
 623 264 623 264 623 260 c 0,33,34
 615 212 615 212 644 212 c 0,35,36
 680 212 680 212 718.5 260.5 c 128,-1,37
 757 309 757 309 770 392 c 0,38,39
 791 518 791 518 727.5 597.5 c 128,-1,40
 664 677 664 677 536 677 c 0,41,42
 397 677 397 677 293 582.5 c 128,-1,43
 189 488 189 488 166 346 c 0,44,45
 141 193 141 193 211.5 104.5 c 128,-1,46
 282 16 282 16 418 16 c 0,47,48
 518 16 518 16 622 45 c 1,49,-1
 626 -45 l 1,50,51
 526 -79 526 -79 402 -79 c 0,52,53
 209 -79 209 -79 115 38.5 c 128,-1,54
 21 156 21 156 52 346 c 0,0,1
371 317 m 0,55,56
 365 278 365 278 378 248.5 c 128,-1,57
 391 219 391 219 421 219 c 0,58,59
 455 219 455 219 490.5 260.5 c 128,-1,60
 526 302 526 302 542 398 c 0,61,62
 548 434 548 434 535.5 455 c 128,-1,63
 523 476 523 476 492 476 c 0,64,65
 456 476 456 476 419.5 431.5 c 128,-1,66
 383 387 383 387 371 317 c 0,55,56
EndSplineSet
EndChar

StartChar: A
Encoding: 65 65 36
Width: 651
GlyphClass: 2
Flags: W
LayerCount: 2
Fore
SplineSet
226 282 m 1,0,-1
 424 282 l 1,1,-1
 400 456 l 2,2,3
 392 516 392 516 381 603 c 1,4,-1
 377 603 l 1,5,6
 365 577 365 577 341.5 527 c 128,-1,7
 318 477 318 477 309 456 c 2,8,-1
 226 282 l 1,0,-1
-51 0 m 1,9,-1
 329 735 l 1,10,-1
 472 735 l 1,11,-1
 608 0 l 1,12,-1
 467 0 l 1,13,-1
 441 173 l 1,14,-1
 174 173 l 1,15,-1
 91 0 l 1,16,-1
 -51 0 l 1,9,-1
EndSplineSet
Substitution2: "Single Substitution lookup 12 subtable" ordfeminine
EndChar

StartChar: B
Encoding: 66 66 37
Width: 639
GlyphClass: 2
Flags: W
LayerCount: 2
Fore
SplineSet
23 0 m 1,0,-1
 145 735 l 1,1,-1
 420 735 l 2,2,3
 539 735 539 735 588 683 c 128,-1,4
 637 631 637 631 622 540 c 0,5,6
 613 488 613 488 584 449.5 c 128,-1,7
 555 411 555 411 513 390 c 1,8,9
 553 373 553 373 579 328 c 128,-1,10
 605 283 605 283 594 216 c 0,11,12
 578 122 578 122 509 61 c 128,-1,13
 440 0 440 0 334 0 c 2,14,-1
 23 0 l 1,0,-1
176 116 m 1,15,-1
 332 116 l 2,16,17
 375 116 375 116 411.5 142 c 128,-1,18
 448 168 448 168 456 216 c 0,19,20
 464 262 464 262 440 291 c 128,-1,21
 416 320 416 320 363 320 c 2,22,-1
 209 320 l 1,23,-1
 176 116 l 1,15,-1
229 436 m 1,24,-1
 360 436 l 2,25,26
 408 436 408 436 441 458.5 c 128,-1,27
 474 481 474 481 482 529 c 0,28,29
 497 618 497 618 393 618 c 2,30,-1
 259 618 l 1,31,-1
 229 436 l 1,24,-1
EndSplineSet
EndChar

StartChar: C
Encoding: 67 67 38
Width: 648
GlyphClass: 2
Flags: W
LayerCount: 2
Fore
SplineSet
47 368 m 0,0,1
 76 544 76 544 182.5 647.5 c 128,-1,2
 289 751 289 751 433 751 c 0,3,4
 527 751 527 751 585.5 699 c 128,-1,5
 644 647 644 647 663 569 c 1,6,-1
 542 530 l 1,7,8
 502 635 502 635 411 635 c 0,9,10
 328 635 328 635 266 562 c 128,-1,11
 204 489 204 489 184 368 c 0,12,13
 164 245 164 245 201.5 172.5 c 128,-1,14
 239 100 239 100 323 100 c 0,15,16
 378 100 378 100 426.5 135 c 128,-1,17
 475 170 475 170 502 220 c 1,18,-1
 617 183 l 1,19,20
 597 148 597 148 571 116 c 128,-1,21
 545 84 545 84 506 52.5 c 128,-1,22
 467 21 467 21 415.5 2.5 c 128,-1,23
 364 -16 364 -16 306 -16 c 0,24,25
 166 -16 166 -16 91.5 86 c 128,-1,26
 17 188 17 188 47 368 c 0,0,1
EndSplineSet
EndChar

StartChar: D
Encoding: 68 68 39
Width: 662
GlyphClass: 2
Flags: W
LayerCount: 2
Fore
SplineSet
23 0 m 1,0,-1
 145 735 l 1,1,-1
 363 735 l 2,2,3
 529 735 529 735 601.5 640 c 128,-1,4
 674 545 674 545 645 368 c 0,5,6
 635 310 635 310 616.5 258.5 c 128,-1,7
 598 207 598 207 565.5 158.5 c 128,-1,8
 533 110 533 110 489.5 76 c 128,-1,9
 446 42 446 42 382.5 21 c 128,-1,10
 319 0 319 0 242 0 c 2,11,-1
 23 0 l 1,0,-1
175 115 m 1,12,-1
 247 115 l 2,13,14
 354 115 354 115 419.5 175.5 c 128,-1,15
 485 236 485 236 506 368 c 0,16,17
 529 504 529 504 481.5 562 c 128,-1,18
 434 620 434 620 332 620 c 2,19,-1
 259 620 l 1,20,-1
 175 115 l 1,12,-1
EndSplineSet
EndChar

StartChar: E
Encoding: 69 69 40
Width: 583
GlyphClass: 2
Flags: W
LayerCount: 2
Fore
SplineSet
23 0 m 1,0,-1
 145 735 l 1,1,-1
 624 735 l 1,2,-1
 605 618 l 1,3,-1
 259 618 l 1,4,-1
 229 437 l 1,5,-1
 540 437 l 1,6,-1
 521 322 l 1,7,-1
 210 322 l 1,8,-1
 176 116 l 1,9,-1
 530 116 l 1,10,-1
 511 0 l 1,11,-1
 23 0 l 1,0,-1
EndSplineSet
EndChar

StartChar: F
Encoding: 70 70 41
Width: 546
GlyphClass: 2
Flags: W
LayerCount: 2
Fore
SplineSet
23 0 m 1,0,-1
 145 735 l 1,1,-1
 609 735 l 1,2,-1
 590 618 l 1,3,-1
 259 618 l 1,4,-1
 227 425 l 1,5,-1
 525 425 l 1,6,-1
 506 310 l 1,7,-1
 208 310 l 1,8,-1
 156 0 l 1,9,-1
 23 0 l 1,0,-1
EndSplineSet
EndChar

StartChar: G
Encoding: 71 71 42
Width: 688
GlyphClass: 2
Flags: W
LayerCount: 2
Fore
SplineSet
47 368 m 0,0,1
 75 536 75 536 181.5 643.5 c 128,-1,2
 288 751 288 751 438 751 c 0,3,4
 484 751 484 751 523 737.5 c 128,-1,5
 562 724 562 724 587.5 704.5 c 128,-1,6
 613 685 613 685 632 659 c 128,-1,7
 651 633 651 633 660.5 612 c 128,-1,8
 670 591 670 591 675 570 c 1,9,-1
 554 532 l 1,10,11
 543 554 543 554 534.5 568 c 128,-1,12
 526 582 526 582 510.5 599.5 c 128,-1,13
 495 617 495 617 472.5 626 c 128,-1,14
 450 635 450 635 420 635 c 0,15,16
 329 635 329 635 266.5 562 c 128,-1,17
 204 489 204 489 184 368 c 0,18,19
 164 246 164 246 203.5 173 c 128,-1,20
 243 100 243 100 326 100 c 0,21,22
 396 100 396 100 442.5 139 c 128,-1,23
 489 178 489 178 507 241 c 0,24,25
 518 292 518 292 519 299 c 1,26,-1
 351 299 l 1,27,-1
 370 415 l 1,28,-1
 668 415 l 1,29,-1
 599 0 l 1,30,-1
 508 0 l 1,31,-1
 506 66 l 1,32,33
 432 -16 432 -16 303 -16 c 0,34,35
 166 -16 166 -16 92 88 c 128,-1,36
 18 192 18 192 47 368 c 0,0,1
EndSplineSet
EndChar

StartChar: H
Encoding: 72 72 43
Width: 675
GlyphClass: 2
Flags: W
LayerCount: 2
Fore
SplineSet
23 0 m 1,0,-1
 145 735 l 1,1,-1
 277 735 l 1,2,-1
 228 436 l 1,3,-1
 498 436 l 1,4,-1
 548 735 l 1,5,-1
 681 735 l 1,6,-1
 559 0 l 1,7,-1
 426 0 l 1,8,-1
 479 320 l 1,9,-1
 208 320 l 1,10,-1
 155 0 l 1,11,-1
 23 0 l 1,0,-1
EndSplineSet
EndChar

StartChar: I
Encoding: 73 73 44
Width: 271
GlyphClass: 2
Flags: W
LayerCount: 2
Fore
SplineSet
23 0 m 1,0,-1
 145 735 l 1,1,-1
 278 735 l 1,2,-1
 156 0 l 1,3,-1
 23 0 l 1,0,-1
EndSplineSet
EndChar

StartChar: J
Encoding: 74 74 45
Width: 502
GlyphClass: 2
Flags: W
LayerCount: 2
Fore
SplineSet
-17 142 m 1,0,-1
 100 187 l 1,1,2
 103 152 103 152 123.5 126 c 128,-1,3
 144 100 144 100 180 100 c 0,4,5
 223 100 223 100 251.5 133.5 c 128,-1,6
 280 167 280 167 290 229 c 2,7,-1
 374 735 l 1,8,-1
 508 735 l 1,9,-1
 422 212 l 2,10,11
 404 103 404 103 336.5 43.5 c 128,-1,12
 269 -16 269 -16 164 -16 c 0,13,14
 79 -16 79 -16 35 31 c 128,-1,15
 -9 78 -9 78 -17 142 c 1,0,-1
EndSplineSet
EndChar

StartChar: K
Encoding: 75 75 46
Width: 636
GlyphClass: 2
Flags: W
LayerCount: 2
Fore
SplineSet
23 0 m 1,0,-1
 145 735 l 1,1,-1
 278 735 l 1,2,-1
 226 420 l 1,3,-1
 228 420 l 1,4,-1
 546 735 l 1,5,-1
 712 735 l 1,6,-1
 380 413 l 1,7,-1
 595 0 l 1,8,-1
 436 0 l 1,9,-1
 279 317 l 1,10,-1
 195 235 l 1,11,-1
 156 0 l 1,12,-1
 23 0 l 1,0,-1
EndSplineSet
EndChar

StartChar: L
Encoding: 76 76 47
Width: 533
GlyphClass: 2
Flags: W
LayerCount: 2
Fore
SplineSet
23 0 m 1,0,-1
 145 735 l 1,1,-1
 278 735 l 1,2,-1
 176 116 l 1,3,-1
 496 116 l 1,4,-1
 477 0 l 1,5,-1
 23 0 l 1,0,-1
EndSplineSet
EndChar

StartChar: M
Encoding: 77 77 48
Width: 819
GlyphClass: 2
Flags: W
LayerCount: 2
Fore
SplineSet
23 0 m 1,0,-1
 145 735 l 1,1,-1
 306 735 l 1,2,-1
 368 409 l 2,3,4
 375 373 375 373 385 308 c 128,-1,5
 395 243 395 243 398 220 c 1,6,-1
 401 220 l 1,7,8
 411 238 411 238 442.5 303 c 128,-1,9
 474 368 474 368 495 409 c 2,10,-1
 662 735 l 1,11,-1
 825 735 l 1,12,-1
 703 0 l 1,13,-1
 572 0 l 1,14,-1
 623 308 l 2,15,16
 637 394 637 394 675 537 c 1,17,-1
 671 537 l 1,18,-1
 586 362 l 1,19,-1
 417 38 l 1,20,-1
 321 38 l 1,21,-1
 262 362 l 1,22,-1
 234 538 l 1,23,-1
 229 538 l 1,24,25
 222 404 222 404 206 308 c 2,26,-1
 155 0 l 1,27,-1
 23 0 l 1,0,-1
EndSplineSet
EndChar

StartChar: N
Encoding: 78 78 49
Width: 680
GlyphClass: 2
Flags: W
LayerCount: 2
Fore
SplineSet
23 0 m 1,0,-1
 145 735 l 1,1,-1
 281 735 l 1,2,-1
 421 352 l 1,3,-1
 474 204 l 1,4,-1
 479 204 l 1,5,6
 482 310 482 310 500 417 c 2,7,-1
 552 735 l 1,8,-1
 686 735 l 1,9,-1
 564 0 l 1,10,-1
 427 0 l 1,11,-1
 287 373 l 1,12,-1
 233 528 l 1,13,-1
 229 528 l 1,14,15
 227 426 227 426 208 314 c 2,16,-1
 156 0 l 1,17,-1
 23 0 l 1,0,-1
EndSplineSet
EndChar

StartChar: O
Encoding: 79 79 50
Width: 688
GlyphClass: 2
Flags: W
LayerCount: 2
Fore
SplineSet
47 367 m 256,0,1
 76 540 76 540 179 645.5 c 128,-1,2
 282 751 282 751 422 751 c 0,3,4
 563 751 563 751 631 645.5 c 128,-1,5
 699 540 699 540 671 367 c 256,6,7
 642 194 642 194 539 89 c 128,-1,8
 436 -16 436 -16 295 -16 c 256,9,10
 154 -16 154 -16 86 89 c 128,-1,11
 18 194 18 194 47 367 c 256,0,1
184 367 m 256,12,13
 164 244 164 244 198 172 c 128,-1,14
 232 100 232 100 314 100 c 0,15,16
 395 100 395 100 453 171.5 c 128,-1,17
 511 243 511 243 532 367 c 0,18,19
 552 490 552 490 518.5 562.5 c 128,-1,20
 485 635 485 635 403 635 c 0,21,22
 322 635 322 635 263 562.5 c 128,-1,23
 204 490 204 490 184 367 c 256,12,13
EndSplineSet
Substitution2: "Single Substitution lookup 12 subtable" ordmasculine
EndChar

StartChar: P
Encoding: 80 80 51
Width: 624
GlyphClass: 2
Flags: W
LayerCount: 2
Fore
SplineSet
23 0 m 1,0,-1
 145 735 l 1,1,-1
 429 735 l 2,2,3
 545 735 545 735 598 672 c 128,-1,4
 651 609 651 609 634 507 c 0,5,6
 616 401 616 401 540.5 340 c 128,-1,7
 465 279 465 279 356 279 c 2,8,-1
 203 279 l 1,9,-1
 156 0 l 1,10,-1
 23 0 l 1,0,-1
222 395 m 1,11,-1
 357 395 l 2,12,13
 415 395 415 395 452 424 c 128,-1,14
 489 453 489 453 498 507 c 256,15,16
 507 561 507 561 480.5 589.5 c 128,-1,17
 454 618 454 618 394 618 c 2,18,-1
 259 618 l 1,19,-1
 222 395 l 1,11,-1
EndSplineSet
EndChar

StartChar: Q
Encoding: 81 81 52
Width: 688
GlyphClass: 2
Flags: W
LayerCount: 2
Fore
SplineSet
47 367 m 256,0,1
 76 540 76 540 179 645.5 c 128,-1,2
 282 751 282 751 422 751 c 0,3,4
 563 751 563 751 631 645.5 c 128,-1,5
 699 540 699 540 671 367 c 0,6,7
 644 202 644 202 548 99 c 1,8,-1
 612 16 l 1,9,-1
 527 -51 l 1,10,-1
 464 30 l 1,11,12
 388 -16 388 -16 295 -16 c 0,13,14
 154 -16 154 -16 86 89 c 128,-1,15
 18 194 18 194 47 367 c 256,0,1
306 234 m 1,16,-1
 391 302 l 1,17,-1
 472 198 l 1,18,19
 514 264 514 264 532 367 c 0,20,21
 553 491 553 491 518.5 563 c 128,-1,22
 484 635 484 635 403 635 c 256,23,24
 322 635 322 635 263 562.5 c 128,-1,25
 204 490 204 490 184 367 c 256,26,27
 164 244 164 244 198 172 c 128,-1,28
 232 100 232 100 314 100 c 0,29,30
 357 100 357 100 394 120 c 1,31,-1
 306 234 l 1,16,-1
EndSplineSet
EndChar

StartChar: R
Encoding: 82 82 53
Width: 648
GlyphClass: 2
Flags: W
LayerCount: 2
Fore
SplineSet
223 402 m 1,0,-1
 360 402 l 2,1,2
 418 402 418 402 454 430 c 128,-1,3
 490 458 490 458 499 513 c 0,4,5
 507 561 507 561 480 589.5 c 128,-1,6
 453 618 453 618 395 618 c 2,7,-1
 259 618 l 1,8,-1
 223 402 l 1,0,-1
23 0 m 1,9,-1
 145 735 l 1,10,-1
 440 735 l 2,11,12
 553 735 553 735 603 675 c 128,-1,13
 653 615 653 615 638 524 c 0,14,15
 625 448 625 448 586.5 402 c 128,-1,16
 548 356 548 356 502 338 c 1,17,18
 530 314 530 314 541 288 c 128,-1,19
 552 262 552 262 551 207 c 0,20,21
 553 107 553 107 597 0 c 1,22,-1
 448 0 l 1,23,24
 415 79 415 79 409 197 c 0,25,26
 407 243 407 243 393.5 264.5 c 128,-1,27
 380 286 380 286 342 286 c 2,28,-1
 204 286 l 1,29,-1
 156 0 l 1,30,-1
 23 0 l 1,9,-1
EndSplineSet
EndChar

StartChar: S
Encoding: 83 83 54
Width: 591
GlyphClass: 2
Flags: W
LayerCount: 2
Fore
SplineSet
-2 163 m 1,0,-1
 122 203 l 1,1,2
 138 158 138 158 181.5 129 c 128,-1,3
 225 100 225 100 279 100 c 0,4,5
 334 100 334 100 371.5 127 c 128,-1,6
 409 154 409 154 416 196 c 0,7,8
 424 243 424 243 391.5 270.5 c 128,-1,9
 359 298 359 298 293 321 c 0,10,11
 194 357 194 357 162 377 c 0,12,13
 70 435 70 435 88 546 c 0,14,15
 103 638 103 638 184 694.5 c 128,-1,16
 265 751 265 751 379 751 c 0,17,18
 474 751 474 751 533.5 705.5 c 128,-1,19
 593 660 593 660 613 589 c 1,20,-1
 495 551 l 1,21,22
 450 635 450 635 359 635 c 0,23,24
 304 635 304 635 268.5 610 c 128,-1,25
 233 585 233 585 226 546 c 0,26,27
 224 533 224 533 225 522 c 128,-1,28
 226 511 226 511 232 502 c 128,-1,29
 238 493 238 493 244 485 c 128,-1,30
 250 477 250 477 262 470 c 128,-1,31
 274 463 274 463 282.5 458 c 128,-1,32
 291 453 291 453 308.5 446 c 128,-1,33
 326 439 326 439 336 436 c 128,-1,34
 346 433 346 433 366.5 426 c 128,-1,35
 387 419 387 419 396 415 c 0,36,37
 435 402 435 402 463 386.5 c 128,-1,38
 491 371 491 371 517.5 346 c 128,-1,39
 544 321 544 321 553.5 284.5 c 128,-1,40
 563 248 563 248 556 203 c 0,41,42
 539 99 539 99 454.5 41.5 c 128,-1,43
 370 -16 370 -16 256 -16 c 0,44,45
 157 -16 157 -16 88.5 32 c 128,-1,46
 20 80 20 80 -2 163 c 1,0,-1
EndSplineSet
EndChar

StartChar: T
Encoding: 84 84 55
Width: 558
GlyphClass: 2
Flags: W
LayerCount: 2
Fore
SplineSet
64 618 m 1,0,-1
 84 735 l 1,1,-1
 625 735 l 1,2,-1
 605 618 l 1,3,-1
 402 618 l 1,4,-1
 299 0 l 1,5,-1
 166 0 l 1,6,-1
 268 618 l 1,7,-1
 64 618 l 1,0,-1
EndSplineSet
EndChar

StartChar: U
Encoding: 85 85 56
Width: 671
GlyphClass: 2
Flags: W
LayerCount: 2
Fore
SplineSet
65 278 m 2,0,-1
 141 735 l 1,1,-1
 275 735 l 1,2,-1
 200 277 l 2,3,4
 171 100 171 100 305 100 c 0,5,6
 441 100 441 100 471 277 c 2,7,-1
 547 735 l 1,8,-1
 681 735 l 1,9,-1
 605 278 l 2,10,11
 581 135 581 135 501.5 59.5 c 128,-1,12
 422 -16 422 -16 286 -16 c 0,13,14
 156 -16 156 -16 98 57 c 128,-1,15
 40 130 40 130 65 278 c 2,0,-1
EndSplineSet
EndChar

StartChar: V
Encoding: 86 86 57
Width: 608
GlyphClass: 2
Flags: W
LayerCount: 2
Fore
SplineSet
76 735 m 1,0,-1
 221 735 l 1,1,-1
 264 336 l 1,2,3
 279 147 279 147 279 143 c 1,4,-1
 283 143 l 1,5,6
 360 332 360 332 362 336 c 2,7,-1
 537 735 l 1,8,-1
 682 735 l 1,9,-1
 330 0 l 1,10,-1
 184 0 l 1,11,-1
 76 735 l 1,0,-1
EndSplineSet
EndChar

StartChar: W
Encoding: 87 87 58
Width: 862
GlyphClass: 2
Flags: W
LayerCount: 2
Fore
SplineSet
86 735 m 1,0,-1
 225 735 l 1,1,-1
 228 358 l 2,2,3
 229 338 229 338 228 292 c 128,-1,4
 227 246 227 246 227 209 c 128,-1,5
 227 172 227 172 226 146 c 1,6,-1
 230 146 l 1,7,8
 291 323 291 323 303 358 c 2,9,-1
 439 735 l 1,10,-1
 573 735 l 1,11,-1
 586 358 l 2,12,13
 587 325 587 325 587 243 c 128,-1,14
 587 161 587 161 588 146 c 1,15,-1
 592 146 l 1,16,17
 602 175 602 175 626.5 251.5 c 128,-1,18
 651 328 651 328 661 358 c 2,19,-1
 787 735 l 1,20,-1
 927 735 l 1,21,-1
 645 0 l 1,22,-1
 493 0 l 1,23,-1
 483 372 l 2,24,25
 481 548 481 548 482 571 c 1,26,-1
 477 571 l 1,27,28
 465 531 465 531 439 456 c 128,-1,29
 413 381 413 381 410 372 c 2,30,-1
 277 0 l 1,31,-1
 125 0 l 1,32,-1
 86 735 l 1,0,-1
EndSplineSet
EndChar

StartChar: X
Encoding: 88 88 59
Width: 616
GlyphClass: 2
Flags: W
LayerCount: 2
Fore
SplineSet
-43 0 m 1,0,-1
 246 377 l 1,1,-1
 90 735 l 1,2,-1
 245 735 l 1,3,-1
 302 581 l 2,4,5
 308 561 308 561 320.5 527 c 128,-1,6
 333 493 333 493 339 478 c 1,7,-1
 343 478 l 1,8,9
 366 513 366 513 414 581 c 2,10,-1
 522 735 l 1,11,-1
 677 735 l 1,12,-1
 401 377 l 1,13,-1
 568 0 l 1,14,-1
 414 0 l 1,15,-1
 349 168 l 2,16,17
 315 257 315 257 309 273 c 1,18,-1
 305 273 l 1,19,20
 233 171 233 171 230 168 c 2,21,-1
 111 0 l 1,22,-1
 -43 0 l 1,0,-1
EndSplineSet
EndChar

StartChar: Y
Encoding: 89 89 60
Width: 625
GlyphClass: 2
Flags: W
LayerCount: 2
Fore
SplineSet
73 735 m 1,0,-1
 226 735 l 1,1,-1
 296 521 l 2,2,3
 320 446 320 446 332 406 c 1,4,-1
 335 406 l 1,5,6
 386 483 386 483 410 521 c 2,7,-1
 552 735 l 1,8,-1
 704 735 l 1,9,-1
 383 298 l 1,10,-1
 333 0 l 1,11,-1
 200 0 l 1,12,-1
 249 298 l 1,13,-1
 73 735 l 1,0,-1
EndSplineSet
EndChar

StartChar: Z
Encoding: 90 90 61
Width: 585
GlyphClass: 2
Flags: W
LayerCount: 2
Fore
SplineSet
-6 99 m 1,0,-1
 443 618 l 1,1,-1
 110 618 l 1,2,-1
 130 735 l 1,3,-1
 628 735 l 1,4,-1
 612 634 l 1,5,-1
 161 116 l 1,6,-1
 536 116 l 1,7,-1
 517 0 l 1,8,-1
 -22 0 l 1,9,-1
 -6 99 l 1,0,-1
EndSplineSet
EndChar

StartChar: bracketleft
Encoding: 91 91 62
Width: 419
GlyphClass: 2
Flags: W
LayerCount: 2
Fore
SplineSet
39 -117 m 1,0,-1
 195 824 l 1,1,-1
 436 824 l 1,2,-1
 418 717 l 1,3,-1
 306 717 l 1,4,-1
 185 -9 l 1,5,-1
 298 -9 l 1,6,-1
 280 -117 l 1,7,-1
 39 -117 l 1,0,-1
EndSplineSet
EndChar

StartChar: backslash
Encoding: 92 92 63
Width: 368
GlyphClass: 2
Flags: W
LayerCount: 2
Fore
SplineSet
68 783 m 1,0,-1
 202 783 l 1,1,-1
 330 -52 l 1,2,-1
 196 -52 l 1,3,-1
 68 783 l 1,0,-1
EndSplineSet
EndChar

StartChar: bracketright
Encoding: 93 93 64
Width: 419
GlyphClass: 2
Flags: W
LayerCount: 2
Fore
SplineSet
24 -9 m 1,0,-1
 137 -9 l 1,1,-1
 257 717 l 1,2,-1
 144 717 l 1,3,-1
 162 824 l 1,4,-1
 404 824 l 1,5,-1
 248 -117 l 1,6,-1
 6 -117 l 1,7,-1
 24 -9 l 1,0,-1
EndSplineSet
EndChar

StartChar: asciicircum
Encoding: 94 94 65
Width: 527
GlyphClass: 2
Flags: W
LayerCount: 2
Fore
SplineSet
37 455 m 1,0,-1
 291 810 l 1,1,-1
 411 810 l 1,2,-1
 548 455 l 1,3,-1
 415 455 l 1,4,-1
 355 639 l 1,5,-1
 335 706 l 1,6,-1
 333 706 l 1,7,-1
 289 637 l 1,8,-1
 168 455 l 1,9,-1
 37 455 l 1,0,-1
EndSplineSet
EndChar

StartChar: underscore
Encoding: 95 95 66
Width: 487
GlyphClass: 2
Flags: W
LayerCount: 2
Fore
SplineSet
-43 -6 m 1,0,-1
 438 -6 l 1,1,-1
 420 -113 l 1,2,-1
 -61 -113 l 1,3,-1
 -43 -6 l 1,0,-1
EndSplineSet
EndChar

StartChar: grave
Encoding: 96 96 67
Width: 343
GlyphClass: 2
Flags: W
LayerCount: 2
Fore
SplineSet
200 509 m 1,0,-1
 122 814 l 1,1,-1
 263 814 l 1,2,-1
 304 509 l 1,3,-1
 200 509 l 1,0,-1
EndSplineSet
EndChar

StartChar: a
Encoding: 97 97 68
Width: 512
GlyphClass: 2
Flags: W
LayerCount: 2
Fore
SplineSet
131 155 m 0,0,1
 127 129 127 129 143.5 110.5 c 128,-1,2
 160 92 160 92 192 92 c 0,3,4
 241 92 241 92 281.5 127 c 128,-1,5
 322 162 322 162 331 218 c 2,6,-1
 338 260 l 1,7,8
 302 251 302 251 247 243 c 0,9,10
 143 226 143 226 131 155 c 0,0,1
3 144 m 0,11,12
 15 218 15 218 76.5 265.5 c 128,-1,13
 138 313 138 313 246 330 c 0,14,15
 332 344 332 344 353 351 c 1,16,-1
 358 379 l 2,17,18
 364 415 364 415 343 433.5 c 128,-1,19
 322 452 322 452 282 452 c 0,20,21
 202 452 202 452 130 383 c 1,22,-1
 68 450 l 1,23,24
 167 554 167 554 298 554 c 0,25,26
 413 554 413 554 452 496 c 128,-1,27
 491 438 491 438 473 331 c 2,28,-1
 419 0 l 1,29,-1
 299 0 l 1,30,-1
 309 61 l 1,31,32
 288 29 288 29 246.5 6.5 c 128,-1,33
 205 -16 205 -16 156 -16 c 0,34,35
 73 -16 73 -16 32 28.5 c 128,-1,36
 -9 73 -9 73 3 144 c 0,11,12
EndSplineSet
Substitution2: "Single Substitution lookup 12 subtable" ordfeminine
EndChar

StartChar: b
Encoding: 98 98 69
Width: 548
GlyphClass: 2
Flags: W
LayerCount: 2
Fore
SplineSet
13 0 m 1,0,-1
 139 759 l 1,1,-1
 259 759 l 1,2,-1
 214 489 l 1,3,4
 275 554 275 554 349 554 c 0,5,6
 443 554 443 554 492 478.5 c 128,-1,7
 541 403 541 403 519 269 c 0,8,9
 507 194 507 194 477 136.5 c 128,-1,10
 447 79 447 79 409.5 47 c 128,-1,11
 372 15 372 15 333 -0.5 c 128,-1,12
 294 -16 294 -16 257 -16 c 0,13,14
 214 -16 214 -16 183 7 c 128,-1,15
 152 30 152 30 142 61 c 1,16,-1
 131 0 l 1,17,-1
 13 0 l 1,0,-1
178 269 m 0,18,19
 165 188 165 188 186 141.5 c 128,-1,20
 207 95 207 95 256 95 c 0,21,22
 303 95 303 95 341 139.5 c 128,-1,23
 379 184 379 184 393 269 c 0,24,25
 406 350 406 350 385 396.5 c 128,-1,26
 364 443 364 443 314 443 c 0,27,28
 263 443 263 443 227 395 c 128,-1,29
 191 347 191 347 178 269 c 0,18,19
EndSplineSet
EndChar

StartChar: c
Encoding: 99 99 70
Width: 489
GlyphClass: 2
Flags: W
LayerCount: 2
Fore
SplineSet
26 268 m 0,0,1
 48 400 48 400 127 477 c 128,-1,2
 206 554 206 554 311 554 c 0,3,4
 390 554 390 554 434.5 503.5 c 128,-1,5
 479 453 479 453 480 389 c 1,6,-1
 371 359 l 1,7,8
 367 393 367 393 347.5 418 c 128,-1,9
 328 443 328 443 294 443 c 0,10,11
 239 443 239 443 201.5 393 c 128,-1,12
 164 343 164 343 152 268 c 0,13,14
 138 185 138 185 162.5 140 c 128,-1,15
 187 95 187 95 236 95 c 0,16,17
 274 95 274 95 306.5 123 c 128,-1,18
 339 151 339 151 355 186 c 1,19,-1
 454 155 l 1,20,21
 428 88 428 88 361 36 c 128,-1,22
 294 -16 294 -16 216 -16 c 0,23,24
 111 -16 111 -16 58 61.5 c 128,-1,25
 5 139 5 139 26 268 c 0,0,1
EndSplineSet
EndChar

StartChar: d
Encoding: 100 100 71
Width: 548
GlyphClass: 2
Flags: W
LayerCount: 2
Fore
SplineSet
26 269 m 0,0,1
 48 403 48 403 121.5 478.5 c 128,-1,2
 195 554 195 554 291 554 c 0,3,4
 332 554 332 554 360 534.5 c 128,-1,5
 388 515 388 515 401 488 c 1,6,-1
 446 759 l 1,7,-1
 568 759 l 1,8,-1
 442 0 l 1,9,-1
 324 0 l 1,10,-1
 334 61 l 1,11,12
 312 29 312 29 274 6.5 c 128,-1,13
 236 -16 236 -16 195 -16 c 256,14,15
 154 -16 154 -16 120 0 c 128,-1,16
 86 16 86 16 59 48 c 128,-1,17
 32 80 32 80 23 137 c 128,-1,18
 14 194 14 194 26 269 c 0,0,1
152 269 m 0,19,20
 138 185 138 185 159.5 140 c 128,-1,21
 181 95 181 95 231 95 c 0,22,23
 279 95 279 95 316 141.5 c 128,-1,24
 353 188 353 188 366 269 c 0,25,26
 379 347 379 347 359 395 c 128,-1,27
 339 443 339 443 288 443 c 0,28,29
 237 443 237 443 201 395.5 c 128,-1,30
 165 348 165 348 152 269 c 0,19,20
EndSplineSet
EndChar

StartChar: e
Encoding: 101 101 72
Width: 526
GlyphClass: 2
Flags: W
LayerCount: 2
Fore
SplineSet
26 271 m 256,0,1
 48 402 48 402 128 478 c 128,-1,2
 208 554 208 554 311 554 c 0,3,4
 411 554 411 554 465 476.5 c 128,-1,5
 519 399 519 399 498 274 c 0,6,7
 492 240 492 240 489 224 c 1,8,-1
 142 224 l 1,9,10
 133 168 133 168 159 128 c 128,-1,11
 185 88 185 88 241 88 c 0,12,13
 281 88 281 88 315.5 109.5 c 128,-1,14
 350 131 350 131 372 163 c 1,15,-1
 467 125 l 1,16,17
 433 65 433 65 369 24.5 c 128,-1,18
 305 -16 305 -16 221 -16 c 0,19,20
 113 -16 113 -16 58.5 62 c 128,-1,21
 4 140 4 140 26 271 c 256,0,1
158 314 m 1,22,-1
 381 314 l 1,23,24
 390 371 390 371 367.5 411 c 128,-1,25
 345 451 345 451 294 451 c 0,26,27
 242 451 242 451 205 410.5 c 128,-1,28
 168 370 168 370 158 314 c 1,22,-1
EndSplineSet
EndChar

StartChar: f
Encoding: 102 102 73
Width: 331
GlyphClass: 2
Flags: W
LayerCount: 2
Fore
SplineSet
44 427 m 1,0,-1
 62 538 l 1,1,-1
 137 538 l 1,2,-1
 146 590 l 2,3,4
 160 673 160 673 206.5 716 c 128,-1,5
 253 759 253 759 326 759 c 2,6,-1
 411 759 l 1,7,-1
 392 647 l 1,8,-1
 325 647 l 2,9,10
 301 647 301 647 287.5 631.5 c 128,-1,11
 274 616 274 616 268 581 c 2,12,-1
 261 538 l 1,13,-1
 363 538 l 1,14,-1
 344 427 l 1,15,-1
 243 427 l 1,16,-1
 172 0 l 1,17,-1
 48 0 l 1,18,-1
 119 427 l 1,19,-1
 44 427 l 1,0,-1
EndSplineSet
EndChar

StartChar: g
Encoding: 103 103 74
Width: 533
GlyphClass: 2
Flags: W
LayerCount: 2
Fore
SplineSet
155 279 m 256,0,1
 142 202 142 202 163 159.5 c 128,-1,2
 184 117 184 117 230 117 c 0,3,4
 276 117 276 117 310.5 159 c 128,-1,5
 345 201 345 201 358 280 c 256,6,7
 371 359 371 359 350.5 401 c 128,-1,8
 330 443 330 443 286 443 c 0,9,10
 238 443 238 443 203 399.5 c 128,-1,11
 168 356 168 356 155 279 c 256,0,1
30 278 m 0,12,13
 51 404 51 404 123.5 479 c 128,-1,14
 196 554 196 554 288 554 c 0,15,16
 332 554 332 554 357.5 532 c 128,-1,17
 383 510 383 510 392 484 c 1,18,-1
 401 538 l 1,19,-1
 524 538 l 1,20,-1
 447 78 l 2,21,22
 422 -75 422 -75 353 -147 c 128,-1,23
 284 -219 284 -219 167 -219 c 0,24,25
 36 -219 36 -219 -18 -113 c 1,26,-1
 73 -53 l 1,27,28
 111 -115 111 -115 186 -115 c 0,29,30
 229 -115 229 -115 264.5 -80.5 c 128,-1,31
 300 -46 300 -46 313 9 c 0,32,33
 320 38 320 38 324 66 c 1,34,35
 302 39 302 39 268 22 c 128,-1,36
 234 5 234 5 200 5 c 0,37,38
 103 5 103 5 56 79.5 c 128,-1,39
 9 154 9 154 30 278 c 0,12,13
EndSplineSet
EndChar

StartChar: h
Encoding: 104 104 75
Width: 526
GlyphClass: 2
Flags: W
LayerCount: 2
Fore
SplineSet
13 0 m 1,0,-1
 139 759 l 1,1,-1
 259 759 l 1,2,-1
 215 493 l 1,3,-1
 218 493 l 1,4,5
 243 520 243 520 279 537 c 128,-1,6
 315 554 315 554 353 554 c 0,7,8
 425 554 425 554 466 504.5 c 128,-1,9
 507 455 507 455 488 345 c 2,10,-1
 431 0 l 1,11,-1
 310 0 l 1,12,-1
 365 331 l 2,13,14
 384 443 384 443 311 443 c 0,15,16
 266 443 266 443 229.5 402.5 c 128,-1,17
 193 362 193 362 184 305 c 2,18,-1
 133 0 l 1,19,-1
 13 0 l 1,0,-1
EndSplineSet
Substitution2: "'sups' Superscript lookup 5 subtable" uni02B0
Substitution2: "'aalt' Access All Alternates lookup 0 subtable" uni02B0
EndChar

StartChar: i
Encoding: 105 105 76
Width: 247
GlyphClass: 2
Flags: W
LayerCount: 2
Fore
SplineSet
113 606 m 1,0,-1
 136 745 l 1,1,-1
 263 745 l 1,2,-1
 240 606 l 1,3,-1
 113 606 l 1,0,-1
16 0 m 1,4,-1
 105 538 l 1,5,-1
 226 538 l 1,6,-1
 137 0 l 1,7,-1
 16 0 l 1,4,-1
EndSplineSet
EndChar

StartChar: j
Encoding: 106 106 77
Width: 256
GlyphClass: 2
Flags: W
LayerCount: 2
Fore
SplineSet
121 606 m 1,0,-1
 144 745 l 1,1,-1
 274 745 l 1,2,-1
 251 606 l 1,3,-1
 121 606 l 1,0,-1
-74 -95 m 1,4,-1
 -57 -95 l 2,5,6
 -24 -95 -24 -95 -4 -71.5 c 128,-1,7
 16 -48 16 -48 24 4 c 2,8,-1
 113 538 l 1,9,-1
 236 538 l 1,10,-1
 147 -1 l 2,11,12
 130 -103 130 -103 78 -155 c 128,-1,13
 26 -207 26 -207 -56 -207 c 2,14,-1
 -92 -207 l 1,15,-1
 -74 -95 l 1,4,-1
EndSplineSet
Substitution2: "'sups' Superscript lookup 5 subtable" uni02B2
Substitution2: "'aalt' Access All Alternates lookup 0 subtable" uni02B2
EndChar

StartChar: k
Encoding: 107 107 78
Width: 502
GlyphClass: 2
Flags: W
LayerCount: 2
Fore
SplineSet
13 0 m 1,0,-1
 139 759 l 1,1,-1
 260 759 l 1,2,-1
 191 341 l 1,3,-1
 392 538 l 1,4,-1
 547 538 l 1,5,-1
 320 318 l 1,6,-1
 468 0 l 1,7,-1
 323 0 l 1,8,-1
 225 226 l 1,9,-1
 162 165 l 1,10,-1
 134 0 l 1,11,-1
 13 0 l 1,0,-1
EndSplineSet
EndChar

StartChar: l
Encoding: 108 108 79
Width: 247
GlyphClass: 2
Flags: W
LayerCount: 2
Fore
SplineSet
16 0 m 1,0,-1
 141 759 l 1,1,-1
 265 759 l 1,2,-1
 139 0 l 1,3,-1
 16 0 l 1,0,-1
EndSplineSet
Substitution2: "'sups' Superscript lookup 5 subtable" uni02E1
Substitution2: "'aalt' Access All Alternates lookup 0 subtable" uni02E1
EndChar

StartChar: m
Encoding: 109 109 80
Width: 777
GlyphClass: 2
Flags: W
LayerCount: 2
Fore
SplineSet
8 0 m 1,0,-1
 97 538 l 1,1,-1
 215 538 l 1,2,-1
 206 481 l 1,3,4
 224 506 224 506 261 530 c 128,-1,5
 298 554 298 554 345 554 c 0,6,7
 426 554 426 554 451 467 c 1,8,9
 463 484 463 484 480 501 c 128,-1,10
 497 518 497 518 535 536 c 128,-1,11
 573 554 573 554 616 554 c 0,12,13
 775 554 775 554 740 345 c 2,14,-1
 683 0 l 1,15,-1
 560 0 l 1,16,-1
 616 342 l 2,17,18
 624 393 624 393 614.5 418 c 128,-1,19
 605 443 605 443 571 443 c 0,20,21
 529 443 529 443 497.5 406 c 128,-1,22
 466 369 466 369 457 317 c 2,23,-1
 405 0 l 1,24,-1
 284 0 l 1,25,-1
 341 346 l 2,26,27
 357 443 357 443 296 443 c 0,28,29
 250 443 250 443 221.5 408.5 c 128,-1,30
 193 374 193 374 183 318 c 2,31,-1
 131 0 l 1,32,-1
 8 0 l 1,0,-1
EndSplineSet
EndChar

StartChar: n
Encoding: 110 110 81
Width: 523
GlyphClass: 2
Flags: W
LayerCount: 2
Fore
SplineSet
8 0 m 1,0,-1
 97 538 l 1,1,-1
 215 538 l 1,2,-1
 205 478 l 1,3,4
 223 506 223 506 261 530 c 128,-1,5
 299 554 299 554 354 554 c 0,6,7
 520 554 520 554 486 345 c 2,8,-1
 429 0 l 1,9,-1
 306 0 l 1,10,-1
 361 330 l 2,11,12
 371 392 371 392 357.5 417.5 c 128,-1,13
 344 443 344 443 308 443 c 0,14,15
 263 443 263 443 227 404.5 c 128,-1,16
 191 366 191 366 182 309 c 2,17,-1
 131 0 l 1,18,-1
 8 0 l 1,0,-1
EndSplineSet
Substitution2: "'sups' Superscript lookup 5 subtable" uni207F
Substitution2: "'aalt' Access All Alternates lookup 0 subtable" uni207F
EndChar

StartChar: o
Encoding: 111 111 82
Width: 527
GlyphClass: 2
Flags: W
LayerCount: 2
Fore
SplineSet
152 268 m 0,0,1
 137 177 137 177 163.5 136 c 128,-1,2
 190 95 190 95 233 95 c 256,3,4
 276 95 276 95 317 136.5 c 128,-1,5
 358 178 358 178 373 268 c 0,6,7
 388 360 388 360 361 401.5 c 128,-1,8
 334 443 334 443 291 443 c 0,9,10
 248 443 248 443 207.5 402 c 128,-1,11
 167 361 167 361 152 268 c 0,0,1
26 268 m 0,12,13
 46 388 46 388 119 471 c 128,-1,14
 192 554 192 554 309 554 c 0,15,16
 388 554 388 554 436.5 512 c 128,-1,17
 485 470 485 470 498 407.5 c 128,-1,18
 511 345 511 345 498 268 c 0,19,20
 492 232 492 232 480.5 196 c 128,-1,21
 469 160 469 160 445.5 120.5 c 128,-1,22
 422 81 422 81 391.5 51.5 c 128,-1,23
 361 22 361 22 315.5 3 c 128,-1,24
 270 -16 270 -16 215 -16 c 0,25,26
 162 -16 162 -16 122.5 2 c 128,-1,27
 83 20 83 20 61.5 49 c 128,-1,28
 40 78 40 78 30 116.5 c 128,-1,29
 20 155 20 155 20 192 c 128,-1,30
 20 229 20 229 26 268 c 0,12,13
EndSplineSet
Substitution2: "Single Substitution lookup 12 subtable" ordmasculine
EndChar

StartChar: p
Encoding: 112 112 83
Width: 548
GlyphClass: 2
Flags: W
LayerCount: 2
Fore
SplineSet
178 269 m 0,0,1
 165 189 165 189 185 142 c 128,-1,2
 205 95 205 95 256 95 c 0,3,4
 304 95 304 95 341.5 140 c 128,-1,5
 379 185 379 185 393 269 c 0,6,7
 406 350 406 350 385 396.5 c 128,-1,8
 364 443 364 443 314 443 c 0,9,10
 263 443 263 443 227 395 c 128,-1,11
 191 347 191 347 178 269 c 0,0,1
-23 -215 m 1,12,-1
 102 538 l 1,13,-1
 220 538 l 1,14,-1
 210 477 l 1,15,16
 270 554 270 554 349 554 c 0,17,18
 443 554 443 554 491.5 477.5 c 128,-1,19
 540 401 540 401 519 269 c 0,20,21
 507 194 507 194 477.5 137 c 128,-1,22
 448 80 448 80 410 48 c 128,-1,23
 372 16 372 16 332.5 0 c 128,-1,24
 293 -16 293 -16 255 -16 c 0,25,26
 209 -16 209 -16 181.5 5 c 128,-1,27
 154 26 154 26 143 54 c 1,28,-1
 99 -215 l 1,29,-1
 -23 -215 l 1,12,-1
EndSplineSet
EndChar

StartChar: q
Encoding: 113 113 84
Width: 547
GlyphClass: 2
Flags: W
LayerCount: 2
Fore
SplineSet
152 269 m 0,0,1
 138 186 138 186 159.5 140.5 c 128,-1,2
 181 95 181 95 230 95 c 256,3,4
 279 95 279 95 316 141.5 c 128,-1,5
 353 188 353 188 366 269 c 0,6,7
 379 347 379 347 359 395 c 128,-1,8
 339 443 339 443 288 443 c 256,9,10
 237 443 237 443 201 395.5 c 128,-1,11
 165 348 165 348 152 269 c 0,0,1
26 269 m 0,12,13
 48 401 48 401 122 477.5 c 128,-1,14
 196 554 196 554 289 554 c 0,15,16
 368 554 368 554 404 477 c 1,17,-1
 414 538 l 1,18,-1
 531 538 l 1,19,-1
 407 -215 l 1,20,-1
 284 -215 l 1,21,-1
 329 55 l 1,22,23
 307 26 307 26 272.5 5 c 128,-1,24
 238 -16 238 -16 194 -16 c 0,25,26
 155 -16 155 -16 122 0 c 128,-1,27
 89 16 89 16 61.5 47.5 c 128,-1,28
 34 79 34 79 24 136.5 c 128,-1,29
 14 194 14 194 26 269 c 0,12,13
EndSplineSet
EndChar

StartChar: r
Encoding: 114 114 85
Width: 353
GlyphClass: 2
Flags: W
LayerCount: 2
Fore
SplineSet
8 0 m 1,0,-1
 97 538 l 1,1,-1
 214 538 l 1,2,-1
 206 487 l 1,3,4
 227 514 227 514 261 534 c 128,-1,5
 295 554 295 554 336 554 c 0,6,7
 376 554 376 554 398 544 c 1,8,-1
 379 425 l 1,9,10
 350 435 350 435 316 435 c 0,11,12
 261 435 261 435 224.5 389 c 128,-1,13
 188 343 188 343 175 267 c 2,14,-1
 131 0 l 1,15,-1
 8 0 l 1,0,-1
EndSplineSet
Substitution2: "'sups' Superscript lookup 5 subtable" uni02B3
Substitution2: "'aalt' Access All Alternates lookup 0 subtable" uni02B3
EndChar

StartChar: s
Encoding: 115 115 86
Width: 468
GlyphClass: 2
Flags: W
LayerCount: 2
Fore
SplineSet
-9 114 m 1,0,-1
 87 169 l 1,1,2
 126 89 126 89 208 89 c 0,3,4
 245 89 245 89 269 105 c 128,-1,5
 293 121 293 121 297 146 c 0,6,7
 298 154 298 154 297 161 c 128,-1,8
 296 168 296 168 292 174.5 c 128,-1,9
 288 181 288 181 284.5 185.5 c 128,-1,10
 281 190 281 190 272 195.5 c 128,-1,11
 263 201 263 201 257 204 c 128,-1,12
 251 207 251 207 239 212 c 128,-1,13
 227 217 227 217 220.5 219.5 c 128,-1,14
 214 222 214 222 199.5 227 c 128,-1,15
 185 232 185 232 178 235 c 0,16,17
 116 257 116 257 82.5 293 c 128,-1,18
 49 329 49 329 60 396 c 0,19,20
 72 468 72 468 138 511 c 128,-1,21
 204 554 204 554 286 554 c 0,22,23
 349 554 349 554 399.5 519.5 c 128,-1,24
 450 485 450 485 468 429 c 1,25,-1
 379 377 l 1,26,27
 338 449 338 449 269 449 c 0,28,29
 233 449 233 449 211 434 c 128,-1,30
 189 419 189 419 185 394 c 0,31,32
 184 386 184 386 185 379 c 128,-1,33
 186 372 186 372 190 365.5 c 128,-1,34
 194 359 194 359 198 354 c 128,-1,35
 202 349 202 349 210 343.5 c 128,-1,36
 218 338 218 338 224 334.5 c 128,-1,37
 230 331 230 331 241.5 326.5 c 128,-1,38
 253 322 253 322 259.5 320 c 128,-1,39
 266 318 266 318 279 313 c 128,-1,40
 292 308 292 308 297 306 c 0,41,42
 440 253 440 253 422 145 c 0,43,44
 411 78 411 78 350.5 31 c 128,-1,45
 290 -16 290 -16 193 -16 c 0,46,47
 118 -16 118 -16 65 19.5 c 128,-1,48
 12 55 12 55 -9 114 c 1,0,-1
EndSplineSet
Substitution2: "'hist' Historical Forms lookup 11 subtable" longs
Substitution2: "'sups' Superscript lookup 5 subtable" uni02E2
AlternateSubs2: "'aalt' Access All Alternates lookup 1 subtable" uni02E2 longs
EndChar

StartChar: t
Encoding: 116 116 87
Width: 349
GlyphClass: 2
Flags: W
LayerCount: 2
Fore
SplineSet
38 427 m 1,0,-1
 57 538 l 1,1,-1
 133 538 l 1,2,-1
 158 694 l 1,3,-1
 281 694 l 1,4,-1
 255 538 l 1,5,-1
 365 538 l 1,6,-1
 347 427 l 1,7,-1
 236 427 l 1,8,-1
 195 177 l 2,9,10
 184 111 184 111 238 111 c 2,11,-1
 295 111 l 1,12,-1
 277 0 l 1,13,-1
 205 0 l 2,14,15
 130 0 130 0 93.5 40 c 128,-1,16
 57 80 57 80 72 169 c 2,17,-1
 114 427 l 1,18,-1
 38 427 l 1,0,-1
EndSplineSet
EndChar

StartChar: u
Encoding: 117 117 88
Width: 522
GlyphClass: 2
Flags: W
LayerCount: 2
Fore
SplineSet
34 197 m 2,0,-1
 90 538 l 1,1,-1
 213 538 l 1,2,-1
 159 212 l 2,3,4
 140 95 140 95 216 95 c 0,5,6
 262 95 262 95 295 137.5 c 128,-1,7
 328 180 328 180 338 238 c 2,8,-1
 387 538 l 1,9,-1
 509 538 l 1,10,-1
 420 0 l 1,11,-1
 303 0 l 1,12,-1
 312 56 l 1,13,-1
 310 56 l 1,14,15
 291 27 291 27 254.5 5.5 c 128,-1,16
 218 -16 218 -16 172 -16 c 0,17,18
 143 -16 143 -16 116.5 -7 c 128,-1,19
 90 2 90 2 66.5 23.5 c 128,-1,20
 43 45 43 45 33.5 89.5 c 128,-1,21
 24 134 24 134 34 197 c 2,0,-1
EndSplineSet
EndChar

StartChar: v
Encoding: 118 118 89
Width: 501
GlyphClass: 2
Flags: W
LayerCount: 2
Fore
SplineSet
49 538 m 1,0,-1
 184 538 l 1,1,-1
 209 281 l 2,2,3
 213 231 213 231 221 110 c 1,4,-1
 224 110 l 1,5,6
 261 204 261 204 294 281 c 2,7,-1
 402 538 l 1,8,-1
 537 538 l 1,9,-1
 274 0 l 1,10,-1
 134 0 l 1,11,-1
 49 538 l 1,0,-1
EndSplineSet
EndChar

StartChar: w
Encoding: 119 119 90
Width: 709
GlyphClass: 2
Flags: W
LayerCount: 2
Fore
SplineSet
49 538 m 1,0,-1
 182 538 l 1,1,-1
 186 287 l 2,2,3
 186 285 186 285 185.5 225.5 c 128,-1,4
 185 166 185 166 187 128 c 1,5,-1
 190 128 l 1,6,7
 199 152 199 152 218.5 209 c 128,-1,8
 238 266 238 266 244 287 c 2,9,-1
 334 538 l 1,10,-1
 461 538 l 1,11,-1
 466 286 l 2,12,13
 466 265 466 265 467.5 210 c 128,-1,14
 469 155 469 155 468 128 c 1,15,-1
 472 128 l 1,16,17
 479 150 479 150 525 287 c 2,18,-1
 612 538 l 1,19,-1
 745 538 l 1,20,-1
 518 0 l 1,21,-1
 383 0 l 1,22,-1
 377 243 l 2,23,24
 377 268 377 268 376 320 c 128,-1,25
 375 372 375 372 375 396 c 1,26,-1
 373 396 l 1,27,28
 363 367 363 367 344 311 c 128,-1,29
 325 255 325 255 321 243 c 2,30,-1
 234 0 l 1,31,-1
 98 0 l 1,32,-1
 49 538 l 1,0,-1
EndSplineSet
Substitution2: "'sups' Superscript lookup 5 subtable" uni02B7
Substitution2: "'aalt' Access All Alternates lookup 0 subtable" uni02B7
EndChar

StartChar: x
Encoding: 120 120 91
Width: 519
GlyphClass: 2
Flags: W
LayerCount: 2
Fore
SplineSet
-42 0 m 1,0,-1
 185 275 l 1,1,-1
 56 538 l 1,2,-1
 206 538 l 1,3,-1
 248 428 l 2,4,5
 251 418 251 418 259 395.5 c 128,-1,6
 267 373 267 373 270 363 c 1,7,-1
 273 363 l 1,8,9
 277 368 277 368 293.5 392 c 128,-1,10
 310 416 310 416 318 428 c 2,11,-1
 395 538 l 1,12,-1
 545 538 l 1,13,-1
 330 275 l 1,14,-1
 466 0 l 1,15,-1
 319 0 l 1,16,-1
 271 120 l 2,17,18
 251 172 251 172 245 190 c 1,19,-1
 242 190 l 1,20,21
 222 160 222 160 192 120 c 2,22,-1
 105 0 l 1,23,-1
 -42 0 l 1,0,-1
EndSplineSet
Substitution2: "'sups' Superscript lookup 5 subtable" uni02E3
Substitution2: "'aalt' Access All Alternates lookup 0 subtable" uni02E3
EndChar

StartChar: y
Encoding: 121 121 92
Width: 502
GlyphClass: 2
Flags: W
LayerCount: 2
Fore
SplineSet
48 538 m 1,0,-1
 182 538 l 1,1,-1
 221 273 l 2,2,3
 222 258 222 258 233 152 c 1,4,-1
 235 152 l 1,5,6
 264 225 264 225 286 273 c 2,7,-1
 405 538 l 1,8,-1
 539 538 l 1,9,-1
 229 -65 l 2,10,11
 186 -148 186 -148 134 -181.5 c 128,-1,12
 82 -215 82 -215 11 -215 c 2,13,-1
 -25 -215 l 1,14,-1
 -7 -106 l 1,15,-1
 9 -106 l 2,16,17
 50 -106 50 -106 77.5 -89.5 c 128,-1,18
 105 -73 105 -73 126 -31 c 2,19,-1
 151 19 l 1,20,-1
 48 538 l 1,0,-1
EndSplineSet
Substitution2: "'sups' Superscript lookup 5 subtable" uni02B8
Substitution2: "'aalt' Access All Alternates lookup 0 subtable" uni02B8
EndChar

StartChar: z
Encoding: 122 122 93
Width: 465
GlyphClass: 2
Flags: W
LayerCount: 2
Fore
SplineSet
-27 0 m 1,0,-1
 -13 86 l 1,1,-1
 297 427 l 1,2,-1
 64 427 l 1,3,-1
 82 538 l 1,4,-1
 478 538 l 1,5,-1
 465 456 l 1,6,-1
 152 111 l 1,7,-1
 418 111 l 1,8,-1
 400 0 l 1,9,-1
 -27 0 l 1,0,-1
EndSplineSet
EndChar

StartChar: braceleft
Encoding: 123 123 94
Width: 423
GlyphClass: 2
Flags: W
LayerCount: 2
Fore
SplineSet
53 303 m 1,0,-1
 70 404 l 1,1,-1
 102 404 l 2,2,3
 146 404 146 404 163 502 c 2,4,-1
 192 679 l 2,5,6
 204 749 204 749 249.5 786.5 c 128,-1,7
 295 824 295 824 360 824 c 2,8,-1
 443 824 l 1,9,-1
 426 717 l 1,10,-1
 366 717 l 2,11,12
 348 717 348 717 335.5 702.5 c 128,-1,13
 323 688 323 688 319 665 c 2,14,-1
 290 488 l 2,15,16
 276 402 276 402 198 353 c 1,17,18
 260 309 260 309 246 222 c 2,19,-1
 216 44 l 2,20,21
 207 -9 207 -9 248 -9 c 2,22,-1
 305 -9 l 1,23,-1
 287 -117 l 1,24,-1
 203 -117 l 2,25,26
 140 -117 140 -117 106 -81.5 c 128,-1,27
 72 -46 72 -46 84 26 c 2,28,-1
 114 206 l 2,29,30
 121 246 121 246 114.5 274.5 c 128,-1,31
 108 303 108 303 86 303 c 2,32,-1
 53 303 l 1,0,-1
EndSplineSet
EndChar

StartChar: bar
Encoding: 124 124 95
Width: 283
GlyphClass: 2
Flags: W
LayerCount: 2
Fore
SplineSet
6 -152 m 1,0,-1
 173 858 l 1,1,-1
 301 858 l 1,2,-1
 133 -152 l 1,3,-1
 6 -152 l 1,0,-1
EndSplineSet
EndChar

StartChar: braceright
Encoding: 125 125 96
Width: 423
GlyphClass: 2
Flags: W
LayerCount: 2
Fore
SplineSet
22 -9 m 1,0,-1
 81 -9 l 2,1,2
 120 -9 120 -9 129 43 c 2,3,-1
 159 222 l 2,4,5
 173 305 173 305 248 354 c 1,6,7
 188 401 188 401 203 488 c 2,8,-1
 232 665 l 2,9,10
 236 688 236 688 228 702.5 c 128,-1,11
 220 717 220 717 202 717 c 2,12,-1
 143 717 l 1,13,-1
 160 824 l 1,14,-1
 244 824 l 2,15,16
 309 824 309 824 342 786.5 c 128,-1,17
 375 749 375 749 364 679 c 2,18,-1
 334 502 l 2,19,20
 318 404 318 404 362 404 c 2,21,-1
 394 404 l 1,22,-1
 377 303 l 1,23,-1
 346 303 l 2,24,25
 330 303 330 303 316.5 287 c 128,-1,26
 303 271 303 271 296 250.5 c 128,-1,27
 289 230 289 230 285 206 c 2,28,-1
 256 26 l 2,29,30
 244 -46 244 -46 197 -81.5 c 128,-1,31
 150 -117 150 -117 88 -117 c 2,32,-1
 5 -117 l 1,33,-1
 22 -9 l 1,0,-1
EndSplineSet
EndChar

StartChar: asciitilde
Encoding: 126 126 97
Width: 774
GlyphClass: 2
Flags: W
LayerCount: 2
Fore
SplineSet
58 297 m 1,0,1
 154 479 154 479 302 479 c 0,2,3
 342 479 342 479 375.5 459 c 128,-1,4
 409 439 409 439 427 415.5 c 128,-1,5
 445 392 445 392 467.5 372 c 128,-1,6
 490 352 490 352 513 352 c 256,7,8
 536 352 536 352 554.5 361 c 128,-1,9
 573 370 573 370 589 389.5 c 128,-1,10
 605 409 605 409 614 422.5 c 128,-1,11
 623 436 623 436 635 459 c 1,12,-1
 740 410 l 1,13,14
 647 228 647 228 496 228 c 0,15,16
 457 228 457 228 423.5 248 c 128,-1,17
 390 268 390 268 372 292.5 c 128,-1,18
 354 317 354 317 330 337 c 128,-1,19
 306 357 306 357 283 357 c 0,20,21
 219 357 219 357 162 249 c 1,22,-1
 58 297 l 1,0,1
EndSplineSet
EndChar

StartChar: exclamdown
Encoding: 161 161 99
Width: 293
GlyphClass: 2
Flags: W
LayerCount: 2
Fore
SplineSet
-4 -200 m 1,0,-1
 93 330 l 1,1,-1
 217 330 l 1,2,-1
 137 -200 l 1,3,-1
 -4 -200 l 1,0,-1
83 393 m 1,4,-1
 107 542 l 1,5,-1
 272 542 l 1,6,-1
 247 393 l 1,7,-1
 83 393 l 1,4,-1
EndSplineSet
EndChar

StartChar: cent
Encoding: 162 162 100
Width: 505
GlyphClass: 2
Flags: W
LayerCount: 2
Fore
SplineSet
26 269 m 0,0,1
 43 373 43 373 103 449 c 128,-1,2
 163 525 163 525 253 546 c 1,3,-1
 266 624 l 1,4,-1
 382 624 l 1,5,-1
 370 548 l 1,6,7
 427 533 427 533 459 487.5 c 128,-1,8
 491 442 491 442 495 389 c 1,9,-1
 383 359 l 1,10,11
 377 394 377 394 358 418.5 c 128,-1,12
 339 443 339 443 304 443 c 0,13,14
 246 443 246 443 207.5 393.5 c 128,-1,15
 169 344 169 344 157 269 c 0,16,17
 144 190 144 190 167.5 142.5 c 128,-1,18
 191 95 191 95 245 95 c 0,19,20
 284 95 284 95 316 121.5 c 128,-1,21
 348 148 348 148 366 186 c 1,22,-1
 468 155 l 1,23,24
 446 101 446 101 396.5 54.5 c 128,-1,25
 347 8 347 8 277 -10 c 1,26,-1
 264 -92 l 1,27,-1
 147 -92 l 1,28,-1
 161 -8 l 1,29,30
 85 10 85 10 46.5 84 c 128,-1,31
 8 158 8 158 26 269 c 0,0,1
EndSplineSet
EndChar

StartChar: sterling
Encoding: 163 163 101
Width: 592
GlyphClass: 2
Flags: W
LayerCount: 2
Fore
SplineSet
38 303 m 1,0,-1
 57 419 l 1,1,-1
 160 419 l 1,2,-1
 183 558 l 2,3,4
 199 652 199 652 269 701.5 c 128,-1,5
 339 751 339 751 443 751 c 0,6,7
 512 751 512 751 557.5 714 c 128,-1,8
 603 677 603 677 620 631 c 1,9,-1
 510 580 l 1,10,11
 482 632 482 632 425 632 c 0,12,13
 383 632 383 632 352 610.5 c 128,-1,14
 321 589 321 589 313 545 c 2,15,-1
 292 419 l 1,16,-1
 483 419 l 1,17,-1
 463 303 l 1,18,-1
 273 303 l 1,19,-1
 260 222 l 2,20,21
 249 158 249 158 224 130 c 1,22,23
 255 134 255 134 268 134 c 0,24,25
 297 134 297 134 339.5 117 c 128,-1,26
 382 100 382 100 415 100 c 0,27,28
 469 100 469 100 526 128 c 1,29,-1
 542 16 l 1,30,31
 461 -16 461 -16 396 -16 c 0,32,33
 364 -16 364 -16 300.5 1 c 128,-1,34
 237 18 237 18 205 18 c 0,35,36
 171 18 171 18 123 11 c 128,-1,37
 75 4 75 4 43 -4 c 2,38,-1
 12 -11 l 1,39,-1
 -2 85 l 1,40,41
 109 108 109 108 126 215 c 2,42,-1
 141 303 l 1,43,-1
 38 303 l 1,0,-1
EndSplineSet
EndChar

StartChar: currency
Encoding: 164 164 102
Width: 647
GlyphClass: 2
Flags: W
LayerCount: 2
Fore
SplineSet
-4 151 m 1,0,-1
 120 251 l 1,1,2
 97 294 97 294 108 363 c 0,3,4
 120 433 120 433 157 476 c 1,5,-1
 66 575 l 1,6,-1
 169 661 l 1,7,-1
 253 561 l 1,8,9
 319 595 319 595 375 595 c 0,10,11
 433 595 433 595 488 561 c 1,12,-1
 604 661 l 1,13,-1
 679 575 l 1,14,-1
 557 476 l 1,15,16
 580 430 580 430 568 363 c 0,17,18
 563 331 563 331 548 299.5 c 128,-1,19
 533 268 533 268 518 251 c 1,20,-1
 609 151 l 1,21,-1
 505 65 l 1,22,-1
 422 164 l 1,23,24
 356 130 356 130 298 130 c 0,25,26
 236 130 236 130 187 164 c 1,27,-1
 70 66 l 1,28,-1
 -4 151 l 1,0,-1
223 363 m 0,29,30
 215 316 215 316 241 281.5 c 128,-1,31
 267 247 267 247 318 247 c 0,32,33
 368 247 368 247 405.5 281 c 128,-1,34
 443 315 443 315 451 363 c 0,35,36
 459 412 459 412 432.5 445.5 c 128,-1,37
 406 479 406 479 356 479 c 0,38,39
 305 479 305 479 268 444 c 128,-1,40
 231 409 231 409 223 363 c 0,29,30
EndSplineSet
EndChar

StartChar: yen
Encoding: 165 165 103
Width: 625
GlyphClass: 2
Flags: W
LayerCount: 2
Fore
SplineSet
73 735 m 1,0,-1
 226 735 l 1,1,-1
 295 567 l 2,2,3
 330 478 330 478 340 452 c 1,4,-1
 343 452 l 1,5,-1
 426 567 l 1,6,-1
 552 735 l 1,7,-1
 704 735 l 1,8,-1
 455 425 l 1,9,-1
 590 425 l 1,10,-1
 574 330 l 1,11,-1
 388 330 l 1,12,-1
 373 237 l 1,13,-1
 559 237 l 1,14,-1
 543 142 l 1,15,-1
 357 142 l 1,16,-1
 333 0 l 1,17,-1
 200 0 l 1,18,-1
 224 142 l 1,19,-1
 37 142 l 1,20,-1
 53 237 l 1,21,-1
 239 237 l 1,22,-1
 255 330 l 1,23,-1
 69 330 l 1,24,-1
 84 425 l 1,25,-1
 219 425 l 1,26,-1
 73 735 l 1,0,-1
EndSplineSet
EndChar

StartChar: brokenbar
Encoding: 166 166 104
Width: 283
GlyphClass: 2
Flags: W
LayerCount: 2
Fore
SplineSet
106 452 m 1,0,-1
 173 858 l 1,1,-1
 301 858 l 1,2,-1
 233 452 l 1,3,-1
 106 452 l 1,0,-1
6 -152 m 1,4,-1
 73 253 l 1,5,-1
 201 253 l 1,6,-1
 133 -152 l 1,7,-1
 6 -152 l 1,4,-1
EndSplineSet
EndChar

StartChar: section
Encoding: 167 167 105
Width: 531
GlyphClass: 2
Flags: W
LayerCount: 2
Fore
SplineSet
-9 56 m 1,0,-1
 89 122 l 1,1,2
 129 61 129 61 209 61 c 0,3,4
 290 61 290 61 297 103 c 0,5,6
 301 130 301 130 262 150 c 2,7,-1
 168 198 l 2,8,9
 45 259 45 259 61 361 c 0,10,11
 68 404 68 404 97.5 438.5 c 128,-1,12
 127 473 127 473 159 494 c 1,13,14
 115 538 115 538 125 597 c 0,15,16
 136 666 136 666 197.5 708.5 c 128,-1,17
 259 751 259 751 369 751 c 0,18,19
 503 751 503 751 564 649 c 1,20,-1
 469 581 l 1,21,22
 425 638 425 638 347 638 c 0,23,24
 266 638 266 638 259 596 c 0,25,26
 258 588 258 588 259.5 581.5 c 128,-1,27
 261 575 261 575 266.5 568.5 c 128,-1,28
 272 562 272 562 278 557.5 c 128,-1,29
 284 553 284 553 295.5 547 c 128,-1,30
 307 541 307 541 315.5 536.5 c 128,-1,31
 324 532 324 532 339.5 525.5 c 128,-1,32
 355 519 355 519 366 513 c 0,33,34
 439 477 439 477 463 455 c 0,35,36
 520 404 520 404 508 327 c 0,37,38
 495 249 495 249 415 194 c 1,39,40
 440 154 440 154 432 104 c 0,41,42
 420 31 420 31 359 -11 c 128,-1,43
 298 -53 298 -53 190 -53 c 0,44,45
 120 -53 120 -53 65 -21 c 128,-1,46
 10 11 10 11 -9 56 c 1,0,-1
197 364 m 0,47,48
 193 337 193 337 206.5 320.5 c 128,-1,49
 220 304 220 304 251 288 c 2,50,-1
 323 252 l 1,51,52
 367 290 367 290 372 327 c 0,53,54
 379 367 379 367 316 400 c 2,55,-1
 249 436 l 1,56,57
 204 404 204 404 197 364 c 0,47,48
EndSplineSet
EndChar

StartChar: dieresis
Encoding: 168 168 106
Width: 503
GlyphClass: 2
Flags: W
LayerCount: 2
Fore
SplineSet
137 595 m 1,0,-1
 160 735 l 1,1,-1
 294 735 l 1,2,-1
 271 595 l 1,3,-1
 137 595 l 1,0,-1
336 595 m 1,4,-1
 359 735 l 1,5,-1
 493 735 l 1,6,-1
 470 595 l 1,7,-1
 336 595 l 1,4,-1
EndSplineSet
EndChar

StartChar: copyright
Encoding: 169 169 107
Width: 824
GlyphClass: 2
Flags: W
LayerCount: 2
Fore
SplineSet
238 373 m 0,0,1
 257 486 257 486 322.5 545 c 128,-1,2
 388 604 388 604 477 604 c 0,3,4
 547 604 547 604 581.5 564.5 c 128,-1,5
 616 525 616 525 619 469 c 1,6,-1
 527 443 l 1,7,8
 514 511 514 511 463 511 c 0,9,10
 369 511 369 511 346 373 c 256,11,12
 323 235 323 235 417 235 c 0,13,14
 449 235 449 235 474 256.5 c 128,-1,15
 499 278 499 278 513 308 c 1,16,-1
 599 282 l 1,17,18
 574 222 574 222 522.5 182 c 128,-1,19
 471 142 471 142 400 142 c 0,20,21
 311 142 311 142 265 201.5 c 128,-1,22
 219 261 219 261 238 373 c 0,0,1
45 372 m 0,23,24
 75 554 75 554 202 662.5 c 128,-1,25
 329 771 329 771 494 771 c 0,26,27
 661 771 661 771 750.5 661 c 128,-1,28
 840 551 840 551 810 372 c 0,29,30
 781 194 781 194 655 83.5 c 128,-1,31
 529 -27 529 -27 362 -27 c 0,32,33
 254 -27 254 -27 175.5 20 c 128,-1,34
 97 67 97 67 61 158.5 c 128,-1,35
 25 250 25 250 45 372 c 0,23,24
140 372 m 256,36,37
 116 226 116 226 181 141.5 c 128,-1,38
 246 57 246 57 376 57 c 0,39,40
 499 57 499 57 595.5 138.5 c 128,-1,41
 692 220 692 220 717 372 c 0,42,43
 741 519 741 519 674 603 c 128,-1,44
 607 687 607 687 480 687 c 0,45,46
 350 687 350 687 257 602.5 c 128,-1,47
 164 518 164 518 140 372 c 256,36,37
EndSplineSet
EndChar

StartChar: ordfeminine
Encoding: 170 170 108
Width: 373
GlyphClass: 2
Flags: W
LayerCount: 2
Fore
SplineSet
21 272 m 1,0,-1
 34 353 l 1,1,-1
 364 353 l 1,2,-1
 350 272 l 1,3,-1
 21 272 l 1,0,-1
151 533 m 0,4,5
 148 513 148 513 160 500.5 c 128,-1,6
 172 488 172 488 197 488 c 0,7,8
 233 488 233 488 262.5 512.5 c 128,-1,9
 292 537 292 537 299 578 c 2,10,-1
 304 610 l 1,11,12
 293 607 293 607 272.5 603.5 c 128,-1,13
 252 600 252 600 241 597.5 c 128,-1,14
 230 595 230 595 214 591 c 128,-1,15
 198 587 198 587 190 582.5 c 128,-1,16
 182 578 182 578 172.5 571 c 128,-1,17
 163 564 163 564 158 554.5 c 128,-1,18
 153 545 153 545 151 533 c 0,4,5
60 525 m 0,19,20
 66 562 66 562 88 588 c 128,-1,21
 110 614 110 614 142.5 628 c 128,-1,22
 175 642 175 642 204.5 649 c 128,-1,23
 234 656 234 656 268.5 661.5 c 128,-1,24
 303 667 303 667 314 671 c 1,25,-1
 318 692 l 2,26,27
 322 719 322 719 306.5 732 c 128,-1,28
 291 745 291 745 263 745 c 0,29,30
 203 745 203 745 151 697 c 1,31,-1
 106 742 l 1,32,33
 137 774 137 774 182 794 c 128,-1,34
 227 814 227 814 273 814 c 0,35,36
 357 814 357 814 386 773 c 128,-1,37
 415 732 415 732 402 657 c 2,38,-1
 364 425 l 1,39,-1
 278 425 l 1,40,-1
 285 471 l 1,41,42
 241 413 241 413 172 413 c 0,43,44
 111 413 111 413 81.5 444 c 128,-1,45
 52 475 52 475 60 525 c 0,19,20
EndSplineSet
EndChar

StartChar: guillemotleft
Encoding: 171 171 109
Width: 521
GlyphClass: 2
Flags: W
LayerCount: 2
Fore
SplineSet
31 269 m 1,0,-1
 237 522 l 1,1,-1
 319 459 l 1,2,-1
 167 269 l 1,3,-1
 255 83 l 1,4,-1
 153 18 l 1,5,-1
 31 269 l 1,0,-1
233 269 m 1,6,-1
 436 509 l 1,7,-1
 514 439 l 1,8,-1
 369 269 l 1,9,-1
 458 99 l 1,10,-1
 357 30 l 1,11,-1
 233 269 l 1,6,-1
EndSplineSet
EndChar

StartChar: logicalnot
Encoding: 172 172 110
Width: 541
GlyphClass: 2
Flags: W
LayerCount: 2
Fore
SplineSet
43 289 m 1,0,-1
 62 405 l 1,1,-1
 522 405 l 1,2,-1
 474 117 l 1,3,-1
 352 117 l 1,4,-1
 381 289 l 1,5,-1
 43 289 l 1,0,-1
EndSplineSet
EndChar

StartChar: uni00AD
Encoding: 173 173 111
Width: 546
GlyphClass: 2
Flags: W
LayerCount: 2
Fore
SplineSet
55 309 m 1,0,-1
 74 425 l 1,1,-1
 519 425 l 1,2,-1
 500 309 l 1,3,-1
 55 309 l 1,0,-1
EndSplineSet
EndChar

StartChar: registered
Encoding: 174 174 112
Width: 824
GlyphClass: 2
Flags: W
LayerCount: 2
Fore
SplineSet
45 373 m 0,0,1
 75 556 75 556 202 663.5 c 128,-1,2
 329 771 329 771 494 771 c 0,3,4
 662 771 662 771 751 661 c 128,-1,5
 840 551 840 551 810 373 c 0,6,7
 780 194 780 194 654.5 83.5 c 128,-1,8
 529 -27 529 -27 362 -27 c 0,9,10
 197 -27 197 -27 106 82 c 128,-1,11
 15 191 15 191 45 373 c 0,0,1
717 373 m 0,12,13
 742 523 742 523 674 602.5 c 128,-1,14
 606 682 606 682 479 682 c 0,15,16
 347 682 347 682 255.5 600.5 c 128,-1,17
 164 519 164 519 140 373 c 0,18,19
 116 226 116 226 180 144 c 128,-1,20
 244 62 244 62 376 62 c 0,21,22
 503 62 503 62 599 143 c 0,23,24
 607 150 607 150 613 156 c 0,25,26
 694 236 694 236 717 373 c 0,12,13
233 143 m 1,27,-1
 308 594 l 1,28,-1
 494 594 l 2,29,30
 563 594 563 594 593.5 555 c 128,-1,31
 624 516 624 516 615 460 c 0,32,33
 602 384 602 384 543 352 c 1,34,35
 556 336 556 336 560.5 320.5 c 128,-1,36
 565 305 565 305 567 275 c 0,37,38
 567 259 567 259 569 245 c 128,-1,39
 571 231 571 231 575 215 c 128,-1,40
 579 199 579 199 582 192 c 0,41,42
 583 187 583 187 586 179 c 1,43,44
 550 169 550 169 481 143 c 1,45,46
 458 184 458 184 455 266 c 0,47,48
 455 286 455 286 454.5 293 c 128,-1,49
 454 300 454 300 448.5 308 c 128,-1,50
 443 316 443 316 432 316 c 2,51,-1
 369 316 l 1,52,-1
 340 143 l 1,53,-1
 233 143 l 1,27,-1
382 399 m 1,54,-1
 447 399 l 2,55,56
 471 399 471 399 485 412.5 c 128,-1,57
 499 426 499 426 503 449 c 0,58,59
 506 469 506 469 495.5 483.5 c 128,-1,60
 485 498 485 498 463 498 c 2,61,-1
 399 498 l 1,62,-1
 382 399 l 1,54,-1
592 166 m 0,63,64
 598 149 598 149 599 144 c 1,65,66
 606 150 606 150 613 156 c 0,67,68
 627 169 627 169 628 176 c 0,69,70
 629 184 629 184 615 184 c 0,71,72
 605 184 605 184 586 179 c 1,73,74
 588 173 588 173 592 166 c 0,63,64
EndSplineSet
EndChar

StartChar: macron
Encoding: 175 175 113
Width: 479
GlyphClass: 2
Flags: W
LayerCount: 2
Fore
SplineSet
69 677 m 1,0,-1
 88 792 l 1,1,-1
 561 792 l 1,2,-1
 542 677 l 1,3,-1
 69 677 l 1,0,-1
EndSplineSet
EndChar

StartChar: degree
Encoding: 176 176 114
Width: 413
GlyphClass: 2
Flags: W
LayerCount: 2
Fore
SplineSet
127 605 m 0,0,1
 136 662 136 662 181 701 c 128,-1,2
 226 740 226 740 282 740 c 0,3,4
 338 740 338 740 370.5 702 c 128,-1,5
 403 664 403 664 393 605 c 0,6,7
 384 549 384 549 338.5 510 c 128,-1,8
 293 471 293 471 238 471 c 256,9,10
 183 471 183 471 150.5 510 c 128,-1,11
 118 549 118 549 127 605 c 0,0,1
208 605 m 0,12,13
 204 582 204 582 216.5 566.5 c 128,-1,14
 229 551 229 551 251 551 c 256,15,16
 274 551 274 551 291 566.5 c 128,-1,17
 308 582 308 582 312 605 c 256,18,19
 316 628 316 628 304 644 c 128,-1,20
 292 660 292 660 269 660 c 256,21,22
 246 660 246 660 229 643.5 c 128,-1,23
 212 627 212 627 208 605 c 0,12,13
EndSplineSet
EndChar

StartChar: plusminus
Encoding: 177 177 115
Width: 549
GlyphClass: 2
Flags: W
LayerCount: 2
Fore
SplineSet
52 397 m 1,0,-1
 71 509 l 1,1,-1
 247 509 l 1,2,-1
 273 667 l 1,3,-1
 402 667 l 1,4,-1
 376 509 l 1,5,-1
 554 509 l 1,6,-1
 536 397 l 1,7,-1
 357 397 l 1,8,-1
 331 241 l 1,9,-1
 203 241 l 1,10,-1
 229 397 l 1,11,-1
 52 397 l 1,0,-1
0 74 m 1,12,-1
 18 186 l 1,13,-1
 498 186 l 1,14,-1
 479 74 l 1,15,-1
 0 74 l 1,12,-1
EndSplineSet
EndChar

StartChar: twosuperior
Encoding: 178 178 116
Width: 320
GlyphClass: 2
Flags: W
LayerCount: 2
Fore
SplineSet
88 688 m 1,0,1
 137 815 137 815 248 815 c 0,2,3
 308 815 308 815 340 780 c 128,-1,4
 372 745 372 745 362 686 c 0,5,6
 352 626 352 626 284 563 c 0,7,8
 275 554 275 554 245.5 530 c 128,-1,9
 216 506 216 506 197.5 487.5 c 128,-1,10
 179 469 179 469 165 449 c 1,11,-1
 322 449 l 1,12,-1
 309 372 l 1,13,-1
 40 372 l 1,14,15
 51 436 51 436 88 482.5 c 128,-1,16
 125 529 125 529 215 604 c 0,17,18
 263 645 263 645 270 687 c 0,19,20
 274 711 274 711 264 724.5 c 128,-1,21
 254 738 254 738 234 738 c 0,22,23
 188 738 188 738 160 665 c 1,24,-1
 88 688 l 1,0,1
EndSplineSet
EndChar

StartChar: threesuperior
Encoding: 179 179 117
Width: 322
GlyphClass: 2
Flags: W
LayerCount: 2
Fore
SplineSet
44 471 m 1,0,-1
 121 498 l 1,1,2
 134 439 134 439 182 439 c 0,3,4
 206 439 206 439 225.5 454.5 c 128,-1,5
 245 470 245 470 250 498 c 0,6,7
 254 524 254 524 238.5 541 c 128,-1,8
 223 558 223 558 192 558 c 0,9,10
 171 558 171 558 147 555 c 1,11,-1
 160 634 l 1,12,13
 194 632 194 632 203 632 c 0,14,15
 227 632 227 632 244.5 646 c 128,-1,16
 262 660 262 660 267 687 c 0,17,18
 270 708 270 708 259 722.5 c 128,-1,19
 248 737 248 737 228 737 c 0,20,21
 204 737 204 737 190.5 721 c 128,-1,22
 177 705 177 705 162 676 c 1,23,-1
 90 699 l 1,24,25
 104 736 104 736 126.5 761 c 128,-1,26
 149 786 149 786 172 796.5 c 128,-1,27
 195 807 195 807 212 810.5 c 128,-1,28
 229 814 229 814 246 814 c 0,29,30
 307 814 307 814 338 780 c 128,-1,31
 369 746 369 746 360 694 c 0,32,33
 350 634 350 634 298 600 c 1,34,35
 321 587 321 587 334.5 561 c 128,-1,36
 348 535 348 535 342 498 c 0,37,38
 332 435 332 435 285 398 c 128,-1,39
 238 361 238 361 171 361 c 0,40,41
 121 361 121 361 85 389 c 128,-1,42
 49 417 49 417 44 471 c 1,0,-1
EndSplineSet
EndChar

StartChar: acute
Encoding: 180 180 118
Width: 379
GlyphClass: 2
Flags: W
LayerCount: 2
Fore
SplineSet
138 645 m 1,0,-1
 270 822 l 1,1,-1
 422 822 l 1,2,-1
 245 645 l 1,3,-1
 138 645 l 1,0,-1
EndSplineSet
EndChar

StartChar: uni00B5
Encoding: 181 181 119
Width: 527
GlyphClass: 2
Flags: W
LayerCount: 2
Fore
SplineSet
-23 -215 m 1,0,-1
 102 538 l 1,1,-1
 223 538 l 1,2,-1
 169 212 l 2,3,4
 150 95 150 95 227 95 c 0,5,6
 273 95 273 95 305.5 138 c 128,-1,7
 338 181 338 181 348 238 c 2,8,-1
 397 538 l 1,9,-1
 520 538 l 1,10,-1
 431 0 l 1,11,-1
 313 0 l 1,12,-1
 321 52 l 1,13,14
 305 27 305 27 268.5 5.5 c 128,-1,15
 232 -16 232 -16 186 -16 c 0,16,17
 154 -16 154 -16 135 2 c 1,18,-1
 99 -215 l 1,19,-1
 -23 -215 l 1,0,-1
EndSplineSet
EndChar

StartChar: paragraph
Encoding: 182 182 120
Width: 612
GlyphClass: 2
Flags: W
LayerCount: 2
Fore
SplineSet
87 550 m 0,0,1
 103 649 103 649 165 710.5 c 128,-1,2
 227 772 227 772 328 772 c 2,3,-1
 623 772 l 1,4,-1
 484 -72 l 1,5,-1
 379 -72 l 1,6,-1
 499 654 l 1,7,-1
 435 654 l 1,8,-1
 315 -72 l 1,9,-1
 210 -72 l 1,10,-1
 275 321 l 1,11,12
 258 316 258 316 238 316 c 0,13,14
 158 316 158 316 113 376 c 128,-1,15
 68 436 68 436 87 550 c 0,0,1
EndSplineSet
EndChar

StartChar: periodcentered
Encoding: 183 183 121
Width: 331
GlyphClass: 2
Flags: W
LayerCount: 2
Fore
SplineSet
84 278 m 1,0,-1
 109 429 l 1,1,-1
 271 429 l 1,2,-1
 246 278 l 1,3,-1
 84 278 l 1,0,-1
EndSplineSet
EndChar

StartChar: cedilla
Encoding: 184 184 122
Width: 300
GlyphClass: 2
Flags: W
LayerCount: 2
Fore
SplineSet
-29 -122 m 1,0,1
 10 -131 10 -131 29 -131 c 0,2,3
 75 -131 75 -131 79 -109 c 0,4,5
 84 -78 84 -78 -1 -73 c 1,6,-1
 77 47 l 1,7,-1
 189 47 l 1,8,-1
 149 -15 l 1,9,10
 209 -38 209 -38 197 -110 c 0,11,12
 190 -155 190 -155 150 -189.5 c 128,-1,13
 110 -224 110 -224 26 -224 c 0,14,15
 -20 -224 -20 -224 -44 -215 c 1,16,-1
 -29 -122 l 1,0,1
EndSplineSet
EndChar

StartChar: onesuperior
Encoding: 185 185 123
Width: 314
GlyphClass: 2
Flags: W
LayerCount: 2
Fore
SplineSet
99 660 m 1,0,-1
 111 733 l 1,1,-1
 137 733 l 2,2,3
 215 733 215 733 225 792 c 2,4,-1
 228 809 l 1,5,-1
 309 809 l 1,6,-1
 236 373 l 1,7,-1
 144 373 l 1,8,-1
 192 660 l 1,9,-1
 99 660 l 1,0,-1
EndSplineSet
EndChar

StartChar: ordmasculine
Encoding: 186 186 124
Width: 383
GlyphClass: 2
Flags: W
LayerCount: 2
Fore
SplineSet
164 614 m 0,0,1
 153 550 153 550 173 520 c 128,-1,2
 193 490 193 490 226 490 c 0,3,4
 257 490 257 490 287 520 c 128,-1,5
 317 550 317 550 328 614 c 0,6,7
 339 680 339 680 318.5 709.5 c 128,-1,8
 298 739 298 739 267 739 c 0,9,10
 234 739 234 739 204.5 709 c 128,-1,11
 175 679 175 679 164 614 c 0,0,1
74 614 m 0,12,13
 88 699 88 699 141 757 c 128,-1,14
 194 815 194 815 280 815 c 0,15,16
 366 815 366 815 399.5 756.5 c 128,-1,17
 433 698 433 698 419 614 c 0,18,19
 414 582 414 582 400.5 550 c 128,-1,20
 387 518 387 518 363.5 486 c 128,-1,21
 340 454 340 454 301 434 c 128,-1,22
 262 414 262 414 213 414 c 0,23,24
 165 414 165 414 132.5 433 c 128,-1,25
 100 452 100 452 87 483 c 128,-1,26
 74 514 74 514 71 547 c 128,-1,27
 68 580 68 580 74 614 c 0,12,13
22 278 m 1,28,-1
 36 361 l 1,29,-1
 373 361 l 1,30,-1
 359 278 l 1,31,-1
 22 278 l 1,28,-1
EndSplineSet
EndChar

StartChar: guillemotright
Encoding: 187 187 125
Width: 521
GlyphClass: 2
Flags: W
LayerCount: 2
Fore
SplineSet
59 439 m 1,0,-1
 160 509 l 1,1,-1
 284 269 l 1,2,-1
 81 30 l 1,3,-1
 3 99 l 1,4,-1
 149 269 l 1,5,-1
 59 439 l 1,0,-1
201 84 m 1,6,-1
 350 269 l 1,7,-1
 262 459 l 1,8,-1
 364 522 l 1,9,-1
 486 269 l 1,10,-1
 281 18 l 1,11,-1
 201 84 l 1,6,-1
EndSplineSet
EndChar

StartChar: onequarter
Encoding: 188 188 126
Width: 950
GlyphClass: 3
Flags: W
LayerCount: 2
Fore
SplineSet
638 145 m 1,0,-1
 718 145 l 1,1,-1
 731 224 l 2,2,3
 732 233 732 233 736.5 257 c 128,-1,4
 741 281 741 281 742 284 c 1,5,-1
 638 145 l 1,0,-1
106 614 m 1,6,-1
 121 706 l 1,7,-1
 154 706 l 2,8,9
 240 706 240 706 251 769 c 2,10,-1
 255 792 l 1,11,-1
 354 792 l 1,12,-1
 270 287 l 1,13,-1
 157 287 l 1,14,-1
 211 614 l 1,15,-1
 106 614 l 1,6,-1
109 -52 m 1,16,-1
 707 783 l 1,17,-1
 825 783 l 1,18,-1
 230 -52 l 1,19,-1
 109 -52 l 1,16,-1
525 136 m 1,20,-1
 788 459 l 1,21,-1
 880 459 l 1,22,-1
 828 145 l 1,23,-1
 882 145 l 1,24,-1
 866 49 l 1,25,-1
 812 49 l 1,26,-1
 795 -53 l 1,27,-1
 685 -53 l 1,28,-1
 702 49 l 1,29,-1
 511 49 l 1,30,-1
 525 136 l 1,20,-1
EndSplineSet
Ligature2: "'frac' Diagonal Fractions lookup 7 subtable" one fraction four
Ligature2: "'frac' Diagonal Fractions lookup 7 subtable" one slash four
EndChar

StartChar: onehalf
Encoding: 189 189 127
Width: 949
GlyphClass: 3
Flags: W
LayerCount: 2
Fore
SplineSet
92 -52 m 1,0,-1
 697 783 l 1,1,-1
 816 783 l 1,2,-1
 214 -52 l 1,3,-1
 92 -52 l 1,0,-1
568 314 m 1,4,5
 624 466 624 466 756 466 c 0,6,7
 826 466 826 466 863.5 424.5 c 128,-1,8
 901 383 901 383 890 314 c 0,9,10
 886 287 886 287 875 263.5 c 128,-1,11
 864 240 864 240 843 217 c 128,-1,12
 822 194 822 194 808.5 181.5 c 128,-1,13
 795 169 795 169 766 143 c 0,14,15
 694 83 694 83 669 49 c 1,16,-1
 844 49 l 1,17,-1
 828 -47 l 1,18,-1
 515 -47 l 1,19,20
 527 26 527 26 566.5 80 c 128,-1,21
 606 134 606 134 715 225 c 0,22,23
 769 269 769 269 778 316 c 0,24,25
 782 341 782 341 771.5 355 c 128,-1,26
 761 369 761 369 739 369 c 0,27,28
 722 369 722 369 707.5 360.5 c 128,-1,29
 693 352 693 352 684 337 c 128,-1,30
 675 322 675 322 669.5 311.5 c 128,-1,31
 664 301 664 301 659 285 c 1,32,-1
 568 314 l 1,4,5
106 614 m 1,33,-1
 121 706 l 1,34,-1
 154 706 l 2,35,36
 240 706 240 706 251 769 c 2,37,-1
 255 792 l 1,38,-1
 354 792 l 1,39,-1
 270 287 l 1,40,-1
 157 287 l 1,41,-1
 211 614 l 1,42,-1
 106 614 l 1,33,-1
EndSplineSet
Ligature2: "'frac' Diagonal Fractions lookup 7 subtable" one fraction two
Ligature2: "'frac' Diagonal Fractions lookup 7 subtable" one slash two
EndChar

StartChar: threequarters
Encoding: 190 190 128
Width: 951
GlyphClass: 3
Flags: W
LayerCount: 2
Fore
SplineSet
63 407 m 1,0,-1
 159 441 l 1,1,2
 163 423 163 423 168 411 c 128,-1,3
 173 399 173 399 188.5 386 c 128,-1,4
 204 373 204 373 227 373 c 0,5,6
 253 373 253 373 273 389 c 128,-1,7
 293 405 293 405 298 436 c 0,8,9
 303 464 303 464 286 481.5 c 128,-1,10
 269 499 269 499 237 499 c 0,11,12
 215 499 215 499 181 496 c 1,13,-1
 197 593 l 1,14,15
 217 592 217 592 250 592 c 0,16,17
 274 592 274 592 294 607.5 c 128,-1,18
 314 623 314 623 318 650 c 0,19,20
 322 674 322 674 310.5 688.5 c 128,-1,21
 299 703 299 703 277 703 c 0,22,23
 259 703 259 703 245 691.5 c 128,-1,24
 231 680 231 680 223 668 c 128,-1,25
 215 656 215 656 203 633 c 1,26,-1
 116 662 l 1,27,28
 133 703 133 703 157 732 c 128,-1,29
 181 761 181 761 207 774.5 c 128,-1,30
 233 788 233 788 255 794 c 128,-1,31
 277 800 277 800 299 800 c 0,32,33
 370 800 370 800 406 759.5 c 128,-1,34
 442 719 442 719 432 658 c 0,35,36
 421 593 421 593 365 552 c 1,37,38
 424 514 424 514 412 436 c 0,39,40
 400 362 400 362 344.5 319 c 128,-1,41
 289 276 289 276 211 276 c 0,42,43
 155 276 155 276 113 307 c 128,-1,44
 71 338 71 338 63 407 c 1,0,-1
529 135 m 1,45,-1
 791 459 l 1,46,-1
 883 459 l 1,47,-1
 831 145 l 1,48,-1
 884 145 l 1,49,-1
 868 49 l 1,50,-1
 815 49 l 1,51,-1
 798 -53 l 1,52,-1
 688 -53 l 1,53,-1
 705 49 l 1,54,-1
 514 49 l 1,55,-1
 529 135 l 1,45,-1
641 145 m 1,56,-1
 720 145 l 1,57,-1
 733 218 l 2,58,59
 734 227 734 227 739 253.5 c 128,-1,60
 744 280 744 280 744 283 c 1,61,-1
 703 226 l 1,62,-1
 641 145 l 1,56,-1
156 -52 m 1,63,-1
 765 783 l 1,64,-1
 886 783 l 1,65,-1
 277 -52 l 1,66,-1
 156 -52 l 1,63,-1
EndSplineSet
Ligature2: "'frac' Diagonal Fractions lookup 7 subtable" three fraction four
Ligature2: "'frac' Diagonal Fractions lookup 7 subtable" three slash four
EndChar

StartChar: questiondown
Encoding: 191 191 129
Width: 557
GlyphClass: 2
Flags: W
LayerCount: 2
Fore
SplineSet
5 -5 m 0,0,1
 12 40 12 40 34.5 75 c 128,-1,2
 57 110 57 110 85 133 c 128,-1,3
 113 156 113 156 140 178.5 c 128,-1,4
 167 201 167 201 189 231.5 c 128,-1,5
 211 262 211 262 217 299 c 2,6,-1
 222 331 l 1,7,-1
 358 331 l 1,8,-1
 350 288 l 2,9,10
 343 248 343 248 326.5 216 c 128,-1,11
 310 184 310 184 288 163 c 128,-1,12
 266 142 266 142 242.5 121 c 128,-1,13
 219 100 219 100 198.5 83 c 128,-1,14
 178 66 178 66 162.5 41 c 128,-1,15
 147 16 147 16 142 -12 c 0,16,17
 135 -53 135 -53 153.5 -76.5 c 128,-1,18
 172 -100 172 -100 208 -100 c 0,19,20
 284 -100 284 -100 340 8 c 1,21,-1
 452 -32 l 1,22,23
 419 -109 419 -109 349.5 -162.5 c 128,-1,24
 280 -216 280 -216 189 -216 c 0,25,26
 93 -216 93 -216 41 -158 c 128,-1,27
 -11 -100 -11 -100 5 -5 c 0,0,1
218 393 m 1,28,-1
 243 542 l 1,29,-1
 406 542 l 1,30,-1
 382 393 l 1,31,-1
 218 393 l 1,28,-1
EndSplineSet
EndChar

StartChar: AE
Encoding: 198 198 136
Width: 942
GlyphClass: 2
Flags: W
LayerCount: 2
Fore
SplineSet
273 282 m 1,0,-1
 448 282 l 1,1,-1
 501 605 l 1,2,-1
 493 605 l 1,3,-1
 273 282 l 1,0,-1
-52 0 m 1,4,-1
 445 735 l 1,5,-1
 983 735 l 1,6,-1
 964 619 l 1,7,-1
 637 619 l 1,8,-1
 607 437 l 1,9,-1
 900 437 l 1,10,-1
 881 322 l 1,11,-1
 578 322 l 1,12,-1
 544 116 l 1,13,-1
 890 116 l 1,14,-1
 871 0 l 1,15,-1
 401 0 l 1,16,-1
 430 173 l 1,17,-1
 203 173 l 1,18,-1
 90 0 l 1,19,-1
 -52 0 l 1,4,-1
EndSplineSet
EndChar

StartChar: multiply
Encoding: 215 215 153
Width: 541
GlyphClass: 2
Flags: W
LayerCount: 2
Fore
SplineSet
18 209 m 1,0,-1
 204 365 l 1,1,-1
 69 520 l 1,2,-1
 166 603 l 1,3,-1
 297 446 l 1,4,-1
 480 603 l 1,5,-1
 550 520 l 1,6,-1
 364 365 l 1,7,-1
 499 209 l 1,8,-1
 401 127 l 1,9,-1
 270 285 l 1,10,-1
 87 127 l 1,11,-1
 18 209 l 1,0,-1
EndSplineSet
EndChar

StartChar: Oslash
Encoding: 216 216 154
Width: 688
GlyphClass: 2
Flags: W
LayerCount: 2
Fore
SplineSet
47 367 m 0,0,1
 76 540 76 540 179 645.5 c 128,-1,2
 282 751 282 751 422 751 c 0,3,4
 496 751 496 751 551 720 c 1,5,-1
 598 787 l 1,6,-1
 707 787 l 1,7,-1
 621 662 l 1,8,9
 702 556 702 556 671 367 c 0,10,11
 642 194 642 194 539 89 c 128,-1,12
 436 -16 436 -16 295 -16 c 0,13,14
 226 -16 226 -16 174 10 c 1,15,-1
 128 -54 l 1,16,-1
 20 -54 l 1,17,-1
 103 64 l 1,18,19
 15 171 15 171 47 367 c 0,0,1
527 534 m 1,20,-1
 248 116 l 1,21,22
 271 100 271 100 314 100 c 0,23,24
 395 100 395 100 453.5 171.5 c 128,-1,25
 512 243 512 243 533 367 c 0,26,27
 550 469 550 469 527 534 c 1,20,-1
477 614 m 1,28,29
 445 635 445 635 403 635 c 0,30,31
 322 635 322 635 263 562.5 c 128,-1,32
 204 490 204 490 184 367 c 0,33,34
 167 265 167 265 193 191 c 1,35,-1
 477 614 l 1,28,29
EndSplineSet
EndChar

StartChar: Thorn
Encoding: 222 222 160
Width: 559
GlyphClass: 2
Flags: W
LayerCount: 2
Fore
SplineSet
23 0 m 1,0,-1
 145 735 l 1,1,-1
 277 735 l 1,2,-1
 258 617 l 1,3,-1
 315 617 l 2,4,5
 390 617 390 617 442 596 c 128,-1,6
 494 575 494 575 517 538.5 c 128,-1,7
 540 502 540 502 547 461.5 c 128,-1,8
 554 421 554 421 546 373 c 0,9,10
 526 251 526 251 444.5 188.5 c 128,-1,11
 363 126 363 126 240 126 c 2,12,-1
 176 126 l 1,13,-1
 155 0 l 1,14,-1
 23 0 l 1,0,-1
195 242 m 1,15,-1
 246 242 l 2,16,17
 384 242 384 242 407 376 c 0,18,19
 428 501 428 501 287 501 c 2,20,-1
 238 501 l 1,21,-1
 195 242 l 1,15,-1
EndSplineSet
EndChar

StartChar: germandbls
Encoding: 223 223 161
Width: 600
GlyphClass: 2
Flags: W
LayerCount: 2
Fore
SplineSet
23 0 m 1,0,-1
 111 530 l 2,1,2
 129 638 129 638 200.5 694.5 c 128,-1,3
 272 751 272 751 365 751 c 0,4,5
 469 751 469 751 522.5 697.5 c 128,-1,6
 576 644 576 644 561 550 c 0,7,8
 545 451 545 451 458 400 c 1,9,-1
 458 398 l 1,10,11
 577 352 577 352 552 205 c 0,12,13
 535 100 535 100 465.5 42 c 128,-1,14
 396 -16 396 -16 292 -16 c 0,15,16
 230 -16 230 -16 182 0 c 1,17,-1
 203 121 l 1,18,19
 251 100 251 100 307 100 c 0,20,21
 347 100 347 100 380.5 130.5 c 128,-1,22
 414 161 414 161 421 206 c 0,23,24
 431 264 431 264 405 295.5 c 128,-1,25
 379 327 379 327 319 327 c 2,26,-1
 255 327 l 1,27,-1
 274 442 l 1,28,-1
 327 442 l 2,29,30
 364 442 364 442 391.5 468.5 c 128,-1,31
 419 495 419 495 427 542 c 0,32,33
 434 583 434 583 413 609 c 128,-1,34
 392 635 392 635 349 635 c 0,35,36
 305 635 305 635 275.5 603.5 c 128,-1,37
 246 572 246 572 237 519 c 2,38,-1
 151 0 l 1,39,-1
 23 0 l 1,0,-1
EndSplineSet
EndChar

StartChar: ae
Encoding: 230 230 168
Width: 832
GlyphClass: 2
Flags: W
LayerCount: 2
Fore
SplineSet
4 146 m 0,0,1
 16 220 16 220 81.5 268 c 128,-1,2
 147 316 147 316 259 332 c 0,3,4
 319 341 319 341 353 349 c 0,5,6
 353 352 353 352 355 365.5 c 128,-1,7
 357 379 357 379 358 382 c 0,8,9
 363 414 363 414 341.5 433 c 128,-1,10
 320 452 320 452 284 452 c 0,11,12
 205 452 205 452 129 383 c 1,13,-1
 67 449 l 1,14,15
 166 554 166 554 301 554 c 0,16,17
 410 554 410 554 452 485 c 1,18,19
 524 554 524 554 622 554 c 0,20,21
 718 554 718 554 772 475.5 c 128,-1,22
 826 397 826 397 805 272 c 0,23,24
 804 264 804 264 795 224 c 1,25,-1
 452 224 l 1,26,-1
 450 213 l 2,27,28
 444 166 444 166 467.5 127 c 128,-1,29
 491 88 491 88 547 88 c 0,30,31
 626 88 626 88 678 163 c 1,32,-1
 772 125 l 1,33,34
 739 66 739 66 675.5 25 c 128,-1,35
 612 -16 612 -16 530 -16 c 0,36,37
 408 -16 408 -16 358 85 c 1,38,39
 265 -16 265 -16 156 -16 c 0,40,41
 73 -16 73 -16 32.5 28.5 c 128,-1,42
 -8 73 -8 73 4 146 c 0,0,1
131 155 m 0,43,44
 127 131 127 131 143.5 111.5 c 128,-1,45
 160 92 160 92 190 92 c 0,46,47
 240 92 240 92 280.5 127.5 c 128,-1,48
 321 163 321 163 330 215 c 2,49,-1
 337 260 l 1,50,51
 331 259 331 259 303.5 253 c 128,-1,52
 276 247 276 247 256 244 c 0,53,54
 143 227 143 227 131 155 c 0,43,44
467 314 m 1,55,-1
 687 314 l 1,56,57
 687 316 687 316 688 318 c 0,58,59
 697 373 697 373 674 412 c 128,-1,60
 651 451 651 451 606 451 c 0,61,62
 512 451 512 451 473 338 c 1,63,-1
 467 314 l 1,55,-1
EndSplineSet
EndChar

StartChar: eth
Encoding: 240 240 178
Width: 524
GlyphClass: 2
Flags: W
LayerCount: 2
Fore
SplineSet
19 229 m 0,0,1
 39 347 39 347 113 417.5 c 128,-1,2
 187 488 187 488 286 488 c 0,3,4
 320 488 320 488 347.5 477.5 c 128,-1,5
 375 467 375 467 385 454 c 1,6,7
 381 519 381 519 338 574 c 1,8,-1
 238 505 l 1,9,-1
 180 587 l 1,10,-1
 258 642 l 1,11,12
 222 662 222 662 179 669 c 1,13,-1
 241 775 l 1,14,15
 286 768 286 768 326 751 c 0,16,17
 350 741 350 741 375 723 c 1,18,-1
 483 799 l 1,19,-1
 540 714 l 1,20,-1
 449 651 l 1,21,22
 463 631 463 631 474 608 c 0,23,24
 498 556 498 556 507 471.5 c 128,-1,25
 516 387 516 387 498 281 c 0,26,27
 476 146 476 146 398.5 65 c 128,-1,28
 321 -16 321 -16 205 -16 c 0,29,30
 103 -16 103 -16 52 52 c 128,-1,31
 1 120 1 120 19 229 c 0,0,1
146 236 m 256,32,33
 136 173 136 173 158 134 c 128,-1,34
 180 95 180 95 228 95 c 0,35,36
 274 95 274 95 308.5 133 c 128,-1,37
 343 171 343 171 353 236 c 0,38,39
 363 298 363 298 341.5 337 c 128,-1,40
 320 376 320 376 274 376 c 256,41,42
 227 376 227 376 191.5 337.5 c 128,-1,43
 156 299 156 299 146 236 c 256,32,33
EndSplineSet
EndChar

StartChar: divide
Encoding: 247 247 185
Width: 542
GlyphClass: 2
Flags: W
LayerCount: 2
Fore
SplineSet
231 487 m 1,0,-1
 255 632 l 1,1,-1
 401 632 l 1,2,-1
 377 487 l 1,3,-1
 231 487 l 1,0,-1
27 304 m 1,4,-1
 46 420 l 1,5,-1
 540 420 l 1,6,-1
 521 304 l 1,7,-1
 27 304 l 1,4,-1
165 91 m 1,8,-1
 189 237 l 1,9,-1
 335 237 l 1,10,-1
 311 91 l 1,11,-1
 165 91 l 1,8,-1
EndSplineSet
EndChar

StartChar: oslash
Encoding: 248 248 186
Width: 527
GlyphClass: 2
Flags: W
LayerCount: 2
Fore
SplineSet
26 268 m 0,0,1
 46 388 46 388 119 471 c 128,-1,2
 192 554 192 554 309 554 c 0,3,4
 364 554 364 554 403 536 c 1,5,-1
 448 603 l 1,6,-1
 541 603 l 1,7,-1
 463 488 l 1,8,9
 522 410 522 410 498 268 c 0,10,11
 492 232 492 232 480.5 196 c 128,-1,12
 469 160 469 160 445.5 120.5 c 128,-1,13
 422 81 422 81 391.5 51.5 c 128,-1,14
 361 22 361 22 315 3 c 128,-1,15
 269 -16 269 -16 214 -16 c 0,16,17
 166 -16 166 -16 125 0 c 1,18,-1
 87 -55 l 1,19,-1
 -4 -55 l 1,20,-1
 63 46 l 1,21,22
 2 124 2 124 26 268 c 0,0,1
373 359 m 1,23,-1
 196 104 l 1,24,25
 214 95 214 95 233 95 c 0,26,27
 276 95 276 95 316.5 136 c 128,-1,28
 357 177 357 177 372 268 c 0,29,30
 381 323 381 323 373 359 c 1,23,-1
333 432 m 1,31,32
 316 443 316 443 291 443 c 0,33,34
 248 443 248 443 207.5 402 c 128,-1,35
 167 361 167 361 152 268 c 0,36,37
 143 213 143 213 154 173 c 1,38,-1
 333 432 l 1,31,32
EndSplineSet
EndChar

StartChar: thorn
Encoding: 254 254 192
Width: 554
GlyphClass: 2
Flags: W
LayerCount: 2
Fore
SplineSet
185 269 m 256,0,1
 172 189 172 189 193 142 c 128,-1,2
 214 95 214 95 263 95 c 0,3,4
 312 95 312 95 348.5 140.5 c 128,-1,5
 385 186 385 186 399 269 c 0,6,7
 412 350 412 350 391.5 396.5 c 128,-1,8
 371 443 371 443 320 443 c 0,9,10
 271 443 271 443 234.5 396 c 128,-1,11
 198 349 198 349 185 269 c 256,0,1
-17 -215 m 1,12,-1
 144 759 l 1,13,-1
 267 759 l 1,14,-1
 222 484 l 1,15,16
 240 513 240 513 277.5 533.5 c 128,-1,17
 315 554 315 554 355 554 c 0,18,19
 451 554 451 554 499 478 c 128,-1,20
 547 402 547 402 525 269 c 0,21,22
 513 194 513 194 483.5 137 c 128,-1,23
 454 80 454 80 416.5 48 c 128,-1,24
 379 16 379 16 339.5 0 c 128,-1,25
 300 -16 300 -16 261 -16 c 0,26,27
 213 -16 213 -16 186.5 5 c 128,-1,28
 160 26 160 26 151 52 c 1,29,-1
 107 -215 l 1,30,-1
 -17 -215 l 1,12,-1
EndSplineSet
EndChar

StartChar: dcroat
Encoding: 273 273 211
Width: 550
GlyphClass: 2
Flags: W
LayerCount: 2
Fore
SplineSet
25 263 m 0,0,1
 47 397 47 397 121 469.5 c 128,-1,2
 195 542 195 542 286 542 c 0,3,4
 328 542 328 542 357.5 523.5 c 128,-1,5
 387 505 387 505 399 479 c 1,6,-1
 416 583 l 1,7,-1
 224 583 l 1,8,-1
 240 684 l 1,9,-1
 433 684 l 1,10,-1
 446 759 l 1,11,-1
 568 759 l 1,12,-1
 555 684 l 1,13,-1
 606 684 l 1,14,-1
 589 583 l 1,15,-1
 539 583 l 1,16,-1
 442 0 l 1,17,-1
 324 0 l 1,18,-1
 334 62 l 1,19,20
 309 28 309 28 272.5 6 c 128,-1,21
 236 -16 236 -16 194 -16 c 0,22,23
 104 -16 104 -16 53 54.5 c 128,-1,24
 2 125 2 125 25 263 c 0,0,1
151 263 m 0,25,26
 137 181 137 181 160.5 138 c 128,-1,27
 184 95 184 95 230 95 c 0,28,29
 278 95 278 95 315.5 140.5 c 128,-1,30
 353 186 353 186 365 263 c 0,31,32
 377 338 377 338 356 384 c 128,-1,33
 335 430 335 430 286 430 c 0,34,35
 239 430 239 430 201 384 c 128,-1,36
 163 338 163 338 151 263 c 0,25,26
EndSplineSet
EndChar

StartChar: uni0123
Encoding: 291 291 229
Width: 536
GlyphClass: 2
Flags: W
LayerCount: 2
Fore
SplineSet
246 623 m 1,0,-1
 364 814 l 1,1,-1
 449 814 l 1,2,-1
 379 623 l 1,3,-1
 246 623 l 1,0,-1
155 279 m 0,4,5
 142 201 142 201 163 159 c 128,-1,6
 184 117 184 117 230 117 c 256,7,8
 276 117 276 117 310 158.5 c 128,-1,9
 344 200 344 200 358 280 c 0,10,11
 371 359 371 359 350.5 401 c 128,-1,12
 330 443 330 443 284 443 c 0,13,14
 238 443 238 443 203 399.5 c 128,-1,15
 168 356 168 356 155 279 c 0,4,5
30 278 m 0,16,17
 51 404 51 404 123.5 479 c 128,-1,18
 196 554 196 554 287 554 c 0,19,20
 331 554 331 554 357 532 c 128,-1,21
 383 510 383 510 392 484 c 1,22,-1
 401 538 l 1,23,-1
 524 538 l 1,24,-1
 447 78 l 2,25,26
 422 -75 422 -75 353 -147 c 128,-1,27
 284 -219 284 -219 166 -219 c 0,28,29
 104 -219 104 -219 56 -191.5 c 128,-1,30
 8 -164 8 -164 -18 -113 c 1,31,-1
 73 -53 l 1,32,33
 112 -115 112 -115 186 -115 c 0,34,35
 230 -115 230 -115 264 -81 c 128,-1,36
 298 -47 298 -47 312 8 c 0,37,38
 322 52 322 52 324 66 c 1,39,40
 302 39 302 39 268 22 c 128,-1,41
 234 5 234 5 200 5 c 0,42,43
 104 5 104 5 56.5 79.5 c 128,-1,44
 9 154 9 154 30 278 c 0,16,17
EndSplineSet
EndChar

StartChar: Hbar
Encoding: 294 294 232
Width: 685
GlyphClass: 2
Flags: W
LayerCount: 2
Fore
SplineSet
50 540 m 1,0,-1
 67 646 l 1,1,-1
 135 646 l 1,2,-1
 150 735 l 1,3,-1
 282 735 l 1,4,-1
 267 646 l 1,5,-1
 538 646 l 1,6,-1
 552 735 l 1,7,-1
 686 735 l 1,8,-1
 671 646 l 1,9,-1
 740 646 l 1,10,-1
 722 540 l 1,11,-1
 653 540 l 1,12,-1
 564 0 l 1,13,-1
 431 0 l 1,14,-1
 484 320 l 1,15,-1
 213 320 l 1,16,-1
 160 0 l 1,17,-1
 28 0 l 1,18,-1
 117 540 l 1,19,-1
 50 540 l 1,0,-1
520 540 m 1,20,-1
 250 540 l 1,21,-1
 232 436 l 1,22,-1
 503 436 l 1,23,-1
 520 540 l 1,20,-1
EndSplineSet
EndChar

StartChar: hbar
Encoding: 295 295 233
Width: 529
GlyphClass: 2
Flags: W
LayerCount: 2
Fore
SplineSet
51 584 m 1,0,-1
 67 683 l 1,1,-1
 128 683 l 1,2,-1
 140 759 l 1,3,-1
 262 759 l 1,4,-1
 249 683 l 1,5,-1
 431 683 l 1,6,-1
 415 584 l 1,7,-1
 233 584 l 1,8,-1
 213 466 l 1,9,-1
 214 466 l 1,10,11
 238 491 238 491 274.5 509.5 c 128,-1,12
 311 528 311 528 349 528 c 0,13,14
 379 528 379 528 405 518.5 c 128,-1,15
 431 509 431 509 455 487 c 128,-1,16
 479 465 479 465 487.5 421.5 c 128,-1,17
 496 378 496 378 487 318 c 2,18,-1
 434 0 l 1,19,-1
 312 0 l 1,20,-1
 362 304 l 2,21,22
 380 415 380 415 308 415 c 0,23,24
 263 415 263 415 227 374 c 128,-1,25
 191 333 191 333 182 278 c 2,26,-1
 136 0 l 1,27,-1
 15 0 l 1,28,-1
 111 584 l 1,29,-1
 51 584 l 1,0,-1
EndSplineSet
EndChar

StartChar: dotlessi
Encoding: 305 305 243
Width: 241
GlyphClass: 2
Flags: W
LayerCount: 2
Fore
SplineSet
13 0 m 1,0,-1
 102 538 l 1,1,-1
 224 538 l 1,2,-1
 135 0 l 1,3,-1
 13 0 l 1,0,-1
EndSplineSet
EndChar

StartChar: kgreenlandic
Encoding: 312 312 250
Width: 514
GlyphClass: 2
Flags: W
LayerCount: 2
Fore
SplineSet
12 0 m 1,0,-1
 101 538 l 1,1,-1
 222 538 l 1,2,-1
 192 352 l 1,3,-1
 195 352 l 1,4,-1
 409 538 l 1,5,-1
 564 538 l 1,6,-1
 291 299 l 1,7,-1
 477 0 l 1,8,-1
 330 0 l 1,9,-1
 196 205 l 1,10,-1
 162 173 l 1,11,-1
 133 0 l 1,12,-1
 12 0 l 1,0,-1
EndSplineSet
EndChar

StartChar: Lslash
Encoding: 321 321 259
Width: 543
GlyphClass: 2
Flags: W
LayerCount: 2
Fore
SplineSet
221 333 m 1,0,-1
 185 116 l 1,1,-1
 506 116 l 1,2,-1
 487 0 l 1,3,-1
 33 0 l 1,4,-1
 74 250 l 1,5,-1
 -11 200 l 1,6,-1
 -56 300 l 1,7,-1
 97 387 l 1,8,-1
 155 735 l 1,9,-1
 288 735 l 1,10,-1
 244 470 l 1,11,-1
 358 536 l 1,12,-1
 402 436 l 1,13,-1
 221 333 l 1,0,-1
EndSplineSet
EndChar

StartChar: lslash
Encoding: 322 322 260
Width: 259
GlyphClass: 2
Flags: W
LayerCount: 2
Fore
SplineSet
202 349 m 1,0,-1
 145 0 l 1,1,-1
 21 0 l 1,2,-1
 66 272 l 1,3,-1
 -16 225 l 1,4,-1
 -59 325 l 1,5,-1
 89 410 l 1,6,-1
 147 759 l 1,7,-1
 270 759 l 1,8,-1
 225 487 l 1,9,-1
 309 534 l 1,10,-1
 350 433 l 1,11,-1
 202 349 l 1,0,-1
EndSplineSet
EndChar

StartChar: Eng
Encoding: 330 330 268
Width: 680
GlyphClass: 2
Flags: W
LayerCount: 2
Fore
SplineSet
23 0 m 1,0,-1
 145 735 l 1,1,-1
 281 735 l 1,2,-1
 428 335 l 1,3,-1
 474 204 l 1,4,-1
 479 204 l 1,5,6
 479 294 479 294 499 414 c 2,7,-1
 552 735 l 1,8,-1
 686 735 l 1,9,-1
 567 17 l 2,10,11
 548 -100 548 -100 486 -155 c 128,-1,12
 424 -210 424 -210 343 -210 c 0,13,14
 299 -210 299 -210 241 -199 c 1,15,-1
 260 -86 l 1,16,17
 293 -94 293 -94 335 -94 c 0,18,19
 375 -94 375 -94 396 -73 c 128,-1,20
 417 -52 417 -52 427 -2 c 1,21,-1
 275 404 l 1,22,-1
 234 528 l 1,23,-1
 229 528 l 1,24,25
 222 398 222 398 210 322 c 2,26,-1
 156 0 l 1,27,-1
 23 0 l 1,0,-1
EndSplineSet
EndChar

StartChar: eng
Encoding: 331 331 269
Width: 523
GlyphClass: 2
Flags: W
LayerCount: 2
Fore
SplineSet
8 0 m 1,0,-1
 97 538 l 1,1,-1
 214 538 l 1,2,-1
 204 478 l 1,3,-1
 205 478 l 1,4,5
 229 510 229 510 268 532 c 128,-1,6
 307 554 307 554 354 554 c 0,7,8
 520 554 520 554 486 345 c 2,9,-1
 430 8 l 2,10,11
 420 -55 420 -55 395 -101.5 c 128,-1,12
 370 -148 370 -148 339 -172.5 c 128,-1,13
 308 -197 308 -197 277 -208 c 128,-1,14
 246 -219 246 -219 215 -219 c 0,15,16
 182 -219 182 -219 127 -208 c 1,17,-1
 145 -95 l 1,18,19
 180 -104 180 -104 212 -104 c 0,20,21
 252 -104 252 -104 274.5 -81 c 128,-1,22
 297 -58 297 -58 305 -9 c 2,23,-1
 361 329 l 2,24,25
 370 383 370 383 359 413 c 128,-1,26
 348 443 348 443 308 443 c 0,27,28
 263 443 263 443 227 404.5 c 128,-1,29
 191 366 191 366 182 309 c 2,30,-1
 131 0 l 1,31,-1
 8 0 l 1,0,-1
EndSplineSet
EndChar

StartChar: OE
Encoding: 338 338 276
Width: 955
GlyphClass: 2
Flags: W
LayerCount: 2
Fore
SplineSet
47 367 m 256,0,1
 76 540 76 540 180 645.5 c 128,-1,2
 284 751 284 751 425 751 c 0,3,4
 490 751 490 751 522 735 c 1,5,-1
 996 735 l 1,6,-1
 977 618 l 1,7,-1
 632 618 l 1,8,-1
 602 437 l 1,9,-1
 913 437 l 1,10,-1
 894 322 l 1,11,-1
 583 322 l 1,12,-1
 549 116 l 1,13,-1
 904 116 l 1,14,-1
 884 0 l 1,15,-1
 402 0 l 1,16,17
 352 -16 352 -16 298 -16 c 0,18,19
 155 -16 155 -16 86.5 89 c 128,-1,20
 18 194 18 194 47 367 c 256,0,1
184 367 m 0,21,22
 164 244 164 244 199.5 172 c 128,-1,23
 235 100 235 100 317 100 c 0,24,25
 373 100 373 100 418 135 c 1,26,-1
 495 599 l 1,27,28
 463 635 463 635 405 635 c 0,29,30
 322 635 322 635 263 562 c 128,-1,31
 204 489 204 489 184 367 c 0,21,22
EndSplineSet
EndChar

StartChar: uni0163
Encoding: 355 355 293
Width: 349
GlyphClass: 2
Flags: W
LayerCount: 2
Fore
SplineSet
38 427 m 1,0,-1
 57 538 l 1,1,-1
 133 538 l 1,2,-1
 158 694 l 1,3,-1
 281 694 l 1,4,-1
 255 538 l 1,5,-1
 364 538 l 1,6,-1
 346 427 l 1,7,-1
 236 427 l 1,8,-1
 195 177 l 2,9,10
 184 111 184 111 238 111 c 2,11,-1
 294 111 l 1,12,-1
 276 0 l 1,13,-1
 226 0 l 1,14,-1
 214 -28 l 1,15,16
 247 -37 247 -37 263.5 -58.5 c 128,-1,17
 280 -80 280 -80 274 -113 c 0,18,19
 267 -155 267 -155 227 -186 c 128,-1,20
 187 -217 187 -217 110 -217 c 0,21,22
 65 -217 65 -217 29 -207 c 1,23,-1
 42 -127 l 1,24,25
 84 -136 84 -136 120 -136 c 0,26,27
 174 -136 174 -136 179 -104 c 0,28,29
 184 -76 184 -76 95 -71 c 1,30,-1
 88 -71 l 1,31,-1
 122 16 l 1,32,33
 52 52 52 52 71 168 c 2,34,-1
 114 427 l 1,35,-1
 38 427 l 1,0,-1
EndSplineSet
Substitution2: "'locl' Localized Forms in Latin lookup 3 subtable" uni021B
Substitution2: "'locl' Localized Forms in Latin lookup 2 subtable" uni021B
Substitution2: "'aalt' Access All Alternates lookup 0 subtable" uni021B
EndChar

StartChar: tbar
Encoding: 359 359 297
Width: 349
GlyphClass: 2
Flags: W
LayerCount: 2
Fore
SplineSet
39 427 m 1,0,-1
 57 538 l 1,1,-1
 133 538 l 1,2,-1
 159 694 l 1,3,-1
 281 694 l 1,4,-1
 255 538 l 1,5,-1
 366 538 l 1,6,-1
 347 427 l 1,7,-1
 237 427 l 1,8,-1
 227 364 l 1,9,-1
 336 364 l 1,10,-1
 318 257 l 1,11,-1
 209 257 l 1,12,-1
 196 177 l 2,13,14
 185 111 185 111 239 111 c 2,15,-1
 296 111 l 1,16,-1
 277 0 l 1,17,-1
 206 0 l 2,18,19
 44 0 44 0 72 168 c 2,20,-1
 87 257 l 1,21,-1
 -2 257 l 1,22,-1
 16 364 l 1,23,-1
 104 364 l 1,24,-1
 115 427 l 1,25,-1
 39 427 l 1,0,-1
EndSplineSet
EndChar

StartChar: longs
Encoding: 383 383 321
Width: 296
GlyphClass: 2
Flags: W
LayerCount: 2
Fore
SplineSet
16 0 m 1,0,-1
 113 589 l 2,1,2
 127 672 127 672 174.5 715 c 128,-1,3
 222 758 222 758 294 758 c 2,4,-1
 377 758 l 1,5,-1
 359 646 l 1,6,-1
 300 646 l 2,7,8
 272 646 272 646 256.5 630 c 128,-1,9
 241 614 241 614 234 577 c 2,10,-1
 139 0 l 1,11,-1
 16 0 l 1,0,-1
EndSplineSet
EndChar

StartChar: uni0180
Encoding: 384 384 322
Width: 550
GlyphClass: 2
Flags: W
LayerCount: 2
Fore
SplineSet
180 265 m 0,0,1
 167 187 167 187 189 141 c 128,-1,2
 211 95 211 95 260 95 c 0,3,4
 307 95 307 95 344 139 c 128,-1,5
 381 183 381 183 395 265 c 0,6,7
 408 341 408 341 386 388 c 128,-1,8
 364 435 364 435 315 435 c 256,9,10
 267 435 267 435 230 388 c 128,-1,11
 193 341 193 341 180 265 c 0,0,1
52 584 m 1,12,-1
 68 685 l 1,13,-1
 129 685 l 1,14,-1
 141 759 l 1,15,-1
 262 759 l 1,16,-1
 249 685 l 1,17,-1
 428 685 l 1,18,-1
 411 584 l 1,19,-1
 233 584 l 1,20,-1
 215 478 l 1,21,22
 277 546 277 546 351 546 c 0,23,24
 445 546 445 546 493.5 470.5 c 128,-1,25
 542 395 542 395 520 265 c 0,26,27
 508 192 508 192 478.5 135.5 c 128,-1,28
 449 79 449 79 411.5 47 c 128,-1,29
 374 15 374 15 335.5 -0.5 c 128,-1,30
 297 -16 297 -16 260 -16 c 0,31,32
 216 -16 216 -16 185 7.5 c 128,-1,33
 154 31 154 31 144 61 c 1,34,-1
 134 0 l 1,35,-1
 16 0 l 1,36,-1
 112 584 l 1,37,-1
 52 584 l 1,12,-1
EndSplineSet
EndChar

StartChar: uni0182
Encoding: 386 386 324
Width: 637
GlyphClass: 2
Flags: W
LayerCount: 2
Fore
SplineSet
176 116 m 1,0,-1
 332 116 l 2,1,2
 377 116 377 116 412 141 c 128,-1,3
 447 166 447 166 456 216 c 0,4,5
 463 259 463 259 440 290 c 128,-1,6
 417 321 417 321 365 321 c 2,7,-1
 209 321 l 1,8,-1
 176 116 l 1,0,-1
23 0 m 1,9,-1
 145 735 l 1,10,-1
 596 735 l 1,11,-1
 576 618 l 1,12,-1
 259 618 l 1,13,-1
 229 436 l 1,14,-1
 394 436 l 2,15,16
 508 436 508 436 559 373 c 128,-1,17
 610 310 610 310 595 216 c 0,18,19
 580 124 580 124 508 62 c 128,-1,20
 436 0 436 0 332 0 c 2,21,-1
 23 0 l 1,9,-1
EndSplineSet
EndChar

StartChar: uni0183
Encoding: 387 387 325
Width: 548
GlyphClass: 2
Flags: W
LayerCount: 2
Fore
SplineSet
178 269 m 0,0,1
 165 188 165 188 186.5 141.5 c 128,-1,2
 208 95 208 95 257 95 c 0,3,4
 305 95 305 95 342 139.5 c 128,-1,5
 379 184 379 184 393 269 c 0,6,7
 406 350 406 350 385 396.5 c 128,-1,8
 364 443 364 443 315 443 c 0,9,10
 264 443 264 443 227.5 395 c 128,-1,11
 191 347 191 347 178 269 c 0,0,1
13 0 m 1,12,-1
 137 749 l 1,13,-1
 511 749 l 1,14,-1
 492 637 l 1,15,-1
 239 637 l 1,16,-1
 214 489 l 1,17,18
 226 502 226 502 241.5 515 c 128,-1,19
 257 528 257 528 287.5 541 c 128,-1,20
 318 554 318 554 350 554 c 0,21,22
 444 554 444 554 492.5 478 c 128,-1,23
 541 402 541 402 519 269 c 0,24,25
 507 195 507 195 477.5 137.5 c 128,-1,26
 448 80 448 80 411 48 c 128,-1,27
 374 16 374 16 335 0 c 128,-1,28
 296 -16 296 -16 258 -16 c 0,29,30
 214 -16 214 -16 182.5 7.5 c 128,-1,31
 151 31 151 31 142 61 c 1,32,-1
 131 0 l 1,33,-1
 13 0 l 1,12,-1
EndSplineSet
EndChar

StartChar: uni0184
Encoding: 388 388 326
Width: 645
GlyphClass: 2
Flags: W
LayerCount: 2
Fore
SplineSet
49 659 m 1,0,-1
 212 735 l 1,1,-1
 284 735 l 1,2,-1
 235 435 l 1,3,-1
 401 435 l 2,4,5
 516 435 516 435 567 372.5 c 128,-1,6
 618 310 618 310 602 216 c 0,7,8
 587 125 587 125 516.5 62.5 c 128,-1,9
 446 0 446 0 340 0 c 2,10,-1
 29 0 l 1,11,-1
 127 587 l 1,12,-1
 49 659 l 1,0,-1
182 116 m 1,13,-1
 340 116 l 2,14,15
 385 116 385 116 420.5 141 c 128,-1,16
 456 166 456 166 464 216 c 0,17,18
 471 259 471 259 448.5 289.5 c 128,-1,19
 426 320 426 320 372 320 c 2,20,-1
 216 320 l 1,21,-1
 182 116 l 1,13,-1
EndSplineSet
EndChar

StartChar: uni0185
Encoding: 389 389 327
Width: 551
GlyphClass: 2
Flags: W
LayerCount: 2
Fore
SplineSet
49 680 m 1,0,-1
 198 759 l 1,1,-1
 262 759 l 1,2,-1
 218 489 l 1,3,4
 233 514 233 514 271.5 534 c 128,-1,5
 310 554 310 554 353 554 c 0,6,7
 448 554 448 554 496 478 c 128,-1,8
 544 402 544 402 522 269 c 0,9,10
 510 196 510 196 481.5 139 c 128,-1,11
 453 82 453 82 416 49 c 128,-1,12
 379 16 379 16 339.5 0 c 128,-1,13
 300 -16 300 -16 261 -16 c 0,14,15
 217 -16 217 -16 187 6.5 c 128,-1,16
 157 29 157 29 145 61 c 1,17,-1
 135 0 l 1,18,-1
 16 0 l 1,19,-1
 117 610 l 1,20,-1
 49 680 l 1,0,-1
181 269 m 0,21,22
 168 188 168 188 189.5 141.5 c 128,-1,23
 211 95 211 95 261 95 c 0,24,25
 309 95 309 95 345.5 140.5 c 128,-1,26
 382 186 382 186 396 269 c 0,27,28
 409 348 409 348 389.5 395.5 c 128,-1,29
 370 443 370 443 318 443 c 0,30,31
 268 443 268 443 231 396 c 128,-1,32
 194 349 194 349 181 269 c 0,21,22
EndSplineSet
EndChar

StartChar: uni0186
Encoding: 390 390 328
Width: 649
GlyphClass: 2
Flags: W
LayerCount: 2
Fore
SplineSet
0 183 m 1,0,-1
 127 221 l 1,1,2
 137 171 137 171 173.5 135.5 c 128,-1,3
 210 100 210 100 265 100 c 0,4,5
 348 100 348 100 411 173 c 128,-1,6
 474 246 474 246 494 368 c 0,7,8
 514 489 514 489 476 562 c 128,-1,9
 438 635 438 635 354 635 c 0,10,11
 265 635 265 635 190 531 c 1,12,-1
 82 569 l 1,13,14
 126 647 126 647 202 699 c 128,-1,15
 278 751 278 751 372 751 c 0,16,17
 515 751 515 751 588 647.5 c 128,-1,18
 661 544 661 544 632 368 c 0,19,20
 602 188 602 188 494 86 c 128,-1,21
 386 -16 386 -16 245 -16 c 0,22,23
 187 -16 187 -16 141 2.5 c 128,-1,24
 95 21 95 21 67.5 52.5 c 128,-1,25
 40 84 40 84 24 116 c 128,-1,26
 8 148 8 148 0 183 c 1,0,-1
EndSplineSet
EndChar

StartChar: uni018B
Encoding: 395 395 333
Width: 636
GlyphClass: 2
Flags: W
LayerCount: 2
Fore
SplineSet
160 216 m 0,0,1
 152 166 152 166 178.5 141 c 128,-1,2
 205 116 205 116 250 116 c 2,3,-1
 407 116 l 1,4,-1
 441 321 l 1,5,-1
 286 321 l 2,6,7
 233 321 233 321 200 290 c 128,-1,8
 167 259 167 259 160 216 c 0,0,1
22 216 m 0,9,10
 38 311 38 311 109 373.5 c 128,-1,11
 180 436 180 436 294 436 c 2,12,-1
 460 436 l 1,13,-1
 490 618 l 1,14,-1
 171 618 l 1,15,-1
 191 735 l 1,16,-1
 643 735 l 1,17,-1
 521 0 l 1,18,-1
 211 0 l 2,19,20
 106 0 106 0 56.5 62 c 128,-1,21
 7 124 7 124 22 216 c 0,9,10
EndSplineSet
EndChar

StartChar: uni018C
Encoding: 396 396 334
Width: 548
GlyphClass: 2
Flags: W
LayerCount: 2
Fore
SplineSet
152 269 m 0,0,1
 138 184 138 184 160 139.5 c 128,-1,2
 182 95 182 95 230 95 c 0,3,4
 280 95 280 95 316 142.5 c 128,-1,5
 352 190 352 190 365 269 c 256,6,7
 378 348 378 348 358 395.5 c 128,-1,8
 338 443 338 443 288 443 c 0,9,10
 239 443 239 443 202.5 397 c 128,-1,11
 166 351 166 351 152 269 c 0,0,1
26 269 m 0,12,13
 48 402 48 402 121 478 c 128,-1,14
 194 554 194 554 289 554 c 0,15,16
 336 554 336 554 363.5 532 c 128,-1,17
 391 510 391 510 401 488 c 1,18,-1
 427 647 l 1,19,-1
 173 647 l 1,20,-1
 191 759 l 1,21,-1
 568 759 l 1,22,-1
 442 0 l 1,23,-1
 324 0 l 1,24,-1
 334 60 l 1,25,26
 312 30 312 30 275.5 7 c 128,-1,27
 239 -16 239 -16 193 -16 c 0,28,29
 154 -16 154 -16 120.5 0 c 128,-1,30
 87 16 87 16 60 48 c 128,-1,31
 33 80 33 80 23.5 137.5 c 128,-1,32
 14 195 14 195 26 269 c 0,12,13
EndSplineSet
EndChar

StartChar: uni018D
Encoding: 397 397 335
Width: 570
GlyphClass: 2
Flags: W
LayerCount: 2
Fore
SplineSet
160 321 m 256,0,1
 151 269 151 269 183.5 226 c 128,-1,2
 216 183 216 183 273 155 c 1,3,4
 333 183 333 183 374.5 226 c 128,-1,5
 416 269 416 269 425 320 c 0,6,7
 434 373 434 373 406 408.5 c 128,-1,8
 378 444 378 444 317 444 c 0,9,10
 253 444 253 444 211 408.5 c 128,-1,11
 169 373 169 373 160 321 c 256,0,1
34 318 m 0,12,13
 53 431 53 431 133.5 492.5 c 128,-1,14
 214 554 214 554 336 554 c 0,15,16
 455 554 455 554 512 489.5 c 128,-1,17
 569 425 569 425 552 324 c 0,18,19
 542 261 542 261 493.5 200 c 128,-1,20
 445 139 445 139 368 100 c 1,21,22
 403 74 403 74 417.5 36.5 c 128,-1,23
 432 -1 432 -1 426 -40 c 0,24,25
 412 -124 412 -124 342.5 -169.5 c 128,-1,26
 273 -215 273 -215 180 -215 c 0,27,28
 100 -215 100 -215 47.5 -179 c 128,-1,29
 -5 -143 -5 -143 -25 -84 c 1,30,-1
 74 -32 l 1,31,32
 89 -62 89 -62 121 -83 c 128,-1,33
 153 -104 153 -104 197 -104 c 0,34,35
 239 -104 239 -104 267 -86.5 c 128,-1,36
 295 -69 295 -69 300 -43 c 0,37,38
 302 -30 302 -30 295 -17.5 c 128,-1,39
 288 -5 288 -5 267 10.5 c 128,-1,40
 246 26 246 26 232.5 34.5 c 128,-1,41
 219 43 219 43 186 63 c 0,42,43
 150 84 150 84 123 106 c 128,-1,44
 96 128 96 128 71 159 c 128,-1,45
 46 190 46 190 36 230.5 c 128,-1,46
 26 271 26 271 34 318 c 0,12,13
EndSplineSet
EndChar

StartChar: uni018E
Encoding: 398 398 336
Width: 581
GlyphClass: 2
Flags: W
LayerCount: 2
Fore
SplineSet
-15 0 m 1,0,-1
 4 116 l 1,1,-1
 353 116 l 1,2,-1
 387 322 l 1,3,-1
 75 322 l 1,4,-1
 94 437 l 1,5,-1
 406 437 l 1,6,-1
 436 618 l 1,7,-1
 83 618 l 1,8,-1
 102 735 l 1,9,-1
 589 735 l 1,10,-1
 467 0 l 1,11,-1
 -15 0 l 1,0,-1
EndSplineSet
EndChar

StartChar: uni018F
Encoding: 399 399 337
Width: 689
GlyphClass: 2
Flags: W
LayerCount: 2
Fore
SplineSet
45 364 m 0,0,1
 51 399 51 399 58 429 c 1,2,-1
 540 429 l 1,3,4
 547 529 547 529 507 582 c 128,-1,5
 467 635 467 635 396 635 c 0,6,7
 290 635 290 635 205 533 c 1,8,-1
 99 579 l 1,9,10
 154 664 154 664 236.5 707.5 c 128,-1,11
 319 751 319 751 418 751 c 0,12,13
 567 751 567 751 633.5 643 c 128,-1,14
 700 535 700 535 671 365 c 0,15,16
 643 196 643 196 537 90 c 128,-1,17
 431 -16 431 -16 291 -16 c 0,18,19
 152 -16 152 -16 84 87.5 c 128,-1,20
 16 191 16 191 45 364 c 0,0,1
177 312 m 1,21,22
 175 302 175 302 175 297 c 0,23,24
 169 214 169 214 202.5 157 c 128,-1,25
 236 100 236 100 312 100 c 0,26,27
 384 100 384 100 443 158 c 128,-1,28
 502 216 502 216 522 312 c 1,29,-1
 177 312 l 1,21,22
EndSplineSet
EndChar

StartChar: uni0190
Encoding: 400 400 338
Width: 596
GlyphClass: 2
Flags: W
LayerCount: 2
Fore
SplineSet
21 209 m 0,0,1
 32 278 32 278 78.5 323.5 c 128,-1,2
 125 369 125 369 177 387 c 1,3,4
 140 410 140 410 119 455 c 128,-1,5
 98 500 98 500 107 553 c 0,6,7
 122 643 122 643 196.5 697 c 128,-1,8
 271 751 271 751 377 751 c 0,9,10
 436 751 436 751 480.5 732.5 c 128,-1,11
 525 714 525 714 549 684.5 c 128,-1,12
 573 655 573 655 585.5 626.5 c 128,-1,13
 598 598 598 598 602 571 c 1,14,-1
 484 536 l 1,15,16
 452 639 452 639 366 639 c 0,17,18
 318 639 318 639 283 610.5 c 128,-1,19
 248 582 248 582 241 540 c 0,20,21
 233 491 233 491 268 461.5 c 128,-1,22
 303 432 303 432 351 432 c 0,23,24
 407 432 407 432 432 434 c 1,25,-1
 414 323 l 1,26,27
 375 326 375 326 334 326 c 0,28,29
 268 326 268 326 218 294 c 128,-1,30
 168 262 168 262 160 211 c 0,31,32
 151 154 151 154 185.5 124.5 c 128,-1,33
 220 95 220 95 280 95 c 0,34,35
 326 95 326 95 374.5 125 c 128,-1,36
 423 155 423 155 449 194 c 1,37,-1
 549 155 l 1,38,39
 506 74 506 74 429 29 c 128,-1,40
 352 -16 352 -16 254 -16 c 0,41,42
 132 -16 132 -16 68 44.5 c 128,-1,43
 4 105 4 105 21 209 c 0,0,1
EndSplineSet
EndChar

StartChar: uni0191
Encoding: 401 401 339
Width: 561
GlyphClass: 2
Flags: W
LayerCount: 2
Fore
SplineSet
-105 -98 m 1,0,1
 -70 -104 -70 -104 -54 -104 c 0,2,3
 -19 -104 -19 -104 2 -79 c 128,-1,4
 23 -54 23 -54 32 2 c 2,5,-1
 153 735 l 1,6,-1
 618 735 l 1,7,-1
 599 618 l 1,8,-1
 266 618 l 1,9,-1
 234 425 l 1,10,-1
 533 425 l 1,11,-1
 514 310 l 1,12,-1
 215 310 l 1,13,-1
 164 2 l 2,14,15
 154 -61 154 -61 130 -107 c 128,-1,16
 106 -153 106 -153 75 -176 c 128,-1,17
 44 -199 44 -199 15 -209 c 128,-1,18
 -14 -219 -14 -219 -46 -219 c 0,19,20
 -83 -219 -83 -219 -124 -211 c 1,21,-1
 -105 -98 l 1,0,1
EndSplineSet
EndChar

StartChar: florin
Encoding: 402 402 340
Width: 333
GlyphClass: 2
Flags: W
LayerCount: 2
Fore
SplineSet
-83 -98 m 1,0,1
 -58 -104 -58 -104 -34 -104 c 0,2,3
 33 -104 33 -104 50 3 c 2,4,-1
 121 427 l 1,5,-1
 45 427 l 1,6,-1
 64 538 l 1,7,-1
 139 538 l 1,8,-1
 147 589 l 2,9,10
 161 673 161 673 207.5 716 c 128,-1,11
 254 759 254 759 327 759 c 2,12,-1
 413 759 l 1,13,-1
 394 646 l 1,14,-1
 326 646 l 2,15,16
 301 646 301 646 288 630.5 c 128,-1,17
 275 615 275 615 269 581 c 2,18,-1
 262 538 l 1,19,-1
 365 538 l 1,20,-1
 346 427 l 1,21,-1
 244 427 l 1,22,-1
 173 3 l 2,23,24
 162 -61 162 -61 140 -106.5 c 128,-1,25
 118 -152 118 -152 88.5 -175.5 c 128,-1,26
 59 -199 59 -199 30.5 -209 c 128,-1,27
 2 -219 2 -219 -28 -219 c 0,28,29
 -49 -219 -49 -219 -102 -211 c 1,30,-1
 -83 -98 l 1,0,1
EndSplineSet
EndChar

StartChar: uni0194
Encoding: 404 404 342
Width: 631
GlyphClass: 2
Flags: W
LayerCount: 2
Fore
SplineSet
76 735 m 1,0,-1
 219 735 l 1,1,-1
 295 244 l 1,2,-1
 301 198 l 1,3,-1
 302 198 l 1,4,-1
 325 244 l 1,5,-1
 563 735 l 1,6,-1
 706 735 l 1,7,-1
 392 134 l 1,8,9
 460 32 460 32 446 -50 c 0,10,11
 434 -124 434 -124 373.5 -171.5 c 128,-1,12
 313 -219 313 -219 231 -219 c 0,13,14
 149 -219 149 -219 104 -173.5 c 128,-1,15
 59 -128 59 -128 72 -50 c 0,16,17
 78 -16 78 -16 103.5 25.5 c 128,-1,18
 129 67 129 67 144.5 84.5 c 128,-1,19
 160 102 160 102 191 134 c 1,20,-1
 76 735 l 1,0,-1
205 -45 m 0,21,22
 200 -73 200 -73 213 -91.5 c 128,-1,23
 226 -110 226 -110 249 -110 c 0,24,25
 274 -110 274 -110 292 -91.5 c 128,-1,26
 310 -73 310 -73 315 -44 c 0,27,28
 323 6 323 6 279 67 c 1,29,30
 214 10 214 10 205 -45 c 0,21,22
EndSplineSet
EndChar

StartChar: uni0195
Encoding: 405 405 343
Width: 824
GlyphClass: 2
Flags: W
LayerCount: 2
Fore
SplineSet
13 0 m 1,0,-1
 139 759 l 1,1,-1
 259 759 l 1,2,-1
 215 493 l 1,3,-1
 216 493 l 1,4,5
 274 554 274 554 353 554 c 0,6,7
 384 554 384 554 411.5 544.5 c 128,-1,8
 439 535 439 535 460.5 513 c 128,-1,9
 482 491 482 491 490.5 447.5 c 128,-1,10
 499 404 499 404 489 345 c 2,11,-1
 466 201 l 2,12,13
 458 152 458 152 472.5 123.5 c 128,-1,14
 487 95 487 95 537 95 c 0,15,16
 622 95 622 95 639 201 c 2,17,-1
 695 538 l 1,18,-1
 818 538 l 1,19,-1
 759 178 l 2,20,21
 751 127 751 127 726.5 88 c 128,-1,22
 702 49 702 49 668.5 27 c 128,-1,23
 635 5 635 5 597.5 -5.5 c 128,-1,24
 560 -16 560 -16 519 -16 c 0,25,26
 477 -16 477 -16 443.5 -7.5 c 128,-1,27
 410 1 410 1 381.5 21.5 c 128,-1,28
 353 42 353 42 341.5 81.5 c 128,-1,29
 330 121 330 121 339 177 c 2,30,-1
 365 331 l 2,31,32
 384 443 384 443 311 443 c 0,33,34
 266 443 266 443 229.5 402 c 128,-1,35
 193 361 193 361 184 305 c 2,36,-1
 133 0 l 1,37,-1
 13 0 l 1,0,-1
EndSplineSet
EndChar

StartChar: uni0196
Encoding: 406 406 344
Width: 347
GlyphClass: 2
Flags: W
LayerCount: 2
Fore
SplineSet
51 165 m 2,0,-1
 146 735 l 1,1,-1
 279 735 l 1,2,-1
 186 171 l 2,3,4
 180 133 180 133 189.5 116.5 c 128,-1,5
 199 100 199 100 231 100 c 0,6,7
 272 100 272 100 306 106 c 1,8,-1
 287 -7 l 1,9,10
 218 -16 218 -16 186 -16 c 0,11,12
 115 -16 115 -16 75 26 c 128,-1,13
 35 68 35 68 51 165 c 2,0,-1
EndSplineSet
EndChar

StartChar: uni0197
Encoding: 407 407 345
Width: 281
GlyphClass: 2
Flags: W
LayerCount: 2
Fore
SplineSet
14 315 m 1,0,-1
 32 422 l 1,1,-1
 98 422 l 1,2,-1
 149 735 l 1,3,-1
 283 735 l 1,4,-1
 231 422 l 1,5,-1
 297 422 l 1,6,-1
 279 315 l 1,7,-1
 213 315 l 1,8,-1
 161 0 l 1,9,-1
 28 0 l 1,10,-1
 80 315 l 1,11,-1
 14 315 l 1,0,-1
EndSplineSet
EndChar

StartChar: uni0198
Encoding: 408 408 346
Width: 639
GlyphClass: 2
Flags: W
LayerCount: 2
Fore
SplineSet
23 0 m 1,0,-1
 145 735 l 1,1,-1
 278 735 l 1,2,-1
 226 420 l 1,3,-1
 228 420 l 1,4,-1
 487 677 l 2,5,6
 562 751 562 751 664 751 c 0,7,8
 717 751 717 751 757 740 c 1,9,-1
 738 622 l 1,10,11
 696 635 696 635 650 635 c 0,12,13
 609 635 609 635 586 613 c 2,14,-1
 380 413 l 1,15,-1
 595 0 l 1,16,-1
 436 0 l 1,17,-1
 279 317 l 1,18,-1
 195 235 l 1,19,-1
 156 0 l 1,20,-1
 23 0 l 1,0,-1
EndSplineSet
EndChar

StartChar: uni0199
Encoding: 409 409 347
Width: 502
GlyphClass: 2
Flags: W
LayerCount: 2
Fore
SplineSet
13 0 m 1,0,-1
 116 619 l 2,1,2
 130 703 130 703 186.5 747.5 c 128,-1,3
 243 792 243 792 319 792 c 0,4,5
 353 792 353 792 411 787 c 1,6,-1
 392 672 l 1,7,8
 362 677 362 677 323 677 c 0,9,10
 291 677 291 677 265 654 c 128,-1,11
 239 631 239 631 232 593 c 2,12,-1
 191 341 l 1,13,-1
 392 538 l 1,14,-1
 547 538 l 1,15,-1
 320 318 l 1,16,-1
 468 0 l 1,17,-1
 323 0 l 1,18,-1
 225 226 l 1,19,-1
 162 165 l 1,20,-1
 134 0 l 1,21,-1
 13 0 l 1,0,-1
EndSplineSet
EndChar

StartChar: uni019A
Encoding: 410 410 348
Width: 254
GlyphClass: 2
Flags: W
LayerCount: 2
Fore
SplineSet
6 372 m 1,0,-1
 24 479 l 1,1,-1
 98 479 l 1,2,-1
 145 759 l 1,3,-1
 268 759 l 1,4,-1
 221 479 l 1,5,-1
 295 479 l 1,6,-1
 278 372 l 1,7,-1
 204 372 l 1,8,-1
 142 0 l 1,9,-1
 19 0 l 1,10,-1
 80 372 l 1,11,-1
 6 372 l 1,0,-1
EndSplineSet
EndChar

StartChar: uni019B
Encoding: 411 411 349
Width: 500
GlyphClass: 2
Flags: W
LayerCount: 2
Fore
SplineSet
-42 0 m 1,0,-1
 233 519 l 1,1,-1
 230 536 l 1,2,-1
 116 455 l 1,3,-1
 72 536 l 1,4,-1
 194 621 l 1,5,6
 179 643 179 643 134 643 c 2,7,-1
 114 643 l 1,8,-1
 133 753 l 1,9,-1
 172 753 l 2,10,11
 259 753 259 753 302 694 c 1,12,-1
 408 765 l 1,13,-1
 454 684 l 1,14,-1
 338 609 l 1,15,-1
 449 0 l 1,16,-1
 315 0 l 1,17,-1
 283 264 l 2,18,19
 283 268 283 268 279 315 c 128,-1,20
 275 362 275 362 273 385 c 1,21,-1
 271 385 l 1,22,23
 257 350 257 350 220 264 c 1,24,-1
 93 0 l 1,25,-1
 -42 0 l 1,0,-1
EndSplineSet
EndChar

StartChar: uni019C
Encoding: 412 412 350
Width: 930
GlyphClass: 2
Flags: W
LayerCount: 2
Fore
SplineSet
65 258 m 2,0,-1
 144 735 l 1,1,-1
 276 735 l 1,2,-1
 195 242 l 2,3,4
 171 100 171 100 250 100 c 0,5,6
 303 100 303 100 344.5 152.5 c 128,-1,7
 386 205 386 205 398 277 c 2,8,-1
 474 735 l 1,9,-1
 607 735 l 1,10,-1
 525 236 l 2,11,12
 512 160 512 160 530.5 130 c 128,-1,13
 549 100 549 100 583 100 c 0,14,15
 638 100 638 100 676.5 148.5 c 128,-1,16
 715 197 715 197 728 276 c 2,17,-1
 804 735 l 1,18,-1
 936 735 l 1,19,-1
 814 0 l 1,20,-1
 688 0 l 1,21,-1
 698 65 l 1,22,-1
 697 65 l 1,23,24
 666 26 666 26 621 4.5 c 128,-1,25
 576 -17 576 -17 534 -17 c 0,26,27
 471 -17 471 -17 440 8 c 128,-1,28
 409 33 409 33 398 81 c 1,29,30
 368 37 368 37 318 10.5 c 128,-1,31
 268 -16 268 -16 202 -16 c 0,32,33
 148 -16 148 -16 114 5 c 128,-1,34
 80 26 80 26 67.5 65.5 c 128,-1,35
 55 105 55 105 55 151.5 c 128,-1,36
 55 198 55 198 65 258 c 2,0,-1
EndSplineSet
EndChar

StartChar: uni019D
Encoding: 413 413 351
Width: 688
GlyphClass: 2
Flags: W
LayerCount: 2
Fore
SplineSet
153 735 m 1,0,-1
 290 735 l 1,1,-1
 437 335 l 1,2,-1
 482 205 l 1,3,-1
 487 205 l 1,4,5
 499 361 499 361 508 417 c 2,6,-1
 561 735 l 1,7,-1
 694 735 l 1,8,-1
 573 0 l 1,9,-1
 435 0 l 1,10,-1
 287 394 l 1,11,-1
 243 529 l 1,12,-1
 238 529 l 1,13,14
 232 404 232 404 217 315 c 2,15,-1
 166 4 l 2,16,17
 158 -47 158 -47 139.5 -87.5 c 128,-1,18
 121 -128 121 -128 99.5 -152 c 128,-1,19
 78 -176 78 -176 51.5 -191.5 c 128,-1,20
 25 -207 25 -207 1 -213 c 128,-1,21
 -23 -219 -23 -219 -47 -219 c 0,22,23
 -82 -219 -82 -219 -123 -211 c 1,24,-1
 -104 -98 l 1,25,26
 -82 -103 -82 -103 -55 -103 c 0,27,28
 -20 -103 -20 -103 1.5 -77.5 c 128,-1,29
 23 -52 23 -52 32 5 c 2,30,-1
 153 735 l 1,0,-1
EndSplineSet
EndChar

StartChar: uni019E
Encoding: 414 414 352
Width: 534
GlyphClass: 2
Flags: W
LayerCount: 2
Fore
SplineSet
8 0 m 1,0,-1
 97 538 l 1,1,-1
 214 538 l 1,2,-1
 205 480 l 1,3,-1
 206 480 l 1,4,5
 262 554 262 554 354 554 c 0,6,7
 520 554 520 554 486 345 c 2,8,-1
 393 -215 l 1,9,-1
 271 -215 l 1,10,-1
 361 330 l 2,11,12
 380 443 380 443 308 443 c 0,13,14
 263 443 263 443 227 404.5 c 128,-1,15
 191 366 191 366 182 309 c 2,16,-1
 131 0 l 1,17,-1
 8 0 l 1,0,-1
EndSplineSet
EndChar

StartChar: uni019F
Encoding: 415 415 353
Width: 688
GlyphClass: 2
Flags: W
LayerCount: 2
Fore
SplineSet
47 367 m 256,0,1
 76 540 76 540 179 645.5 c 128,-1,2
 282 751 282 751 422 751 c 0,3,4
 563 751 563 751 631 645.5 c 128,-1,5
 699 540 699 540 671 367 c 256,6,7
 642 194 642 194 539 89 c 128,-1,8
 436 -16 436 -16 295 -16 c 256,9,10
 154 -16 154 -16 86 89 c 128,-1,11
 18 194 18 194 47 367 c 256,0,1
520 309 m 1,12,-1
 177 309 l 1,13,14
 172 210 172 210 207 155 c 128,-1,15
 242 100 242 100 314 100 c 256,16,17
 386 100 386 100 440 155.5 c 128,-1,18
 494 211 494 211 520 309 c 1,12,-1
195 415 m 1,19,-1
 539 415 l 1,20,21
 545 518 545 518 510.5 576.5 c 128,-1,22
 476 635 476 635 403 635 c 256,23,24
 329 635 329 635 275.5 577 c 128,-1,25
 222 519 222 519 195 415 c 1,19,-1
EndSplineSet
EndChar

StartChar: uni01A2
Encoding: 418 418 356
Width: 932
GlyphClass: 2
Flags: W
LayerCount: 2
Fore
SplineSet
46 366 m 0,0,1
 75 540 75 540 178 645.5 c 128,-1,2
 281 751 281 751 420 751 c 0,3,4
 454 751 454 751 551.5 731 c 128,-1,5
 649 711 649 711 701 711 c 0,6,7
 816 711 816 711 938 735 c 1,8,-1
 817 0 l 1,9,-1
 684 0 l 1,10,-1
 784 603 l 1,11,12
 743 594 743 594 682 594 c 0,13,14
 651 594 651 594 600 602 c 1,15,-1
 511 63 l 1,16,17
 415 -16 415 -16 293 -16 c 0,18,19
 153 -16 153 -16 85.5 89 c 128,-1,20
 18 194 18 194 46 366 c 0,0,1
184 366 m 0,21,22
 164 243 164 243 197.5 171.5 c 128,-1,23
 231 100 231 100 312 100 c 0,24,25
 347 100 347 100 387 118 c 1,26,-1
 470 622 l 1,27,28
 432 635 432 635 401 635 c 0,29,30
 321 635 321 635 263 562.5 c 128,-1,31
 205 490 205 490 184 366 c 0,21,22
EndSplineSet
EndChar

StartChar: uni01A3
Encoding: 419 419 357
Width: 707
GlyphClass: 2
Flags: W
LayerCount: 2
Fore
SplineSet
26 268 m 0,0,1
 48 402 48 402 123.5 478 c 128,-1,2
 199 554 199 554 308 554 c 0,3,4
 346 554 346 554 416.5 540 c 128,-1,5
 487 526 487 526 518 526 c 0,6,7
 604 526 604 526 697 545 c 1,8,-1
 607 0 l 1,9,-1
 485 0 l 1,10,-1
 554 417 l 1,11,12
 533 414 533 414 498 414 c 0,13,14
 470 414 470 414 446 417 c 1,15,-1
 385 49 l 1,16,17
 315 -16 315 -16 214 -16 c 0,18,19
 105 -16 105 -16 54.5 60 c 128,-1,20
 4 136 4 136 26 268 c 0,0,1
152 268 m 0,21,22
 138 185 138 185 160.5 140 c 128,-1,23
 183 95 183 95 232 95 c 0,24,25
 246 95 246 95 273 112 c 1,26,-1
 327 437 l 1,27,28
 301 443 301 443 290 443 c 0,29,30
 239 443 239 443 202.5 397.5 c 128,-1,31
 166 352 166 352 152 268 c 0,21,22
EndSplineSet
EndChar

StartChar: uni01A5
Encoding: 421 421 359
Width: 548
GlyphClass: 2
Flags: W
LayerCount: 2
Fore
SplineSet
178 269 m 0,0,1
 165 189 165 189 185.5 142 c 128,-1,2
 206 95 206 95 256 95 c 0,3,4
 305 95 305 95 342 141 c 128,-1,5
 379 187 379 187 393 269 c 0,6,7
 406 348 406 348 386 395.5 c 128,-1,8
 366 443 366 443 314 443 c 0,9,10
 263 443 263 443 227 395 c 128,-1,11
 191 347 191 347 178 269 c 0,0,1
-23 -215 m 1,12,-1
 111 592 l 2,13,14
 125 677 125 677 181.5 721.5 c 128,-1,15
 238 766 238 766 314 766 c 0,16,17
 344 766 344 766 402 761 c 1,18,-1
 383 646 l 1,19,20
 355 649 355 649 317 649 c 0,21,22
 285 649 285 649 259.5 627 c 128,-1,23
 234 605 234 605 227 568 c 2,24,-1
 213 483 l 1,25,26
 271 554 271 554 350 554 c 0,27,28
 443 554 443 554 491.5 477.5 c 128,-1,29
 540 401 540 401 519 269 c 0,30,31
 507 194 507 194 477 136.5 c 128,-1,32
 447 79 447 79 409 47 c 128,-1,33
 371 15 371 15 332 -0.5 c 128,-1,34
 293 -16 293 -16 256 -16 c 0,35,36
 207 -16 207 -16 180 5 c 128,-1,37
 153 26 153 26 143 52 c 1,38,-1
 99 -215 l 1,39,-1
 -23 -215 l 1,12,-1
EndSplineSet
EndChar

StartChar: uni01A6
Encoding: 422 422 360
Width: 644
GlyphClass: 2
Flags: W
LayerCount: 2
Fore
SplineSet
206 326 m 1,0,-1
 348 326 l 2,1,2
 461 326 461 326 479 435 c 0,3,4
 495 530 495 530 382 530 c 2,5,-1
 240 530 l 1,6,-1
 206 326 l 1,0,-1
19 0 m 1,7,-1
 140 735 l 1,8,-1
 273 735 l 1,9,-1
 259 646 l 1,10,-1
 424 646 l 2,11,12
 535 646 535 646 583.5 588.5 c 128,-1,13
 632 531 632 531 618 446 c 0,14,15
 598 323 598 323 481 264 c 1,16,17
 503 245 503 245 513.5 224 c 128,-1,18
 524 203 524 203 526.5 186 c 128,-1,19
 529 169 529 169 530 133 c 0,20,21
 535 15 535 15 576 -86 c 1,22,-1
 426 -86 l 1,23,24
 421 -74 421 -74 416 -61 c 128,-1,25
 411 -48 411 -48 408 -34.5 c 128,-1,26
 405 -21 405 -21 402.5 -10.5 c 128,-1,27
 400 0 400 0 398 15 c 128,-1,28
 396 30 396 30 394.5 38.5 c 128,-1,29
 393 47 393 47 392 62.5 c 128,-1,30
 391 78 391 78 390.5 83.5 c 128,-1,31
 390 89 390 89 389 105 c 128,-1,32
 388 121 388 121 388 123 c 0,33,34
 385 172 385 172 374 192 c 128,-1,35
 363 212 363 212 327 212 c 2,36,-1
 187 212 l 1,37,-1
 152 0 l 1,38,-1
 19 0 l 1,7,-1
EndSplineSet
EndChar

StartChar: uni01A7
Encoding: 423 423 361
Width: 589
GlyphClass: 2
Flags: W
LayerCount: 2
Fore
SplineSet
10 203 m 0,0,1
 17 248 17 248 39.5 284.5 c 128,-1,2
 62 321 62 321 96.5 346 c 128,-1,3
 131 371 131 371 164.5 386.5 c 128,-1,4
 198 402 198 402 241 415 c 0,5,6
 252 419 252 419 274.5 426 c 128,-1,7
 297 433 297 433 308 436 c 128,-1,8
 319 439 319 439 338 446 c 128,-1,9
 357 453 357 453 368 458 c 128,-1,10
 379 463 379 463 393 470 c 128,-1,11
 407 477 407 477 416 484.5 c 128,-1,12
 425 492 425 492 433.5 501.5 c 128,-1,13
 442 511 442 511 447 522 c 128,-1,14
 452 533 452 533 454 546 c 0,15,16
 461 586 461 586 433.5 610.5 c 128,-1,17
 406 635 406 635 351 635 c 0,18,19
 264 635 264 635 186 551 c 1,20,-1
 81 589 l 1,21,22
 126 660 126 660 200.5 705.5 c 128,-1,23
 275 751 275 751 370 751 c 0,24,25
 484 751 484 751 546 694.5 c 128,-1,26
 608 638 608 638 592 546 c 0,27,28
 585 505 585 505 564.5 471 c 128,-1,29
 544 437 544 437 525 418 c 128,-1,30
 506 399 506 399 463 378 c 128,-1,31
 420 357 420 357 402 350.5 c 128,-1,32
 384 344 384 344 332 328 c 0,33,34
 319 323 319 323 313 321 c 0,35,36
 277 310 277 310 253.5 300 c 128,-1,37
 230 290 230 290 205.5 275.5 c 128,-1,38
 181 261 181 261 167 241.5 c 128,-1,39
 153 222 153 222 148 197 c 0,40,41
 141 155 141 155 170.5 127 c 128,-1,42
 200 99 200 99 255 99 c 0,43,44
 306 99 306 99 359.5 128.5 c 128,-1,45
 413 158 413 158 444 202 c 1,46,-1
 553 162 l 1,47,48
 504 80 504 80 419.5 32 c 128,-1,49
 335 -16 335 -16 239 -16 c 0,50,51
 124 -16 124 -16 58.5 41.5 c 128,-1,52
 -7 99 -7 99 10 203 c 0,0,1
EndSplineSet
EndChar

StartChar: uni01A8
Encoding: 424 424 362
Width: 459
GlyphClass: 2
Flags: W
LayerCount: 2
Fore
SplineSet
2 150 m 0,0,1
 8 184 8 184 25.5 210.5 c 128,-1,2
 43 237 43 237 70.5 255.5 c 128,-1,3
 98 274 98 274 122 285.5 c 128,-1,4
 146 297 146 297 179 309 c 0,5,6
 186 310 186 310 200.5 315 c 128,-1,7
 215 320 215 320 222 322 c 128,-1,8
 229 324 229 324 240.5 328.5 c 128,-1,9
 252 333 252 333 258.5 336.5 c 128,-1,10
 265 340 265 340 274.5 344.5 c 128,-1,11
 284 349 284 349 289 353.5 c 128,-1,12
 294 358 294 358 300 364 c 128,-1,13
 306 370 306 370 308.5 376.5 c 128,-1,14
 311 383 311 383 313 391 c 0,15,16
 317 416 317 416 300.5 430 c 128,-1,17
 284 444 284 444 252 444 c 0,18,19
 187 444 187 444 123 376 c 1,20,-1
 49 429 l 1,21,22
 87 484 87 484 146 519 c 128,-1,23
 205 554 205 554 273 554 c 0,24,25
 354 554 354 554 402 510 c 128,-1,26
 450 466 450 466 438 390 c 0,27,28
 428 328 428 328 382 292.5 c 128,-1,29
 336 257 336 257 267 235 c 0,30,31
 259 232 259 232 240 226 c 128,-1,32
 221 220 221 220 212 217 c 128,-1,33
 203 214 203 214 188 208 c 128,-1,34
 173 202 173 202 165 197 c 128,-1,35
 157 192 157 192 148 184.5 c 128,-1,36
 139 177 139 177 134.5 168.5 c 128,-1,37
 130 160 130 160 128 150 c 0,38,39
 124 124 124 124 141 109 c 128,-1,40
 158 94 158 94 190 94 c 0,41,42
 269 94 269 94 334 169 c 1,43,-1
 413 115 l 1,44,45
 373 58 373 58 309.5 21 c 128,-1,46
 246 -16 246 -16 172 -16 c 0,47,48
 74 -16 74 -16 32 31.5 c 128,-1,49
 -10 79 -10 79 2 150 c 0,0,1
EndSplineSet
EndChar

StartChar: uni01A9
Encoding: 425 425 363
Width: 600
GlyphClass: 2
Flags: W
LayerCount: 2
Fore
SplineSet
18 0 m 1,0,-1
 32 88 l 1,1,-1
 329 369 l 1,2,-1
 125 646 l 1,3,-1
 139 735 l 1,4,-1
 630 735 l 1,5,-1
 611 617 l 1,6,-1
 308 617 l 1,7,-1
 480 369 l 1,8,-1
 225 116 l 1,9,-1
 535 116 l 1,10,-1
 515 0 l 1,11,-1
 18 0 l 1,0,-1
EndSplineSet
EndChar

StartChar: uni01AA
Encoding: 426 426 364
Width: 425
GlyphClass: 2
Flags: W
LayerCount: 2
Fore
SplineSet
108 593 m 0,0,1
 104 567 104 567 117.5 552.5 c 128,-1,2
 131 538 131 538 151 538 c 0,3,4
 185 538 185 538 211 560 c 1,5,6
 218 601 218 601 207.5 624.5 c 128,-1,7
 197 648 197 648 171 648 c 0,8,9
 148 648 148 648 130 632.5 c 128,-1,10
 112 617 112 617 108 593 c 0,0,1
-6 588 m 0,11,12
 6 661 6 661 60 706 c 128,-1,13
 114 751 114 751 192 751 c 0,14,15
 273 751 273 751 308.5 698 c 128,-1,16
 344 645 344 645 328 551 c 2,17,-1
 232 -30 l 2,18,19
 220 -104 220 -104 280 -104 c 0,20,21
 294 -104 294 -104 352 -96 c 1,22,-1
 333 -210 l 1,23,24
 248 -219 248 -219 235 -219 c 0,25,26
 167 -219 167 -219 129.5 -177 c 128,-1,27
 92 -135 92 -135 108 -39 c 2,28,-1
 190 453 l 1,29,30
 167 433 167 433 115 433 c 0,31,32
 52 433 52 433 17.5 476.5 c 128,-1,33
 -17 520 -17 520 -6 588 c 0,11,12
EndSplineSet
EndChar

StartChar: uni01AB
Encoding: 427 427 365
Width: 348
GlyphClass: 2
Flags: W
LayerCount: 2
Fore
SplineSet
38 427 m 1,0,-1
 57 538 l 1,1,-1
 133 538 l 1,2,-1
 158 694 l 1,3,-1
 281 694 l 1,4,-1
 255 538 l 1,5,-1
 364 538 l 1,6,-1
 345 427 l 1,7,-1
 236 427 l 1,8,-1
 195 177 l 2,9,10
 184 111 184 111 238 111 c 0,11,12
 265 111 265 111 303 117 c 1,13,-1
 286 14 l 2,14,15
 267 -100 267 -100 211.5 -159.5 c 128,-1,16
 156 -219 156 -219 73 -219 c 0,17,18
 32 -219 32 -219 -1 -212 c 1,19,-1
 18 -97 l 1,20,21
 58 -104 58 -104 78 -104 c 0,22,23
 107 -104 107 -104 130.5 -81 c 128,-1,24
 154 -58 154 -58 163 -7 c 1,25,-1
 166 5 l 1,26,27
 129 15 129 15 123 17 c 0,28,29
 52 53 52 53 71 168 c 2,30,-1
 114 427 l 1,31,-1
 38 427 l 1,0,-1
EndSplineSet
EndChar

StartChar: uni01AC
Encoding: 428 428 366
Width: 621
GlyphClass: 2
Flags: W
LayerCount: 2
Fore
SplineSet
11 561 m 0,0,1
 26 651 26 651 91.5 693 c 128,-1,2
 157 735 157 735 244 735 c 2,3,-1
 688 735 l 1,4,-1
 669 618 l 1,5,-1
 465 618 l 1,6,-1
 362 0 l 1,7,-1
 228 0 l 1,8,-1
 330 618 l 1,9,-1
 225 618 l 2,10,11
 183 618 183 618 157.5 599.5 c 128,-1,12
 132 581 132 581 127 551 c 0,13,14
 123 527 123 527 125 499 c 1,15,-1
 8 499 l 1,16,17
 6 529 6 529 11 561 c 0,0,1
EndSplineSet
EndChar

StartChar: uni01AD
Encoding: 429 429 367
Width: 350
GlyphClass: 2
Flags: W
LayerCount: 2
Fore
SplineSet
38 427 m 1,0,-1
 57 538 l 1,1,-1
 133 538 l 1,2,-1
 141 586 l 2,3,4
 155 670 155 670 211.5 715 c 128,-1,5
 268 760 268 760 344 760 c 0,6,7
 387 760 387 760 435 755 c 1,8,-1
 416 640 l 1,9,10
 392 644 392 644 348 644 c 0,11,12
 313 644 313 644 289.5 623.5 c 128,-1,13
 266 603 266 603 260 569 c 2,14,-1
 255 538 l 1,15,-1
 365 538 l 1,16,-1
 347 427 l 1,17,-1
 236 427 l 1,18,-1
 195 177 l 2,19,20
 184 111 184 111 238 111 c 2,21,-1
 295 111 l 1,22,-1
 277 0 l 1,23,-1
 205 0 l 2,24,25
 43 0 43 0 71 168 c 2,26,-1
 114 427 l 1,27,-1
 38 427 l 1,0,-1
EndSplineSet
EndChar

StartChar: uni01AE
Encoding: 430 430 368
Width: 558
GlyphClass: 2
Flags: W
LayerCount: 2
Fore
SplineSet
64 618 m 1,0,-1
 84 735 l 1,1,-1
 625 735 l 1,2,-1
 605 618 l 1,3,-1
 402 618 l 1,4,-1
 299 0 l 2,5,6
 282 -104 282 -104 352 -104 c 0,7,8
 364 -104 364 -104 403 -98 c 1,9,-1
 384 -211 l 1,10,11
 326 -219 326 -219 305 -219 c 0,12,13
 274 -219 274 -219 247.5 -209.5 c 128,-1,14
 221 -200 221 -200 197.5 -177 c 128,-1,15
 174 -154 174 -154 165 -108.5 c 128,-1,16
 156 -63 156 -63 166 0 c 2,17,-1
 268 618 l 1,18,-1
 64 618 l 1,0,-1
EndSplineSet
EndChar

StartChar: uni01B1
Encoding: 433 433 371
Width: 710
GlyphClass: 2
Flags: W
LayerCount: 2
Fore
SplineSet
37 308 m 0,0,1
 54 410 54 410 115.5 484 c 128,-1,2
 177 558 177 558 274 593 c 1,3,-1
 278 618 l 1,4,-1
 101 618 l 1,5,-1
 120 735 l 1,6,-1
 397 735 l 1,7,-1
 361 519 l 1,8,9
 281 498 281 498 235 440.5 c 128,-1,10
 189 383 189 383 177 308 c 0,11,12
 163 223 163 223 202 162.5 c 128,-1,13
 241 102 241 102 325 102 c 0,14,15
 407 102 407 102 468 162 c 128,-1,16
 529 222 529 222 543 308 c 0,17,18
 555 380 555 380 528.5 438.5 c 128,-1,19
 502 497 502 497 429 519 c 1,20,-1
 465 735 l 1,21,-1
 741 735 l 1,22,-1
 721 618 l 1,23,-1
 544 618 l 1,24,-1
 540 593 l 1,25,26
 626 560 626 560 663 485 c 128,-1,27
 700 410 700 410 684 308 c 0,28,29
 660 166 660 166 557.5 75 c 128,-1,30
 455 -16 455 -16 306 -16 c 0,31,32
 158 -16 158 -16 85.5 75 c 128,-1,33
 13 166 13 166 37 308 c 0,0,1
EndSplineSet
EndChar

StartChar: uni01B2
Encoding: 434 434 372
Width: 690
GlyphClass: 2
Flags: W
LayerCount: 2
Fore
SplineSet
64 264 m 2,0,-1
 142 735 l 1,1,-1
 275 735 l 1,2,-1
 200 278 l 2,3,4
 183 176 183 176 206 138 c 128,-1,5
 229 100 229 100 288 100 c 0,6,7
 366 100 366 100 443 190 c 128,-1,8
 520 280 520 280 543 418 c 0,9,10
 561 527 561 527 542.5 581 c 128,-1,11
 524 635 524 635 480 635 c 0,12,13
 446 635 446 635 398 620 c 1,14,-1
 418 741 l 1,15,16
 468 751 468 751 519 751 c 0,17,18
 626 751 626 751 667 665.5 c 128,-1,19
 708 580 708 580 682 420 c 0,20,21
 668 336 668 336 631.5 258 c 128,-1,22
 595 180 595 180 542 119 c 128,-1,23
 489 58 489 58 417.5 21 c 128,-1,24
 346 -16 346 -16 269 -16 c 0,25,26
 139 -16 139 -16 89.5 52.5 c 128,-1,27
 40 121 40 121 64 264 c 2,0,-1
EndSplineSet
EndChar

StartChar: uni01B3
Encoding: 435 435 373
Width: 627
GlyphClass: 2
Flags: W
LayerCount: 2
Fore
SplineSet
73 735 m 1,0,-1
 225 735 l 1,1,-1
 297 513 l 2,2,3
 306 487 306 487 331 402 c 1,4,-1
 335 402 l 1,5,6
 381 475 381 475 408 515 c 2,7,-1
 489 638 l 2,8,9
 562 751 562 751 655 751 c 0,10,11
 686 751 686 751 726 747 c 1,12,-1
 706 631 l 1,13,14
 686 635 686 635 653 635 c 0,15,16
 629 635 629 635 580 566 c 2,17,-1
 383 298 l 1,18,-1
 333 0 l 1,19,-1
 200 0 l 1,20,-1
 249 298 l 1,21,-1
 73 735 l 1,0,-1
EndSplineSet
EndChar

StartChar: uni01B4
Encoding: 436 436 374
Width: 501
GlyphClass: 2
Flags: W
LayerCount: 2
Fore
SplineSet
48 538 m 1,0,-1
 182 538 l 1,1,-1
 219 274 l 2,2,3
 229 174 229 174 233 152 c 1,4,-1
 234 152 l 1,5,6
 261 217 261 217 286 273 c 2,7,-1
 369 458 l 2,8,9
 408 551 408 551 517 551 c 0,10,11
 527 551 527 551 588 542 c 1,12,-1
 568 425 l 1,13,14
 544 434 544 434 522 434 c 0,15,16
 484 434 484 434 467 400 c 2,17,-1
 233 -57 l 2,18,19
 190 -142 190 -142 136.5 -178.5 c 128,-1,20
 83 -215 83 -215 14 -215 c 2,21,-1
 -25 -215 l 1,22,-1
 -7 -106 l 1,23,-1
 11 -106 l 2,24,25
 50 -106 50 -106 78.5 -87.5 c 128,-1,26
 107 -69 107 -69 128 -26 c 2,27,-1
 151 19 l 1,28,-1
 48 538 l 1,0,-1
EndSplineSet
EndChar

StartChar: uni01B5
Encoding: 437 437 375
Width: 585
GlyphClass: 2
Flags: W
LayerCount: 2
Fore
SplineSet
83 309 m 1,0,-1
 100 415 l 1,1,-1
 270 415 l 1,2,-1
 444 618 l 1,3,-1
 110 618 l 1,4,-1
 130 735 l 1,5,-1
 628 735 l 1,6,-1
 612 634 l 1,7,-1
 424 415 l 1,8,-1
 512 415 l 1,9,-1
 494 309 l 1,10,-1
 329 309 l 1,11,-1
 162 116 l 1,12,-1
 536 116 l 1,13,-1
 517 0 l 1,14,-1
 -22 0 l 1,15,-1
 -6 99 l 1,16,-1
 176 309 l 1,17,-1
 83 309 l 1,0,-1
EndSplineSet
EndChar

StartChar: uni01B6
Encoding: 438 438 376
Width: 465
GlyphClass: 2
Flags: W
LayerCount: 2
Fore
SplineSet
-27 0 m 1,0,-1
 -13 86 l 1,1,-1
 109 220 l 1,2,-1
 45 220 l 1,3,-1
 62 327 l 1,4,-1
 207 327 l 1,5,-1
 297 427 l 1,6,-1
 64 427 l 1,7,-1
 82 538 l 1,8,-1
 478 538 l 1,9,-1
 465 456 l 1,10,-1
 346 327 l 1,11,-1
 414 327 l 1,12,-1
 396 220 l 1,13,-1
 250 220 l 1,14,-1
 152 111 l 1,15,-1
 418 111 l 1,16,-1
 400 0 l 1,17,-1
 -27 0 l 1,0,-1
EndSplineSet
EndChar

StartChar: uni01B7
Encoding: 439 439 377
Width: 679
GlyphClass: 2
Flags: W
LayerCount: 2
Fore
SplineSet
-5 5 m 1,0,-1
 118 49 l 1,1,2
 125 -12 125 -12 162 -56 c 128,-1,3
 199 -100 199 -100 271 -100 c 0,4,5
 348 -100 348 -100 403.5 -47.5 c 128,-1,6
 459 5 459 5 473 90 c 0,7,8
 488 178 488 178 442 233 c 128,-1,9
 396 288 396 288 306 288 c 2,10,-1
 199 288 l 1,11,-1
 217 392 l 1,12,-1
 452 618 l 1,13,-1
 130 618 l 1,14,-1
 149 735 l 1,15,-1
 673 735 l 1,16,-1
 660 656 l 1,17,-1
 389 400 l 1,18,-1
 401 398 l 2,19,20
 513 379 513 379 572 297.5 c 128,-1,21
 631 216 631 216 611 90 c 0,22,23
 589 -44 589 -44 489.5 -130 c 128,-1,24
 390 -216 390 -216 256 -216 c 0,25,26
 190 -216 190 -216 140.5 -197 c 128,-1,27
 91 -178 91 -178 62 -144 c 128,-1,28
 33 -110 33 -110 17 -73.5 c 128,-1,29
 1 -37 1 -37 -5 5 c 1,0,-1
EndSplineSet
EndChar

StartChar: uni01B8
Encoding: 440 440 378
Width: 679
GlyphClass: 2
Flags: W
LayerCount: 2
Fore
SplineSet
4 90 m 0,0,1
 25 216 25 216 113 299 c 128,-1,2
 201 382 201 382 317 398 c 2,3,-1
 329 400 l 1,4,-1
 143 656 l 1,5,-1
 156 735 l 1,6,-1
 680 735 l 1,7,-1
 661 618 l 1,8,-1
 338 618 l 1,9,-1
 498 392 l 1,10,-1
 481 288 l 1,11,-1
 375 288 l 2,12,13
 285 288 285 288 221 233 c 128,-1,14
 157 178 157 178 142 90 c 0,15,16
 128 5 128 5 166 -47.5 c 128,-1,17
 204 -100 204 -100 281 -100 c 0,18,19
 354 -100 354 -100 405.5 -56 c 128,-1,20
 457 -12 457 -12 485 49 c 1,21,-1
 594 5 l 1,22,23
 573 -37 573 -37 545 -73.5 c 128,-1,24
 517 -110 517 -110 476.5 -144 c 128,-1,25
 436 -178 436 -178 379.5 -197 c 128,-1,26
 323 -216 323 -216 258 -216 c 0,27,28
 124 -216 124 -216 53 -130 c 128,-1,29
 -18 -44 -18 -44 4 90 c 0,0,1
EndSplineSet
EndChar

StartChar: uni01B9
Encoding: 441 441 379
Width: 554
GlyphClass: 2
Flags: W
LayerCount: 2
Fore
SplineSet
-8 34 m 0,0,1
 7 123 7 123 74.5 192.5 c 128,-1,2
 142 262 142 262 229 273 c 2,3,-1
 236 274 l 1,4,-1
 95 458 l 1,5,-1
 109 538 l 1,6,-1
 532 538 l 1,7,-1
 514 427 l 1,8,-1
 274 427 l 1,9,-1
 390 266 l 1,10,-1
 376 177 l 1,11,-1
 283 177 l 2,12,13
 215 177 215 177 172 136 c 128,-1,14
 129 95 129 95 119 34 c 0,15,16
 109 -26 109 -26 136 -67 c 128,-1,17
 163 -108 163 -108 219 -108 c 0,18,19
 271 -108 271 -108 309.5 -71.5 c 128,-1,20
 348 -35 348 -35 366 14 c 1,21,-1
 471 -16 l 1,22,23
 438 -101 438 -101 366 -160 c 128,-1,24
 294 -219 294 -219 197 -219 c 0,25,26
 87 -219 87 -219 30.5 -146 c 128,-1,27
 -26 -73 -26 -73 -8 34 c 0,0,1
EndSplineSet
EndChar

StartChar: uni01BA
Encoding: 442 442 380
Width: 418
GlyphClass: 2
Flags: W
LayerCount: 2
Fore
SplineSet
-26 -58 m 0,0,1
 -20 -20 -20 -20 9 13.5 c 128,-1,2
 38 47 38 47 74 69 c 128,-1,3
 110 91 110 91 146.5 110.5 c 128,-1,4
 183 130 183 130 209 148 c 128,-1,5
 235 166 235 166 238 184 c 0,6,7
 242 207 242 207 213 221.5 c 128,-1,8
 184 236 184 236 132 236 c 2,9,-1
 99 236 l 1,10,-1
 110 304 l 1,11,-1
 256 427 l 1,12,-1
 57 427 l 1,13,-1
 76 538 l 1,14,-1
 433 538 l 1,15,-1
 419 452 l 1,16,-1
 250 310 l 1,17,-1
 268 309 l 2,18,19
 315 304 315 304 344.5 275.5 c 128,-1,20
 374 247 374 247 364 190 c 0,21,22
 358 153 358 153 330 121.5 c 128,-1,23
 302 90 302 90 266 68 c 128,-1,24
 230 46 230 46 193 26.5 c 128,-1,25
 156 7 156 7 130.5 -12 c 128,-1,26
 105 -31 105 -31 102 -49 c 0,27,28
 94 -95 94 -95 154 -95 c 0,29,30
 195 -95 195 -95 263 -79 c 1,31,-1
 244 -193 l 1,32,33
 162 -206 162 -206 117 -206 c 0,34,35
 42 -206 42 -206 2 -167.5 c 128,-1,36
 -38 -129 -38 -129 -26 -58 c 0,0,1
EndSplineSet
EndChar

StartChar: uni01BB
Encoding: 443 443 381
Width: 537
GlyphClass: 2
Flags: W
LayerCount: 2
Fore
SplineSet
91 299 m 1,0,-1
 109 406 l 1,1,-1
 315 406 l 1,2,3
 381 468 381 468 394 540 c 0,4,5
 402 589 402 589 380 614 c 128,-1,6
 358 639 358 639 325 639 c 0,7,8
 323 639 323 639 322 639 c 0,9,10
 278 638 278 638 245 607 c 128,-1,11
 212 576 212 576 184 514 c 1,12,-1
 78 549 l 1,13,14
 112 638 112 638 179 694.5 c 128,-1,15
 246 751 246 751 345 751 c 0,16,17
 443 751 443 751 494.5 692.5 c 128,-1,18
 546 634 546 634 530 535 c 0,19,20
 519 470 519 470 469 406 c 1,21,-1
 539 406 l 1,22,-1
 521 299 l 1,23,-1
 362 299 l 1,24,25
 354 292 354 292 331 272 c 128,-1,26
 308 252 308 252 298 243.5 c 128,-1,27
 288 235 288 235 268 216 c 128,-1,28
 248 197 248 197 235.5 184 c 128,-1,29
 223 171 223 171 207 151 c 128,-1,30
 191 131 191 131 176 111 c 1,31,-1
 457 111 l 1,32,-1
 438 0 l 1,33,-1
 -4 0 l 1,34,35
 10 82 10 82 61 153.5 c 128,-1,36
 112 225 112 225 192 299 c 1,37,-1
 91 299 l 1,0,-1
EndSplineSet
EndChar

StartChar: uni01BC
Encoding: 444 444 382
Width: 580
GlyphClass: 2
Flags: W
LayerCount: 2
Fore
SplineSet
15 142 m 1,0,-1
 130 181 l 1,1,2
 141 142 141 142 171 118.5 c 128,-1,3
 201 95 201 95 246 95 c 0,4,5
 301 95 301 95 341 131.5 c 128,-1,6
 381 168 381 168 391 228 c 0,7,8
 400 282 400 282 367.5 322 c 128,-1,9
 335 362 335 362 262 362 c 0,10,11
 196 362 196 362 122 343 c 1,12,-1
 204 620 l 1,13,-1
 161 620 l 1,14,-1
 180 735 l 1,15,-1
 577 735 l 1,16,-1
 558 618 l 1,17,-1
 327 618 l 1,18,-1
 284 470 l 1,19,20
 301 473 301 473 331 473 c 0,21,22
 437 473 437 473 492.5 405.5 c 128,-1,23
 548 338 548 338 530 232 c 0,24,25
 522 185 522 185 500 142.5 c 128,-1,26
 478 100 478 100 442 63.5 c 128,-1,27
 406 27 406 27 351.5 5.5 c 128,-1,28
 297 -16 297 -16 233 -16 c 0,29,30
 143 -16 143 -16 86 28.5 c 128,-1,31
 29 73 29 73 15 142 c 1,0,-1
EndSplineSet
EndChar

StartChar: uni01BD
Encoding: 445 445 383
Width: 459
GlyphClass: 2
Flags: W
LayerCount: 2
Fore
SplineSet
8 114 m 1,0,-1
 115 159 l 1,1,2
 122 130 122 130 141.5 112 c 128,-1,3
 161 94 161 94 187 94 c 0,4,5
 222 94 222 94 247 115 c 128,-1,6
 272 136 272 136 278 171 c 0,7,8
 283 201 283 201 262.5 226.5 c 128,-1,9
 242 252 242 252 197 252 c 0,10,11
 144 252 144 252 82 240 c 1,12,-1
 141 428 l 1,13,-1
 111 428 l 1,14,-1
 129 538 l 1,15,-1
 427 538 l 1,16,-1
 409 427 l 1,17,-1
 247 427 l 1,18,-1
 226 362 l 1,19,-1
 249 363 l 2,20,21
 332 363 332 363 375 309.5 c 128,-1,22
 418 256 418 256 405 177 c 0,23,24
 392 100 392 100 332 42 c 128,-1,25
 272 -16 272 -16 169 -16 c 0,26,27
 44 -16 44 -16 8 114 c 1,0,-1
EndSplineSet
EndChar

StartChar: uni01BE
Encoding: 446 446 384
Width: 421
GlyphClass: 2
Flags: W
LayerCount: 2
Fore
SplineSet
42 427 m 1,0,-1
 60 538 l 1,1,-1
 132 538 l 1,2,-1
 158 692 l 1,3,-1
 280 692 l 1,4,-1
 255 538 l 1,5,-1
 362 538 l 1,6,-1
 344 427 l 1,7,-1
 236 427 l 1,8,-1
 232 404 l 2,9,10
 227 373 227 373 242 351 c 128,-1,11
 257 329 257 329 280.5 313.5 c 128,-1,12
 304 298 304 298 326.5 280 c 128,-1,13
 349 262 349 262 363 230 c 128,-1,14
 377 198 377 198 369 153 c 0,15,16
 358 85 358 85 306.5 34.5 c 128,-1,17
 255 -16 255 -16 162 -16 c 0,18,19
 41 -16 41 -16 -3 106 c 1,20,-1
 94 156 l 1,21,22
 109 125 109 125 127 110 c 128,-1,23
 145 95 145 95 176 95 c 0,24,25
 204 95 204 95 222.5 110 c 128,-1,26
 241 125 241 125 245 149 c 0,27,28
 248 169 248 169 237.5 184.5 c 128,-1,29
 227 200 227 200 209.5 210.5 c 128,-1,30
 192 221 192 221 171 236 c 128,-1,31
 150 251 150 251 133.5 268.5 c 128,-1,32
 117 286 117 286 109 318 c 128,-1,33
 101 350 101 350 108 392 c 2,34,-1
 114 427 l 1,35,-1
 42 427 l 1,0,-1
EndSplineSet
EndChar

StartChar: uni01BF
Encoding: 447 447 385
Width: 539
GlyphClass: 2
Flags: W
LayerCount: 2
Fore
SplineSet
-23 -215 m 1,0,-1
 102 538 l 1,1,-1
 221 538 l 1,2,-1
 214 496 l 1,3,4
 275 554 275 554 358 554 c 0,5,6
 455 554 455 554 496.5 494.5 c 128,-1,7
 538 435 538 435 523 341 c 0,8,9
 476 59 476 59 135 2 c 1,10,-1
 99 -215 l 1,11,-1
 -23 -215 l 1,0,-1
153 110 m 1,12,13
 239 122 239 122 310 178 c 128,-1,14
 381 234 381 234 396 324 c 0,15,16
 406 385 406 385 385.5 414 c 128,-1,17
 365 443 365 443 325 443 c 0,18,19
 288 443 288 443 252 422 c 128,-1,20
 216 401 216 401 196 371 c 1,21,-1
 153 110 l 1,12,13
EndSplineSet
EndChar

StartChar: uni01C0
Encoding: 448 448 386
Width: 252
GlyphClass: 2
Flags: W
LayerCount: 2
Fore
SplineSet
-12 -198 m 1,0,-1
 156 813 l 1,1,-1
 271 813 l 1,2,-1
 104 -198 l 1,3,-1
 -12 -198 l 1,0,-1
EndSplineSet
EndChar

StartChar: uni01C1
Encoding: 449 449 387
Width: 448
GlyphClass: 2
Flags: W
LayerCount: 2
Fore
SplineSet
-12 -198 m 1,0,-1
 156 813 l 1,1,-1
 271 813 l 1,2,-1
 104 -198 l 1,3,-1
 -12 -198 l 1,0,-1
186 -198 m 1,4,-1
 354 813 l 1,5,-1
 468 813 l 1,6,-1
 301 -198 l 1,7,-1
 186 -198 l 1,4,-1
EndSplineSet
EndChar

StartChar: uni01C2
Encoding: 450 450 388
Width: 358
GlyphClass: 2
Flags: W
LayerCount: 2
Fore
SplineSet
33 408 m 1,0,-1
 48 498 l 1,1,-1
 158 498 l 1,2,-1
 210 813 l 1,3,-1
 328 813 l 1,4,-1
 276 498 l 1,5,-1
 382 498 l 1,6,-1
 367 408 l 1,7,-1
 261 408 l 1,8,-1
 241 288 l 1,9,-1
 348 288 l 1,10,-1
 332 196 l 1,11,-1
 226 196 l 1,12,-1
 160 -198 l 1,13,-1
 43 -198 l 1,14,-1
 108 196 l 1,15,-1
 -2 196 l 1,16,-1
 13 288 l 1,17,-1
 123 288 l 1,18,-1
 143 408 l 1,19,-1
 33 408 l 1,0,-1
EndSplineSet
EndChar

StartChar: uni01DD
Encoding: 477 477 415
Width: 526
GlyphClass: 2
Flags: W
LayerCount: 2
Fore
SplineSet
23 265 m 0,0,1
 27 289 27 289 34 314 c 1,2,-1
 380 314 l 1,3,4
 389 370 389 370 363 410 c 128,-1,5
 337 450 337 450 280 450 c 0,6,7
 240 450 240 450 206 428 c 128,-1,8
 172 406 172 406 151 374 c 1,9,-1
 55 414 l 1,10,11
 90 473 90 473 153 513.5 c 128,-1,12
 216 554 216 554 300 554 c 0,13,14
 408 554 408 554 463 475.5 c 128,-1,15
 518 397 518 397 497 267 c 0,16,17
 475 136 475 136 394 60 c 128,-1,18
 313 -16 313 -16 212 -16 c 0,19,20
 113 -16 113 -16 57.5 62 c 128,-1,21
 2 140 2 140 23 265 c 0,0,1
141 224 m 1,22,23
 132 167 132 167 154.5 127 c 128,-1,24
 177 87 177 87 229 87 c 0,25,26
 279 87 279 87 316 127 c 128,-1,27
 353 167 353 167 365 224 c 1,28,-1
 141 224 l 1,22,23
EndSplineSet
EndChar

StartChar: uni01E4
Encoding: 484 484 422
Width: 708
GlyphClass: 2
Flags: W
LayerCount: 2
Fore
SplineSet
47 368 m 0,0,1
 74 530 74 530 179.5 640.5 c 128,-1,2
 285 751 285 751 440 751 c 0,3,4
 495 751 495 751 539.5 732.5 c 128,-1,5
 584 714 584 714 610.5 684 c 128,-1,6
 637 654 637 654 652 626 c 128,-1,7
 667 598 667 598 675 570 c 1,8,-1
 554 532 l 1,9,10
 527 584 527 584 505 604 c 0,11,12
 471 635 471 635 421 635 c 0,13,14
 332 635 332 635 268 563 c 128,-1,15
 204 491 204 491 184 368 c 0,16,17
 164 247 164 247 203.5 173.5 c 128,-1,18
 243 100 243 100 323 100 c 0,19,20
 412 100 412 100 466 166 c 1,21,-1
 302 166 l 1,22,-1
 316 250 l 1,23,-1
 510 250 l 1,24,25
 514 268 514 268 516 277 c 2,26,-1
 520 303 l 1,27,-1
 351 303 l 1,28,-1
 370 415 l 1,29,-1
 668 415 l 1,30,-1
 641 250 l 1,31,-1
 696 250 l 1,32,-1
 683 166 l 1,33,-1
 627 166 l 1,34,-1
 599 0 l 1,35,-1
 508 0 l 1,36,-1
 506 66 l 1,37,38
 435 -16 435 -16 303 -16 c 0,39,40
 168 -16 168 -16 93 87.5 c 128,-1,41
 18 191 18 191 47 368 c 0,0,1
EndSplineSet
EndChar

StartChar: uni01E5
Encoding: 485 485 423
Width: 539
GlyphClass: 2
Flags: W
LayerCount: 2
Fore
SplineSet
33 299 m 256,0,1
 52 414 52 414 124 484 c 128,-1,2
 196 554 196 554 288 554 c 0,3,4
 332 554 332 554 358.5 531.5 c 128,-1,5
 385 509 385 509 393 486 c 1,6,-1
 401 538 l 1,7,-1
 524 538 l 1,8,-1
 452 106 l 2,9,10
 443 52 443 52 435 18 c 1,11,-1
 493 18 l 1,12,-1
 481 -58 l 1,13,-1
 411 -58 l 1,14,15
 375 -137 375 -137 317 -178 c 128,-1,16
 259 -219 259 -219 167 -219 c 0,17,18
 39 -219 39 -219 -18 -113 c 1,19,-1
 73 -53 l 1,20,21
 109 -115 109 -115 186 -115 c 0,22,23
 242 -115 242 -115 285 -58 c 1,24,-1
 128 -58 l 1,25,-1
 140 18 l 1,26,-1
 313 18 l 1,27,28
 319 40 319 40 325 71 c 2,29,-1
 331 109 l 1,30,31
 310 82 310 82 274.5 65 c 128,-1,32
 239 48 239 48 205 48 c 0,33,34
 114 48 114 48 64 116 c 128,-1,35
 14 184 14 184 33 299 c 256,0,1
158 299 m 0,36,37
 147 233 147 233 171.5 196.5 c 128,-1,38
 196 160 196 160 236 160 c 0,39,40
 279 160 279 160 314 198 c 128,-1,41
 349 236 349 236 360 302 c 0,42,43
 371 367 371 367 349.5 405 c 128,-1,44
 328 443 328 443 284 443 c 0,45,46
 240 443 240 443 204 402.5 c 128,-1,47
 168 362 168 362 158 299 c 0,36,37
EndSplineSet
EndChar

StartChar: uni01EF
Encoding: 495 495 433
Width: 554
GlyphClass: 2
Flags: W
LayerCount: 2
Fore
SplineSet
164 787 m 1,0,-1
 284 787 l 1,1,-1
 344 689 l 1,2,-1
 437 787 l 1,3,-1
 556 787 l 1,4,-1
 385 623 l 1,5,-1
 279 623 l 1,6,-1
 164 787 l 1,0,-1
-15 -16 m 1,7,-1
 101 14 l 1,8,9
 102 -35 102 -35 128.5 -71.5 c 128,-1,10
 155 -108 155 -108 207 -108 c 0,11,12
 263 -108 263 -108 303.5 -67 c 128,-1,13
 344 -26 344 -26 354 35 c 0,14,15
 364 95 364 95 335 136 c 128,-1,16
 306 177 306 177 236 177 c 2,17,-1
 145 177 l 1,18,-1
 160 266 l 1,19,-1
 330 427 l 1,20,-1
 89 427 l 1,21,-1
 107 538 l 1,22,-1
 532 538 l 1,23,-1
 518 458 l 1,24,-1
 316 273 l 1,25,-1
 353 265 l 1,26,27
 420 245 420 245 457 182 c 128,-1,28
 494 119 494 119 480 35 c 0,29,30
 462 -73 462 -73 382.5 -146 c 128,-1,31
 303 -219 303 -219 192 -219 c 0,32,33
 94 -219 94 -219 42 -160.5 c 128,-1,34
 -10 -102 -10 -102 -15 -16 c 1,7,-1
EndSplineSet
EndChar

StartChar: uni01F6
Encoding: 502 502 440
Width: 963
GlyphClass: 2
Flags: W
LayerCount: 2
Fore
SplineSet
23 0 m 1,0,-1
 145 735 l 1,1,-1
 278 735 l 1,2,-1
 229 436 l 1,3,-1
 498 436 l 1,4,-1
 548 735 l 1,5,-1
 681 735 l 1,6,-1
 594 208 l 2,7,8
 575 95 575 95 665 95 c 0,9,10
 702 95 702 95 731 123.5 c 128,-1,11
 760 152 760 152 767 195 c 2,12,-1
 824 538 l 1,13,-1
 957 538 l 1,14,-1
 897 179 l 2,15,16
 881 81 881 81 810 32.5 c 128,-1,17
 739 -16 739 -16 647 -16 c 0,18,19
 604 -16 604 -16 567 -6 c 128,-1,20
 530 4 530 4 501 25.5 c 128,-1,21
 472 47 472 47 459.5 86.5 c 128,-1,22
 447 126 447 126 456 180 c 2,23,-1
 479 320 l 1,24,-1
 209 320 l 1,25,-1
 156 0 l 1,26,-1
 23 0 l 1,0,-1
EndSplineSet
EndChar

StartChar: uni01F7
Encoding: 503 503 441
Width: 624
GlyphClass: 2
Flags: W
LayerCount: 2
Fore
SplineSet
-11 -213 m 1,0,-1
 146 735 l 1,1,-1
 279 735 l 1,2,-1
 269 673 l 1,3,4
 365 751 365 751 457 751 c 0,5,6
 564 751 564 751 605.5 683 c 128,-1,7
 647 615 647 615 627 492 c 0,8,9
 615 422 615 422 579.5 355 c 128,-1,10
 544 288 544 288 496 235.5 c 128,-1,11
 448 183 448 183 388 136 c 128,-1,12
 328 89 328 89 271 57 c 128,-1,13
 214 25 214 25 157 1 c 1,14,-1
 122 -213 l 1,15,-1
 -11 -213 l 1,0,-1
179 131 m 1,16,17
 286 184 286 184 378.5 280.5 c 128,-1,18
 471 377 471 377 489 486 c 0,19,20
 501 560 501 560 480 597.5 c 128,-1,21
 459 635 459 635 408 635 c 0,22,23
 370 635 370 635 326 608.5 c 128,-1,24
 282 582 282 582 247 541 c 1,25,-1
 179 131 l 1,16,17
EndSplineSet
EndChar

StartChar: Aringacute
Encoding: 506 506 444
Width: 651
GlyphClass: 2
Flags: W
LayerCount: 2
Fore
SplineSet
-51 0 m 1,0,-1
 325 728 l 1,1,2
 313 736 313 736 302 748 c 0,3,4
 265 787 265 787 275 846 c 0,5,6
 284 903 284 903 332 944 c 0,7,8
 360 968 360 968 394 977 c 1,9,-1
 496 1106 l 1,10,-1
 647 1106 l 1,11,-1
 503 972 l 1,12,13
 524 962 524 962 540 943 c 0,14,15
 573 902 573 902 564 846 c 0,16,17
 554 787 554 787 505 748 c 0,18,19
 489 735 489 735 473 726 c 1,20,-1
 608 0 l 1,21,-1
 467 0 l 1,22,-1
 441 173 l 1,23,-1
 174 173 l 1,24,-1
 91 0 l 1,25,-1
 -51 0 l 1,0,-1
226 282 m 1,26,-1
 424 282 l 1,27,-1
 400 456 l 2,28,29
 392 516 392 516 381 603 c 1,30,-1
 377 603 l 1,31,32
 365 577 365 577 341.5 527 c 128,-1,33
 318 477 318 477 309 456 c 2,34,-1
 226 282 l 1,26,-1
363 846 m 0,35,36
 359 822 359 822 372.5 805.5 c 128,-1,37
 386 789 386 789 410 789 c 0,38,39
 434 789 434 789 452.5 805 c 128,-1,40
 471 821 471 821 476 846 c 256,41,42
 480 871 480 871 467 887.5 c 128,-1,43
 454 904 454 904 429 904 c 256,44,45
 405 904 405 904 386 887.5 c 128,-1,46
 367 871 367 871 363 846 c 0,35,36
EndSplineSet
EndChar

StartChar: aringacute
Encoding: 507 507 445
Width: 511
GlyphClass: 2
Flags: W
LayerCount: 2
Fore
SplineSet
3 144 m 0,0,1
 15 218 15 218 76.5 265.5 c 128,-1,2
 138 313 138 313 245 330 c 0,3,4
 330 344 330 344 353 351 c 1,5,-1
 357 379 l 2,6,7
 363 415 363 415 342 433.5 c 128,-1,8
 321 452 321 452 281 452 c 0,9,10
 202 452 202 452 130 383 c 1,11,-1
 68 450 l 1,12,13
 167 554 167 554 297 554 c 0,14,15
 412 554 412 554 451 496 c 128,-1,16
 490 438 490 438 472 331 c 2,17,-1
 418 0 l 1,18,-1
 298 0 l 1,19,-1
 308 61 l 1,20,21
 287 29 287 29 245.5 6.5 c 128,-1,22
 204 -16 204 -16 156 -16 c 0,23,24
 73 -16 73 -16 32 28.5 c 128,-1,25
 -9 73 -9 73 3 144 c 0,0,1
194 730 m 0,26,27
 203 787 203 787 250 828 c 0,28,29
 277 851 277 851 309 861 c 1,30,-1
 408 990 l 1,31,-1
 554 990 l 1,32,-1
 415 856 l 1,33,34
 436 846 436 846 450 827 c 0,35,36
 482 786 482 786 473 730 c 0,37,38
 463 671 463 671 416 631.5 c 128,-1,39
 369 592 369 592 311 592 c 256,40,41
 253 592 253 592 218.5 631.5 c 128,-1,42
 184 671 184 671 194 730 c 0,26,27
131 155 m 0,43,44
 127 129 127 129 143 110.5 c 128,-1,45
 159 92 159 92 192 92 c 0,46,47
 241 92 241 92 281 127 c 128,-1,48
 321 162 321 162 331 218 c 2,49,-1
 338 260 l 1,50,51
 302 251 302 251 247 243 c 0,52,53
 143 226 143 226 131 155 c 0,43,44
278 730 m 0,54,55
 274 706 274 706 287 689.5 c 128,-1,56
 300 673 300 673 325 673 c 0,57,58
 347 673 347 673 365 689 c 128,-1,59
 383 705 383 705 387 730 c 256,60,61
 391 755 391 755 378.5 771.5 c 128,-1,62
 366 788 366 788 344 788 c 0,63,64
 319 788 319 788 300.5 771.5 c 128,-1,65
 282 755 282 755 278 730 c 0,54,55
EndSplineSet
EndChar

StartChar: uni021C
Encoding: 540 540 478
Width: 560
GlyphClass: 2
Flags: W
LayerCount: 2
Fore
SplineSet
-29 -79 m 1,0,1
 42 -97 42 -97 125 -97 c 0,2,3
 213 -97 213 -97 276 -46 c 128,-1,4
 339 5 339 5 352 89 c 0,5,6
 367 181 367 181 332.5 222.5 c 128,-1,7
 298 264 298 264 240 264 c 0,8,9
 186 264 186 264 119 239 c 1,10,-1
 138 357 l 1,11,-1
 252 381 l 2,12,13
 314 394 314 394 358.5 430 c 128,-1,14
 403 466 403 466 412 522 c 0,15,16
 420 571 420 571 394 602 c 128,-1,17
 368 633 368 633 312 633 c 0,18,19
 269 633 269 633 239.5 613 c 128,-1,20
 210 593 210 593 181 551 c 1,21,-1
 86 602 l 1,22,23
 124 672 124 672 190 711.5 c 128,-1,24
 256 751 256 751 334 751 c 0,25,26
 458 751 458 751 514.5 692.5 c 128,-1,27
 571 634 571 634 555 539 c 0,28,29
 542 458 542 458 496 405 c 128,-1,30
 450 352 450 352 395 329 c 1,31,-1
 395 328 l 1,32,33
 448 307 448 307 478 244 c 128,-1,34
 508 181 508 181 492 85 c 0,35,36
 468 -58 468 -58 361 -137 c 128,-1,37
 254 -216 254 -216 105 -216 c 0,38,39
 33 -216 33 -216 -49 -200 c 1,40,-1
 -29 -79 l 1,0,1
EndSplineSet
EndChar

StartChar: uni021D
Encoding: 541 541 479
Width: 424
GlyphClass: 2
Flags: W
LayerCount: 2
Fore
SplineSet
-39 -94 m 1,0,1
 19 -108 19 -108 79 -108 c 0,2,3
 136 -108 136 -108 176 -74.5 c 128,-1,4
 216 -41 216 -41 226 23 c 0,5,6
 236 81 236 81 213.5 114.5 c 128,-1,7
 191 148 191 148 152 148 c 0,8,9
 118 148 118 148 71 131 c 1,10,-1
 89 241 l 1,11,-1
 172 259 l 2,12,13
 214 268 214 268 242 296 c 128,-1,14
 270 324 270 324 276 362 c 0,15,16
 282 399 282 399 269 421 c 128,-1,17
 256 443 256 443 228 443 c 0,18,19
 172 443 172 443 140 376 c 1,20,-1
 51 414 l 1,21,22
 74 474 74 474 126.5 514 c 128,-1,23
 179 554 179 554 254 554 c 0,24,25
 334 554 334 554 374.5 502 c 128,-1,26
 415 450 415 450 403 381 c 0,27,28
 384 265 384 265 285 211 c 1,29,30
 321 195 321 195 342 144.5 c 128,-1,31
 363 94 363 94 352 27 c 0,32,33
 332 -93 332 -93 256.5 -156 c 128,-1,34
 181 -219 181 -219 62 -219 c 0,35,36
 20 -219 20 -219 -58 -208 c 1,37,-1
 -39 -94 l 1,0,1
EndSplineSet
EndChar

StartChar: uni0220
Encoding: 544 544 482
Width: 671
GlyphClass: 2
Flags: W
LayerCount: 2
Fore
SplineSet
23 0 m 1,0,-1
 145 735 l 1,1,-1
 271 735 l 1,2,-1
 258 656 l 1,3,-1
 259 656 l 1,4,5
 355 751 355 751 471 751 c 0,6,7
 682 751 682 751 638 486 c 2,8,-1
 522 -215 l 1,9,-1
 388 -215 l 1,10,-1
 503 477 l 2,11,12
 529 635 529 635 417 635 c 0,13,14
 353 635 353 635 298 579 c 128,-1,15
 243 523 243 523 230 446 c 2,16,-1
 156 0 l 1,17,-1
 23 0 l 1,0,-1
EndSplineSet
EndChar

StartChar: uni0221
Encoding: 545 545 483
Width: 694
GlyphClass: 2
Flags: W
LayerCount: 2
Fore
SplineSet
441 -75 m 1,0,1
 444 -98 444 -98 458 -112.5 c 128,-1,2
 472 -127 472 -127 496 -127 c 0,3,4
 516 -127 516 -127 530 -116 c 128,-1,5
 544 -105 544 -105 547 -89 c 256,6,7
 550 -73 550 -73 538.5 -60 c 128,-1,8
 527 -47 527 -47 505 -47 c 0,9,10
 472 -47 472 -47 441 -75 c 1,0,1
26 269 m 0,11,12
 48 403 48 403 121.5 478.5 c 128,-1,13
 195 554 195 554 291 554 c 0,14,15
 333 554 333 554 361 534.5 c 128,-1,16
 389 515 389 515 401 488 c 1,17,-1
 446 759 l 1,18,-1
 568 759 l 1,19,-1
 454 73 l 2,20,21
 448 36 448 36 448 26 c 1,22,23
 484 47 484 47 524 47 c 0,24,25
 587 47 587 47 620.5 8.5 c 128,-1,26
 654 -30 654 -30 644 -86 c 0,27,28
 634 -147 634 -147 590 -183 c 128,-1,29
 546 -219 546 -219 482 -219 c 0,30,31
 419 -219 419 -219 378 -171 c 1,32,33
 369 -184 369 -184 350 -222 c 1,34,-1
 255 -181 l 1,35,36
 296 -109 296 -109 325 -74 c 1,37,38
 319 -37 319 -37 326 31 c 1,39,-1
 331 60 l 1,40,41
 313 33 313 33 276.5 8.5 c 128,-1,42
 240 -16 240 -16 195 -16 c 0,43,44
 154 -16 154 -16 120 0 c 128,-1,45
 86 16 86 16 59 48 c 128,-1,46
 32 80 32 80 23 137 c 128,-1,47
 14 194 14 194 26 269 c 0,11,12
152 269 m 0,48,49
 138 185 138 185 160 140 c 128,-1,50
 182 95 182 95 230 95 c 256,51,52
 278 95 278 95 315 141.5 c 128,-1,53
 352 188 352 188 365 269 c 0,54,55
 378 347 378 347 358 395 c 128,-1,56
 338 443 338 443 288 443 c 256,57,58
 238 443 238 443 202 397 c 128,-1,59
 166 351 166 351 152 269 c 0,48,49
EndSplineSet
EndChar

StartChar: uni0222
Encoding: 546 546 484
Width: 699
GlyphClass: 2
Flags: W
LayerCount: 2
Fore
SplineSet
26 246 m 0,0,1
 37 310 37 310 79 367.5 c 128,-1,2
 121 425 121 425 193 464 c 1,3,4
 150 490 150 490 128.5 530 c 128,-1,5
 107 570 107 570 118 638 c 0,6,7
 128 698 128 698 150 735 c 1,8,-1
 281 735 l 1,9,10
 266 697 266 697 258 647 c 0,11,12
 249 593 249 593 283.5 552.5 c 128,-1,13
 318 512 318 512 389 512 c 0,14,15
 459 512 459 512 506.5 553 c 128,-1,16
 554 594 554 594 563 647 c 0,17,18
 569 683 569 683 569 735 c 1,19,-1
 700 735 l 1,20,21
 709 697 709 697 700 638 c 0,22,23
 689 569 689 569 654 529.5 c 128,-1,24
 619 490 619 490 567 464 c 1,25,26
 626 425 626 425 649.5 367.5 c 128,-1,27
 673 310 673 310 663 246 c 0,28,29
 655 199 655 199 629 154.5 c 128,-1,30
 603 110 603 110 560 70.5 c 128,-1,31
 517 31 517 31 450 7.5 c 128,-1,32
 383 -16 383 -16 302 -16 c 256,33,34
 221 -16 221 -16 160.5 7.5 c 128,-1,35
 100 31 100 31 70 70.5 c 128,-1,36
 40 110 40 110 29 154.5 c 128,-1,37
 18 199 18 199 26 246 c 0,0,1
165 246 m 0,38,39
 154 178 154 178 197 139 c 128,-1,40
 240 100 240 100 321 100 c 0,41,42
 399 100 399 100 455.5 139 c 128,-1,43
 512 178 512 178 523 246 c 0,44,45
 534 312 534 312 489 353 c 128,-1,46
 444 394 444 394 369 394 c 0,47,48
 293 394 293 394 234.5 353.5 c 128,-1,49
 176 313 176 313 165 246 c 0,38,39
EndSplineSet
EndChar

StartChar: uni0223
Encoding: 547 547 485
Width: 524
GlyphClass: 2
Flags: W
LayerCount: 2
Fore
SplineSet
22 248 m 0,0,1
 35 324 35 324 72.5 380.5 c 128,-1,2
 110 437 110 437 164 465 c 1,3,4
 86 519 86 519 107 643 c 0,5,6
 115 693 115 693 138 740 c 1,7,-1
 259 740 l 1,8,9
 241 688 241 688 235 652 c 0,10,11
 212 515 212 515 301 515 c 256,12,13
 389 515 389 515 412 652 c 0,14,15
 417 684 417 684 416 740 c 1,16,-1
 535 740 l 1,17,18
 544 695 544 695 535 643 c 0,19,20
 514 516 514 516 421 465 c 1,21,22
 465 438 465 438 484.5 381 c 128,-1,23
 504 324 504 324 491 248 c 0,24,25
 485 210 485 210 471.5 174.5 c 128,-1,26
 458 139 458 139 435 103.5 c 128,-1,27
 412 68 412 68 382 42 c 128,-1,28
 352 16 352 16 308 0 c 128,-1,29
 264 -16 264 -16 213 -16 c 0,30,31
 151 -16 151 -16 107 7.5 c 128,-1,32
 63 31 63 31 44 71 c 128,-1,33
 25 111 25 111 19.5 155.5 c 128,-1,34
 14 200 14 200 22 248 c 0,0,1
148 248 m 256,35,36
 137 180 137 180 160 137.5 c 128,-1,37
 183 95 183 95 231 95 c 0,38,39
 280 95 280 95 317 137 c 128,-1,40
 354 179 354 179 365 248 c 0,41,42
 376 316 376 316 353.5 359 c 128,-1,43
 331 402 331 402 282 402 c 0,44,45
 234 402 234 402 196.5 359 c 128,-1,46
 159 316 159 316 148 248 c 256,35,36
EndSplineSet
EndChar

StartChar: uni0224
Encoding: 548 548 486
Width: 589
GlyphClass: 2
Flags: W
LayerCount: 2
Fore
SplineSet
-22 0 m 1,0,-1
 -6 99 l 1,1,-1
 444 618 l 1,2,-1
 110 618 l 1,3,-1
 130 735 l 1,4,-1
 628 735 l 1,5,-1
 612 634 l 1,6,-1
 162 116 l 1,7,-1
 416 116 l 2,8,9
 587 116 587 116 554 -79 c 0,10,11
 542 -149 542 -149 504 -215 c 1,12,-1
 383 -215 l 1,13,14
 425 -153 425 -153 434 -98 c 0,15,16
 441 -58 441 -58 424.5 -29 c 128,-1,17
 408 0 408 0 362 0 c 2,18,-1
 -22 0 l 1,0,-1
EndSplineSet
EndChar

StartChar: uni0225
Encoding: 549 549 487
Width: 459
GlyphClass: 2
Flags: W
LayerCount: 2
Fore
SplineSet
-27 0 m 1,0,-1
 -13 86 l 1,1,-1
 298 428 l 1,2,-1
 64 428 l 1,3,-1
 82 540 l 1,4,-1
 478 540 l 1,5,-1
 465 458 l 1,6,-1
 152 111 l 1,7,-1
 325 111 l 2,8,9
 487 111 487 111 456 -77 c 0,10,11
 441 -166 441 -166 412 -215 c 1,12,-1
 305 -215 l 1,13,14
 333 -173 333 -173 345 -100 c 0,15,16
 353 -52 353 -52 339 -26 c 128,-1,17
 325 0 325 0 279 0 c 2,18,-1
 -27 0 l 1,0,-1
EndSplineSet
EndChar

StartChar: uni0234
Encoding: 564 564 502
Width: 389
GlyphClass: 2
Flags: W
LayerCount: 2
Fore
SplineSet
139 -74 m 1,0,1
 139 -96 139 -96 154 -111.5 c 128,-1,2
 169 -127 169 -127 193 -127 c 0,3,4
 214 -127 214 -127 227 -116 c 128,-1,5
 240 -105 240 -105 243 -89 c 256,6,7
 246 -73 246 -73 234 -60 c 128,-1,8
 222 -47 222 -47 201 -47 c 0,9,10
 170 -47 170 -47 139 -74 c 1,0,1
-48 -181 m 1,11,12
 5 -93 5 -93 22 -74 c 1,13,14
 12 -27 12 -27 23 42 c 2,15,-1
 142 759 l 1,16,-1
 265 759 l 1,17,-1
 151 72 l 2,18,19
 145 34 145 34 145 26 c 1,20,21
 182 47 182 47 221 47 c 0,22,23
 283 47 283 47 316 9 c 128,-1,24
 349 -29 349 -29 340 -86 c 0,25,26
 330 -147 330 -147 286 -183 c 128,-1,27
 242 -219 242 -219 178 -219 c 0,28,29
 115 -219 115 -219 74 -171 c 1,30,31
 59 -191 59 -191 45 -222 c 1,32,-1
 -48 -181 l 1,11,12
EndSplineSet
EndChar

StartChar: uni0235
Encoding: 565 565 503
Width: 679
GlyphClass: 2
Flags: W
LayerCount: 2
Fore
SplineSet
429 -74 m 1,0,1
 430 -98 430 -98 445 -112.5 c 128,-1,2
 460 -127 460 -127 483 -127 c 0,3,4
 504 -127 504 -127 517 -116.5 c 128,-1,5
 530 -106 530 -106 533 -89 c 0,6,7
 535 -74 535 -74 524.5 -60.5 c 128,-1,8
 514 -47 514 -47 492 -47 c 0,9,10
 460 -47 460 -47 429 -74 c 1,0,1
8 0 m 1,11,-1
 97 538 l 1,12,-1
 214 538 l 1,13,-1
 204 478 l 1,14,-1
 205 478 l 1,15,16
 225 507 225 507 263.5 530.5 c 128,-1,17
 302 554 302 554 354 554 c 0,18,19
 520 554 520 554 486 345 c 2,20,-1
 440 68 l 2,21,22
 437 53 437 53 435 43 c 0,23,24
 433 32 433 32 433 26 c 1,25,26
 468 47 468 47 510 47 c 0,27,28
 572 47 572 47 605.5 9 c 128,-1,29
 639 -29 639 -29 630 -86 c 0,30,31
 620 -147 620 -147 576 -183 c 128,-1,32
 532 -219 532 -219 467 -219 c 0,33,34
 406 -219 406 -219 365 -170 c 1,35,36
 344 -206 344 -206 336 -222 c 1,37,-1
 242 -181 l 1,38,39
 269 -127 269 -127 311 -74 c 1,40,41
 302 -27 302 -27 314 44 c 2,42,-1
 361 330 l 2,43,44
 380 443 380 443 308 443 c 0,45,46
 263 443 263 443 227 404.5 c 128,-1,47
 191 366 191 366 182 309 c 2,48,-1
 131 0 l 1,49,-1
 8 0 l 1,11,-1
EndSplineSet
EndChar

StartChar: uni0236
Encoding: 566 566 504
Width: 421
GlyphClass: 2
Flags: W
LayerCount: 2
Fore
SplineSet
165 -74 m 1,0,1
 165 -94 165 -94 180 -110.5 c 128,-1,2
 195 -127 195 -127 219 -127 c 0,3,4
 241 -127 241 -127 254.5 -116 c 128,-1,5
 268 -105 268 -105 271 -89 c 0,6,7
 273 -75 273 -75 261.5 -61 c 128,-1,8
 250 -47 250 -47 228 -47 c 0,9,10
 197 -47 197 -47 165 -74 c 1,0,1
38 427 m 1,11,-1
 57 538 l 1,12,-1
 133 538 l 1,13,-1
 158 694 l 1,14,-1
 281 694 l 1,15,-1
 255 538 l 1,16,-1
 365 538 l 1,17,-1
 347 427 l 1,18,-1
 236 427 l 1,19,-1
 170 26 l 1,20,21
 205 47 205 47 247 47 c 0,22,23
 310 47 310 47 343 9 c 128,-1,24
 376 -29 376 -29 366 -86 c 0,25,26
 356 -147 356 -147 312.5 -183 c 128,-1,27
 269 -219 269 -219 205 -219 c 0,28,29
 141 -219 141 -219 101 -171 c 1,30,31
 83 -195 83 -195 71 -222 c 1,32,-1
 -22 -181 l 1,33,34
 18 -109 18 -109 48 -74 c 1,35,36
 39 -29 39 -29 51 44 c 2,37,-1
 114 427 l 1,38,-1
 38 427 l 1,11,-1
EndSplineSet
EndChar

StartChar: uni0237
Encoding: 567 567 505
Width: 254
GlyphClass: 2
Flags: W
LayerCount: 2
Fore
SplineSet
-74 -97 m 1,0,-1
 -58 -97 l 2,1,2
 -26 -97 -26 -97 -5.5 -73.5 c 128,-1,3
 15 -50 15 -50 23 2 c 2,4,-1
 112 538 l 1,5,-1
 236 538 l 1,6,-1
 146 -3 l 2,7,8
 129 -105 129 -105 77 -157 c 128,-1,9
 25 -209 25 -209 -57 -209 c 2,10,-1
 -93 -209 l 1,11,-1
 -74 -97 l 1,0,-1
EndSplineSet
EndChar

StartChar: uni0238
Encoding: 568 568 506
Width: 855
GlyphClass: 2
Flags: W
CounterMasks: 1 0e
LayerCount: 2
Fore
SplineSet
26 269 m 0,0,1
 48 404 48 404 122.5 479 c 128,-1,2
 197 554 197 554 290 554 c 0,3,4
 331 554 331 554 359.5 534.5 c 128,-1,5
 388 515 388 515 400 488 c 1,6,-1
 445 759 l 1,7,-1
 568 759 l 1,8,-1
 523 489 l 1,9,10
 584 554 584 554 656 554 c 0,11,12
 751 554 751 554 799 479 c 128,-1,13
 847 404 847 404 825 269 c 0,14,15
 812 193 812 193 782.5 135.5 c 128,-1,16
 753 78 753 78 715.5 46 c 128,-1,17
 678 14 678 14 639 -1 c 128,-1,18
 600 -16 600 -16 563 -16 c 0,19,20
 519 -16 519 -16 490.5 6 c 128,-1,21
 462 28 462 28 452 59 c 1,22,-1
 442 0 l 1,23,-1
 320 0 l 1,24,-1
 330 60 l 1,25,26
 309 28 309 28 271 6 c 128,-1,27
 233 -16 233 -16 193 -16 c 0,28,29
 154 -16 154 -16 121.5 -1 c 128,-1,30
 89 14 89 14 61.5 45.5 c 128,-1,31
 34 77 34 77 23.5 135 c 128,-1,32
 13 193 13 193 26 269 c 0,0,1
152 269 m 0,33,34
 138 184 138 184 160.5 139.5 c 128,-1,35
 183 95 183 95 230 95 c 0,36,37
 280 95 280 95 316 140.5 c 128,-1,38
 352 186 352 186 364 263 c 2,39,-1
 365 268 l 2,40,41
 378 345 378 345 358 394 c 128,-1,42
 338 443 338 443 288 443 c 0,43,44
 239 443 239 443 202.5 397.5 c 128,-1,45
 166 352 166 352 152 269 c 0,33,34
485 262 m 2,46,47
 473 188 473 188 494.5 141.5 c 128,-1,48
 516 95 516 95 562 95 c 0,49,50
 610 95 610 95 647 139.5 c 128,-1,51
 684 184 684 184 699 269 c 0,52,53
 712 350 712 350 691 396.5 c 128,-1,54
 670 443 670 443 621 443 c 0,55,56
 571 443 571 443 534.5 393.5 c 128,-1,57
 498 344 498 344 485 267 c 2,58,-1
 485 262 l 2,46,47
EndSplineSet
EndChar

StartChar: uni0239
Encoding: 569 569 507
Width: 855
GlyphClass: 2
Flags: W
LayerCount: 2
Fore
SplineSet
26 269 m 0,0,1
 48 402 48 402 121 478 c 128,-1,2
 194 554 194 554 290 554 c 0,3,4
 368 554 368 554 400 484 c 1,5,-1
 409 538 l 1,6,-1
 531 538 l 1,7,-1
 522 485 l 1,8,9
 576 554 576 554 657 554 c 0,10,11
 753 554 753 554 800 478 c 128,-1,12
 847 402 847 402 825 269 c 0,13,14
 813 194 813 194 784.5 137 c 128,-1,15
 756 80 756 80 719 48 c 128,-1,16
 682 16 682 16 642.5 0 c 128,-1,17
 603 -16 603 -16 563 -16 c 0,18,19
 517 -16 517 -16 489 6.5 c 128,-1,20
 461 29 461 29 452 58 c 1,21,-1
 407 -215 l 1,22,-1
 283 -215 l 1,23,-1
 329 58 l 1,24,25
 306 28 306 28 270.5 6 c 128,-1,26
 235 -16 235 -16 193 -16 c 0,27,28
 153 -16 153 -16 119.5 0 c 128,-1,29
 86 16 86 16 59 47.5 c 128,-1,30
 32 79 32 79 23 136.5 c 128,-1,31
 14 194 14 194 26 269 c 0,0,1
151 269 m 0,32,33
 137 186 137 186 159 140.5 c 128,-1,34
 181 95 181 95 228 95 c 0,35,36
 280 95 280 95 316.5 141 c 128,-1,37
 353 187 353 187 366 269 c 2,38,-1
 367 275 l 2,39,40
 379 350 379 350 358 396.5 c 128,-1,41
 337 443 337 443 287 443 c 256,42,43
 237 443 237 443 200.5 395 c 128,-1,44
 164 347 164 347 151 269 c 0,32,33
485 271 m 2,45,46
 472 190 472 190 493.5 142.5 c 128,-1,47
 515 95 515 95 564 95 c 0,48,49
 612 95 612 95 649 140.5 c 128,-1,50
 686 186 686 186 700 269 c 0,51,52
 713 349 713 349 692.5 396 c 128,-1,53
 672 443 672 443 622 443 c 0,54,55
 574 443 574 443 536 396.5 c 128,-1,56
 498 350 498 350 486 277 c 2,57,-1
 485 271 l 2,45,46
EndSplineSet
EndChar

StartChar: uni023A
Encoding: 570 570 508
Width: 651
GlyphClass: 2
Flags: W
LayerCount: 2
Fore
SplineSet
226 282 m 1,0,-1
 244 282 l 1,1,-1
 397 474 l 1,2,3
 391 524 391 524 381 603 c 1,4,-1
 377 603 l 1,5,6
 365 577 365 577 341.5 526.5 c 128,-1,7
 318 476 318 476 309 456 c 2,8,-1
 226 282 l 1,0,-1
336 282 m 1,9,-1
 425 282 l 1,10,-1
 412 377 l 1,11,-1
 336 282 l 1,9,-1
-51 0 m 1,12,-1
 329 735 l 1,13,-1
 473 735 l 1,14,-1
 498 600 l 1,15,-1
 645 785 l 1,16,-1
 736 785 l 1,17,-1
 514 507 l 1,18,-1
 608 0 l 1,19,-1
 467 0 l 1,20,-1
 441 173 l 1,21,-1
 249 173 l 1,22,-1
 35 -96 l 1,23,-1
 -57 -96 l 1,24,-1
 20 0 l 1,25,-1
 -51 0 l 1,12,-1
EndSplineSet
EndChar

StartChar: uni023B
Encoding: 571 571 509
Width: 649
GlyphClass: 2
Flags: W
LayerCount: 2
Fore
SplineSet
47 368 m 0,0,1
 75 539 75 539 180.5 645 c 128,-1,2
 286 751 286 751 433 751 c 0,3,4
 478 751 478 751 523 736 c 1,5,-1
 549 787 l 1,6,-1
 647 787 l 1,7,-1
 595 689 l 1,8,9
 618 668 618 668 637.5 634.5 c 128,-1,10
 657 601 657 601 663 569 c 1,11,-1
 542 531 l 1,12,13
 537 546 537 546 526 561 c 1,14,-1
 286 106 l 1,15,16
 306 100 306 100 324 100 c 0,17,18
 381 100 381 100 429.5 136.5 c 128,-1,19
 478 173 478 173 504 221 c 1,20,-1
 617 183 l 1,21,22
 602 157 602 157 584.5 133.5 c 128,-1,23
 567 110 567 110 538 81.5 c 128,-1,24
 509 53 509 53 476 32.5 c 128,-1,25
 443 12 443 12 399 -2 c 128,-1,26
 355 -16 355 -16 306 -16 c 0,27,28
 264 -16 264 -16 226 -6 c 1,29,-1
 202 -54 l 1,30,-1
 104 -54 l 1,31,-1
 147 28 l 1,32,33
 80 78 80 78 54 165 c 128,-1,34
 28 252 28 252 47 368 c 0,0,1
214 154 m 1,35,-1
 464 624 l 1,36,37
 438 635 438 635 412 635 c 0,38,39
 325 635 325 635 264 559 c 128,-1,40
 203 483 203 483 184 368 c 0,41,42
 161 228 161 228 214 154 c 1,35,-1
EndSplineSet
EndChar

StartChar: uni023C
Encoding: 572 572 510
Width: 489
GlyphClass: 2
Flags: W
LayerCount: 2
Fore
SplineSet
26 269 m 0,0,1
 47 394 47 394 123.5 474 c 128,-1,2
 200 554 200 554 313 554 c 0,3,4
 342 554 342 554 369 546 c 1,5,-1
 398 604 l 1,6,-1
 485 604 l 1,7,-1
 433 504 l 1,8,9
 451 488 451 488 465 455 c 128,-1,10
 479 422 479 422 480 389 c 1,11,-1
 378 361 l 1,12,13
 374 376 374 376 369 384 c 1,14,-1
 221 96 l 1,15,16
 226 95 226 95 234 95 c 0,17,18
 304 95 304 95 354 186 c 1,19,-1
 453 155 l 1,20,21
 430 95 430 95 365 39.5 c 128,-1,22
 300 -16 300 -16 215 -16 c 0,23,24
 184 -16 184 -16 164 -12 c 1,25,-1
 143 -55 l 1,26,-1
 57 -55 l 1,27,-1
 95 19 l 1,28,29
 45 57 45 57 29 125 c 128,-1,30
 13 193 13 193 26 269 c 0,0,1
162 149 m 1,31,-1
 313 438 l 1,32,33
 302 443 302 443 292 443 c 0,34,35
 239 443 239 443 201.5 393.5 c 128,-1,36
 164 344 164 344 152 269 c 0,37,38
 140 197 140 197 162 149 c 1,31,-1
EndSplineSet
EndChar

StartChar: uni023D
Encoding: 573 573 511
Width: 538
GlyphClass: 2
Flags: W
LayerCount: 2
Fore
SplineSet
15 358 m 1,0,-1
 33 466 l 1,1,-1
 105 466 l 1,2,-1
 150 735 l 1,3,-1
 283 735 l 1,4,-1
 239 466 l 1,5,-1
 412 466 l 1,6,-1
 394 358 l 1,7,-1
 221 358 l 1,8,-1
 181 116 l 1,9,-1
 501 116 l 1,10,-1
 482 0 l 1,11,-1
 28 0 l 1,12,-1
 88 358 l 1,13,-1
 15 358 l 1,0,-1
EndSplineSet
EndChar

StartChar: uni023E
Encoding: 574 574 512
Width: 560
GlyphClass: 2
Flags: W
LayerCount: 2
Fore
SplineSet
401 618 m 1,0,-1
 384 519 l 1,1,-1
 454 618 l 1,2,-1
 401 618 l 1,0,-1
64 618 m 1,3,-1
 84 735 l 1,4,-1
 537 735 l 1,5,-1
 574 787 l 1,6,-1
 663 787 l 1,7,-1
 623 731 l 1,8,-1
 604 618 l 1,9,-1
 544 618 l 1,10,-1
 357 353 l 1,11,-1
 298 0 l 1,12,-1
 166 0 l 1,13,-1
 184 109 l 1,14,-1
 71 -51 l 1,15,-1
 -18 -51 l 1,16,-1
 211 274 l 1,17,-1
 268 618 l 1,18,-1
 64 618 l 1,3,-1
EndSplineSet
EndChar

StartChar: uni023F
Encoding: 575 575 513
Width: 460
GlyphClass: 2
Flags: W
LayerCount: 2
Fore
SplineSet
-9 114 m 1,0,-1
 86 169 l 1,1,2
 126 89 126 89 207 89 c 0,3,4
 240 89 240 89 265.5 105 c 128,-1,5
 291 121 291 121 295 145 c 0,6,7
 298 161 298 161 292 173.5 c 128,-1,8
 286 186 286 186 270 195.5 c 128,-1,9
 254 205 254 205 241 211 c 128,-1,10
 228 217 228 217 202 226.5 c 128,-1,11
 176 236 176 236 164 241 c 0,12,13
 106 266 106 266 77.5 299 c 128,-1,14
 49 332 49 332 59 394 c 0,15,16
 71 468 71 468 137 511 c 128,-1,17
 203 554 203 554 281 554 c 0,18,19
 350 554 350 554 399 519 c 128,-1,20
 448 484 448 484 467 429 c 1,21,-1
 378 377 l 1,22,23
 356 413 356 413 330.5 431 c 128,-1,24
 305 449 305 449 263 449 c 0,25,26
 231 449 231 449 209 433 c 128,-1,27
 187 417 187 417 183 393 c 0,28,29
 179 368 179 368 200.5 349.5 c 128,-1,30
 222 331 222 331 257 320 c 0,31,32
 293 309 293 309 319.5 297 c 128,-1,33
 346 285 346 285 375 264.5 c 128,-1,34
 404 244 404 244 415.5 214 c 128,-1,35
 427 184 427 184 421 145 c 0,36,37
 409 75 409 75 347.5 29.5 c 128,-1,38
 286 -16 286 -16 189 -16 c 0,39,40
 146 -16 146 -16 115 -4 c 1,41,42
 115 -10 115 -10 117 -26.5 c 128,-1,43
 119 -43 119 -43 120.5 -50 c 128,-1,44
 122 -57 122 -57 125.5 -70 c 128,-1,45
 129 -83 129 -83 132.5 -89 c 128,-1,46
 136 -95 136 -95 142.5 -104 c 128,-1,47
 149 -113 149 -113 157 -117 c 128,-1,48
 165 -121 165 -121 177.5 -124 c 128,-1,49
 190 -127 190 -127 205 -127 c 0,50,51
 240 -127 240 -127 268 -121 c 1,52,-1
 253 -212 l 1,53,54
 204 -219 204 -219 185 -219 c 0,55,56
 134 -219 134 -219 100 -200.5 c 128,-1,57
 66 -182 66 -182 50.5 -147.5 c 128,-1,58
 35 -113 35 -113 29 -83 c 128,-1,59
 23 -53 23 -53 21 -12 c 0,60,61
 17 73 17 73 -9 114 c 1,0,-1
EndSplineSet
EndChar

StartChar: uni0240
Encoding: 576 576 514
Width: 465
GlyphClass: 2
Flags: W
LayerCount: 2
Fore
SplineSet
-27 0 m 1,0,-1
 -13 86 l 1,1,-1
 297 427 l 1,2,-1
 64 427 l 1,3,-1
 82 538 l 1,4,-1
 478 538 l 1,5,-1
 465 456 l 1,6,-1
 128 86 l 1,7,8
 156 77 156 77 177.5 53.5 c 128,-1,9
 199 30 199 30 213 3 c 128,-1,10
 227 -24 227 -24 241 -49 c 128,-1,11
 255 -74 255 -74 275.5 -91 c 128,-1,12
 296 -108 296 -108 322 -108 c 0,13,14
 363 -108 363 -108 385 -102 c 1,15,-1
 367 -211 l 1,16,17
 334 -219 334 -219 296 -219 c 0,18,19
 252 -219 252 -219 220.5 -198 c 128,-1,20
 189 -177 189 -177 170.5 -146.5 c 128,-1,21
 152 -116 152 -116 135 -84.5 c 128,-1,22
 118 -53 118 -53 94.5 -29 c 128,-1,23
 71 -5 71 -5 40 0 c 1,24,-1
 -27 0 l 1,0,-1
EndSplineSet
EndChar

StartChar: uni0241
Encoding: 577 577 515
Width: 573
GlyphClass: 2
Flags: W
LayerCount: 2
Fore
SplineSet
96 564 m 1,0,1
 129 646 129 646 202.5 698.5 c 128,-1,2
 276 751 276 751 369 751 c 0,3,4
 467 751 467 751 521.5 693 c 128,-1,5
 576 635 576 635 560 540 c 0,6,7
 553 497 553 497 530 460.5 c 128,-1,8
 507 424 507 424 478.5 398.5 c 128,-1,9
 450 373 450 373 422 349.5 c 128,-1,10
 394 326 394 326 372 296 c 128,-1,11
 350 266 350 266 344 230 c 2,12,-1
 306 0 l 1,13,-1
 174 0 l 1,14,-1
 214 242 l 2,15,16
 221 285 221 285 243.5 321 c 128,-1,17
 266 357 266 357 293 382 c 128,-1,18
 320 407 320 407 347.5 430.5 c 128,-1,19
 375 454 375 454 396.5 483 c 128,-1,20
 418 512 418 512 424 546 c 0,21,22
 431 586 431 586 409.5 610.5 c 128,-1,23
 388 635 388 635 352 635 c 0,24,25
 310 635 310 635 273 607.5 c 128,-1,26
 236 580 236 580 211 528 c 1,27,-1
 96 564 l 1,0,1
EndSplineSet
EndChar

StartChar: uni0250
Encoding: 592 592 516
Width: 512
GlyphClass: 2
Flags: W
LayerCount: 2
Fore
SplineSet
170 278 m 1,0,1
 218 289 218 289 262 296 c 0,2,3
 315 305 315 305 344 325.5 c 128,-1,4
 373 346 373 346 379 383 c 0,5,6
 383 410 383 410 366 428 c 128,-1,7
 349 446 349 446 317 446 c 0,8,9
 269 446 269 446 228 411 c 128,-1,10
 187 376 187 376 178 326 c 2,11,-1
 170 278 l 1,0,1
35 207 m 2,12,-1
 90 538 l 1,13,-1
 211 538 l 1,14,-1
 201 477 l 1,15,16
 220 507 220 507 260.5 530.5 c 128,-1,17
 301 554 301 554 352 554 c 0,18,19
 434 554 434 554 475.5 510 c 128,-1,20
 517 466 517 466 506 394 c 0,21,22
 493 315 493 315 426.5 268.5 c 128,-1,23
 360 222 360 222 249 206 c 0,24,25
 187 197 187 197 155 188 c 1,26,-1
 150 156 l 2,27,28
 145 123 145 123 168 104.5 c 128,-1,29
 191 86 191 86 228 86 c 0,30,31
 307 86 307 86 379 155 c 1,32,-1
 442 88 l 1,33,34
 394 37 394 37 333.5 10.5 c 128,-1,35
 273 -16 273 -16 211 -16 c 0,36,37
 98 -16 98 -16 57.5 42 c 128,-1,38
 17 100 17 100 35 207 c 2,12,-1
EndSplineSet
EndChar

StartChar: uni0251
Encoding: 593 593 517
Width: 541
GlyphClass: 2
Flags: W
LayerCount: 2
Fore
SplineSet
152 269 m 0,0,1
 138 184 138 184 160 139.5 c 128,-1,2
 182 95 182 95 229 95 c 0,3,4
 269 95 269 95 308 137 c 128,-1,5
 347 179 347 179 362 269 c 0,6,7
 375 347 375 347 355 395 c 128,-1,8
 335 443 335 443 286 443 c 256,9,10
 237 443 237 443 201.5 397 c 128,-1,11
 166 351 166 351 152 269 c 0,0,1
26 269 m 0,12,13
 48 403 48 403 120 478.5 c 128,-1,14
 192 554 192 554 288 554 c 0,15,16
 364 554 364 554 396 488 c 1,17,-1
 404 538 l 1,18,-1
 527 538 l 1,19,-1
 438 0 l 1,20,-1
 318 0 l 1,21,-1
 328 61 l 1,22,23
 308 29 308 29 270.5 6.5 c 128,-1,24
 233 -16 233 -16 192 -16 c 0,25,26
 152 -16 152 -16 118 0 c 128,-1,27
 84 16 84 16 57.5 48 c 128,-1,28
 31 80 31 80 22.5 137 c 128,-1,29
 14 194 14 194 26 269 c 0,12,13
EndSplineSet
EndChar

StartChar: uni0252
Encoding: 594 594 518
Width: 541
GlyphClass: 2
Flags: W
LayerCount: 2
Fore
SplineSet
10 0 m 1,0,-1
 99 538 l 1,1,-1
 222 538 l 1,2,-1
 214 489 l 1,3,4
 275 554 275 554 344 554 c 0,5,6
 439 554 439 554 486.5 478 c 128,-1,7
 534 402 534 402 512 269 c 0,8,9
 500 194 500 194 471 136.5 c 128,-1,10
 442 79 442 79 404.5 47 c 128,-1,11
 367 15 367 15 328.5 -0.5 c 128,-1,12
 290 -16 290 -16 252 -16 c 0,13,14
 209 -16 209 -16 179.5 8 c 128,-1,15
 150 32 150 32 141 61 c 1,16,-1
 131 0 l 1,17,-1
 10 0 l 1,0,-1
175 269 m 0,18,19
 162 188 162 188 183 141.5 c 128,-1,20
 204 95 204 95 251 95 c 0,21,22
 299 95 299 95 335 140 c 128,-1,23
 371 185 371 185 385 269 c 0,24,25
 399 351 399 351 378.5 397 c 128,-1,26
 358 443 358 443 308 443 c 256,27,28
 259 443 259 443 223.5 395 c 128,-1,29
 188 347 188 347 175 269 c 0,18,19
EndSplineSet
EndChar

StartChar: uni0253
Encoding: 595 595 519
Width: 547
GlyphClass: 2
Flags: W
LayerCount: 2
Fore
SplineSet
177 270 m 0,0,1
 163 188 163 188 184.5 141.5 c 128,-1,2
 206 95 206 95 256 95 c 0,3,4
 304 95 304 95 341 140.5 c 128,-1,5
 378 186 378 186 392 270 c 0,6,7
 405 350 405 350 384.5 396.5 c 128,-1,8
 364 443 364 443 313 443 c 256,9,10
 263 443 263 443 226.5 396.5 c 128,-1,11
 190 350 190 350 177 270 c 0,0,1
12 0 m 1,12,-1
 112 603 l 2,13,14
 126 690 126 690 183 736 c 128,-1,15
 240 782 240 782 317 782 c 0,16,17
 358 782 358 782 410 776 c 1,18,-1
 390 660 l 1,19,20
 341 666 341 666 321 666 c 0,21,22
 287 666 287 666 261.5 643 c 128,-1,23
 236 620 236 620 229 579 c 2,24,-1
 214 489 l 1,25,26
 273 554 273 554 349 554 c 0,27,28
 444 554 444 554 492 478 c 128,-1,29
 540 402 540 402 518 270 c 0,30,31
 495 129 495 129 418.5 56.5 c 128,-1,32
 342 -16 342 -16 256 -16 c 0,33,34
 212 -16 212 -16 182.5 7.5 c 128,-1,35
 153 31 153 31 141 61 c 1,36,-1
 131 0 l 1,37,-1
 12 0 l 1,12,-1
EndSplineSet
EndChar

StartChar: uni0254
Encoding: 596 596 520
Width: 489
GlyphClass: 2
Flags: W
LayerCount: 2
Fore
SplineSet
-7 155 m 1,0,-1
 105 186 l 1,1,2
 109 151 109 151 131 123 c 128,-1,3
 153 95 153 95 192 95 c 0,4,5
 240 95 240 95 279.5 140 c 128,-1,6
 319 185 319 185 333 268 c 0,7,8
 345 343 345 343 324.5 393 c 128,-1,9
 304 443 304 443 250 443 c 0,10,11
 215 443 215 443 188 418.5 c 128,-1,12
 161 394 161 394 146 359 c 1,13,-1
 45 389 l 1,14,15
 69 453 69 453 130 503.5 c 128,-1,16
 191 554 191 554 270 554 c 0,17,18
 375 554 375 554 428.5 477 c 128,-1,19
 482 400 482 400 460 268 c 0,20,21
 439 139 439 139 360.5 61.5 c 128,-1,22
 282 -16 282 -16 175 -16 c 0,23,24
 97 -16 97 -16 47.5 36 c 128,-1,25
 -2 88 -2 88 -7 155 c 1,0,-1
EndSplineSet
EndChar

StartChar: uni0255
Encoding: 597 597 521
Width: 489
GlyphClass: 2
Flags: W
LayerCount: 2
Fore
SplineSet
221 89 m 1,0,1
 245 73 245 73 272 73 c 0,2,3
 300 73 300 73 319 84 c 128,-1,4
 338 95 338 95 340 111 c 0,5,6
 342 126 342 126 332 135 c 128,-1,7
 322 144 322 144 304 144 c 0,8,9
 256 144 256 144 221 89 c 1,0,1
27 278 m 0,10,11
 46 394 46 394 122.5 474 c 128,-1,12
 199 554 199 554 311 554 c 0,13,14
 391 554 391 554 433 502 c 128,-1,15
 475 450 475 450 478 389 c 1,16,-1
 371 359 l 1,17,18
 360 443 360 443 293 443 c 0,19,20
 240 443 240 443 202 393 c 128,-1,21
 164 343 164 343 152 269 c 0,22,23
 140 199 140 199 160 151 c 1,24,25
 188 184 188 184 231.5 209.5 c 128,-1,26
 275 235 275 235 323 235 c 0,27,28
 381 235 381 235 414.5 201.5 c 128,-1,29
 448 168 448 168 439 112 c 0,30,31
 429 51 429 51 380 17.5 c 128,-1,32
 331 -16 331 -16 254 -16 c 0,33,34
 209 -16 209 -16 169 -7 c 1,35,36
 154 -37 154 -37 145 -64 c 1,37,-1
 44 -39 l 1,38,39
 57 0 57 0 79 37 c 1,40,41
 0 117 0 117 27 278 c 0,10,11
EndSplineSet
EndChar

StartChar: uni0256
Encoding: 598 598 522
Width: 548
GlyphClass: 2
Flags: W
LayerCount: 2
Fore
SplineSet
26 269 m 0,0,1
 48 404 48 404 123 479 c 128,-1,2
 198 554 198 554 291 554 c 0,3,4
 332 554 332 554 360.5 534.5 c 128,-1,5
 389 515 389 515 401 488 c 1,6,-1
 446 759 l 1,7,-1
 568 759 l 1,8,-1
 438 -27 l 2,9,10
 425 -104 425 -104 486 -104 c 0,11,12
 517 -104 517 -104 559 -96 c 1,13,-1
 540 -210 l 1,14,15
 474 -219 474 -219 443 -219 c 0,16,17
 375 -219 375 -219 338 -176.5 c 128,-1,18
 301 -134 301 -134 317 -36 c 2,19,-1
 333 60 l 1,20,21
 311 28 311 28 273 6 c 128,-1,22
 235 -16 235 -16 195 -16 c 0,23,24
 154 -16 154 -16 120 0 c 128,-1,25
 86 16 86 16 59 48 c 128,-1,26
 32 80 32 80 23 137 c 128,-1,27
 14 194 14 194 26 269 c 0,0,1
152 269 m 0,28,29
 138 187 138 187 159.5 141 c 128,-1,30
 181 95 181 95 231 95 c 0,31,32
 279 95 279 95 315.5 142 c 128,-1,33
 352 189 352 189 365 269 c 0,34,35
 378 347 378 347 358 395 c 128,-1,36
 338 443 338 443 288 443 c 0,37,38
 239 443 239 443 202.5 397.5 c 128,-1,39
 166 352 166 352 152 269 c 0,28,29
EndSplineSet
EndChar

StartChar: uni0257
Encoding: 599 599 523
Width: 548
GlyphClass: 2
Flags: W
LayerCount: 2
Fore
SplineSet
26 269 m 0,0,1
 48 403 48 403 122 478.5 c 128,-1,2
 196 554 196 554 291 554 c 0,3,4
 333 554 333 554 361.5 534.5 c 128,-1,5
 390 515 390 515 401 488 c 1,6,-1
 421 609 l 2,7,8
 435 693 435 693 491.5 737.5 c 128,-1,9
 548 782 548 782 623 782 c 0,10,11
 662 782 662 782 712 778 c 1,12,-1
 692 662 l 1,13,14
 662 666 662 666 627 666 c 0,15,16
 595 666 595 666 570 644 c 128,-1,17
 545 622 545 622 539 583 c 2,18,-1
 442 0 l 1,19,-1
 324 0 l 1,20,-1
 334 62 l 1,21,22
 314 31 314 31 275.5 7.5 c 128,-1,23
 237 -16 237 -16 195 -16 c 0,24,25
 154 -16 154 -16 120 0 c 128,-1,26
 86 16 86 16 59 48 c 128,-1,27
 32 80 32 80 23 137 c 128,-1,28
 14 194 14 194 26 269 c 0,0,1
152 269 m 0,29,30
 138 184 138 184 159.5 139.5 c 128,-1,31
 181 95 181 95 231 95 c 0,32,33
 279 95 279 95 315.5 140.5 c 128,-1,34
 352 186 352 186 365 269 c 0,35,36
 378 347 378 347 358 395 c 128,-1,37
 338 443 338 443 288 443 c 0,38,39
 237 443 237 443 201 396.5 c 128,-1,40
 165 350 165 350 152 269 c 0,29,30
EndSplineSet
EndChar

StartChar: uni0258
Encoding: 600 600 524
Width: 526
GlyphClass: 2
Flags: W
LayerCount: 2
Fore
SplineSet
19 224 m 1,0,1
 20 248 20 248 25 274 c 0,2,3
 46 400 46 400 126.5 477 c 128,-1,4
 207 554 207 554 306 554 c 0,5,6
 407 554 407 554 463 478 c 128,-1,7
 519 402 519 402 498 271 c 0,8,9
 476 139 476 139 394 61.5 c 128,-1,10
 312 -16 312 -16 205 -16 c 0,11,12
 122 -16 122 -16 72.5 24.5 c 128,-1,13
 23 65 23 65 7 124 c 1,14,-1
 116 163 l 1,15,16
 127 131 127 131 153.5 109.5 c 128,-1,17
 180 88 180 88 220 88 c 0,18,19
 276 88 276 88 314.5 127.5 c 128,-1,20
 353 167 353 167 363 224 c 1,21,-1
 19 224 l 1,0,1
157 314 m 1,22,-1
 378 314 l 1,23,24
 386 371 386 371 363.5 411 c 128,-1,25
 341 451 341 451 289 451 c 0,26,27
 237 451 237 451 202 411.5 c 128,-1,28
 167 372 167 372 157 314 c 1,22,-1
EndSplineSet
EndChar

StartChar: uni025A
Encoding: 602 602 526
Width: 625
GlyphClass: 2
Flags: W
LayerCount: 2
Fore
SplineSet
18 230 m 1,0,-1
 377 382 l 1,1,2
 352 450 352 450 285 450 c 0,3,4
 206 450 206 450 151 374 c 1,5,-1
 55 414 l 1,6,7
 91 474 91 474 154.5 514 c 128,-1,8
 218 554 218 554 303 554 c 0,9,10
 371 554 371 554 418 521 c 128,-1,11
 465 488 465 488 485 434 c 1,12,-1
 569 470 l 1,13,14
 573 434 573 434 590.5 411.5 c 128,-1,15
 608 389 608 389 632 389 c 0,16,17
 661 389 661 389 679 395 c 1,18,-1
 662 292 l 1,19,20
 634 283 634 283 604 283 c 0,21,22
 574 283 574 283 551 297.5 c 128,-1,23
 528 312 528 312 521 335 c 1,24,-1
 502 327 l 1,25,26
 502 297 502 297 497 268 c 0,27,28
 476 142 476 142 397.5 63 c 128,-1,29
 319 -16 319 -16 212 -16 c 0,30,31
 156 -16 156 -16 114.5 7.5 c 128,-1,32
 73 31 73 31 52 68.5 c 128,-1,33
 31 106 31 106 22.5 147.5 c 128,-1,34
 14 189 14 189 18 230 c 1,0,-1
142 175 m 1,35,36
 144 134 144 134 168.5 110.5 c 128,-1,37
 193 87 193 87 229 87 c 0,38,39
 269 87 269 87 301 114.5 c 128,-1,40
 333 142 333 142 349 189 c 1,41,42
 366 221 366 221 371 255 c 0,43,44
 372 264 372 264 373 273 c 1,45,-1
 142 175 l 1,35,36
EndSplineSet
EndChar

StartChar: uni025B
Encoding: 603 603 527
Width: 475
GlyphClass: 2
Flags: W
LayerCount: 2
Fore
SplineSet
7 157 m 0,0,1
 14 202 14 202 42 234.5 c 128,-1,2
 70 267 70 267 104 284 c 1,3,-1
 105 284 l 1,4,5
 53 327 53 327 65 397 c 256,6,7
 77 467 77 467 139 510.5 c 128,-1,8
 201 554 201 554 290 554 c 0,9,10
 429 554 429 554 474 419 c 1,11,-1
 365 376 l 1,12,13
 353 405 353 405 328.5 424 c 128,-1,14
 304 443 304 443 272 443 c 0,15,16
 198 443 198 443 189 387 c 0,17,18
 185 361 185 361 203.5 343 c 128,-1,19
 222 325 222 325 261 325 c 2,20,-1
 325 325 l 1,21,-1
 309 227 l 1,22,-1
 245 227 l 2,23,24
 192 227 192 227 165 207.5 c 128,-1,25
 138 188 138 188 133 159 c 0,26,27
 128 127 128 127 155 111 c 128,-1,28
 182 95 182 95 217 95 c 0,29,30
 253 95 253 95 287.5 113 c 128,-1,31
 322 131 322 131 343 159 c 1,32,-1
 433 114 l 1,33,34
 397 57 397 57 334.5 20.5 c 128,-1,35
 272 -16 272 -16 197 -16 c 0,36,37
 103 -16 103 -16 48.5 30 c 128,-1,38
 -6 76 -6 76 7 157 c 0,0,1
EndSplineSet
EndChar

StartChar: uni025C
Encoding: 604 604 528
Width: 475
GlyphClass: 2
Flags: W
LayerCount: 2
Fore
SplineSet
-14 114 m 1,0,-1
 91 159 l 1,1,2
 103 131 103 131 131.5 113 c 128,-1,3
 160 95 160 95 196 95 c 0,4,5
 231 95 231 95 263 111 c 128,-1,6
 295 127 295 127 301 159 c 0,7,8
 306 188 306 188 285 207.5 c 128,-1,9
 264 227 264 227 211 227 c 2,10,-1
 148 227 l 1,11,-1
 164 325 l 1,12,-1
 228 325 l 2,13,14
 268 325 268 325 292 343 c 128,-1,15
 316 361 316 361 320 387 c 0,16,17
 329 443 329 443 256 443 c 0,18,19
 225 443 225 443 194 424 c 128,-1,20
 163 405 163 405 141 376 c 1,21,-1
 46 419 l 1,22,23
 136 554 136 554 275 554 c 0,24,25
 364 554 364 554 412 510.5 c 128,-1,26
 460 467 460 467 448 397 c 256,27,28
 436 327 436 327 370 284 c 1,29,-1
 371 284 l 1,30,31
 400 267 400 267 417 234.5 c 128,-1,32
 434 202 434 202 426 157 c 0,33,34
 413 76 413 76 343 30 c 128,-1,35
 273 -16 273 -16 179 -16 c 0,36,37
 104 -16 104 -16 53.5 20.5 c 128,-1,38
 3 57 3 57 -14 114 c 1,0,-1
EndSplineSet
EndChar

StartChar: uni025D
Encoding: 605 605 529
Width: 572
GlyphClass: 2
Flags: W
LayerCount: 2
Fore
SplineSet
-14 114 m 1,0,-1
 91 159 l 1,1,2
 101 134 101 134 129.5 114.5 c 128,-1,3
 158 95 158 95 196 95 c 0,4,5
 239 95 239 95 267.5 113 c 128,-1,6
 296 131 296 131 301 161 c 0,7,8
 306 190 306 190 284 208.5 c 128,-1,9
 262 227 262 227 210 227 c 2,10,-1
 148 227 l 1,11,-1
 164 325 l 1,12,-1
 227 325 l 2,13,14
 267 325 267 325 291.5 343 c 128,-1,15
 316 361 316 361 320 387 c 0,16,17
 329 443 329 443 257 443 c 0,18,19
 191 443 191 443 140 376 c 1,20,-1
 46 419 l 1,21,22
 138 554 138 554 275 554 c 0,23,24
 389 554 389 554 434 486 c 1,25,-1
 514 531 l 1,26,27
 518 495 518 495 537.5 470.5 c 128,-1,28
 557 446 557 446 582 446 c 0,29,30
 610 446 610 446 629 453 c 1,31,-1
 612 349 l 1,32,33
 584 340 584 340 555 340 c 0,34,35
 525 340 525 340 500 355.5 c 128,-1,36
 475 371 475 371 467 393 c 1,37,-1
 444 380 l 1,38,39
 438 360 438 360 436 357 c 0,40,41
 417 310 417 310 371 285 c 1,42,-1
 372 284 l 1,43,44
 399 268 399 268 416.5 236.5 c 128,-1,45
 434 205 434 205 427 160 c 0,46,47
 413 77 413 77 344.5 30.5 c 128,-1,48
 276 -16 276 -16 178 -16 c 0,49,50
 103 -16 103 -16 52 21 c 128,-1,51
 1 58 1 58 -14 114 c 1,0,-1
EndSplineSet
EndChar

StartChar: uni025E
Encoding: 606 606 530
Width: 522
GlyphClass: 2
Flags: W
LayerCount: 2
Fore
SplineSet
26 269 m 0,0,1
 36 327 36 327 57 376 c 128,-1,2
 78 425 78 425 113.5 466 c 128,-1,3
 149 507 149 507 203 530.5 c 128,-1,4
 257 554 257 554 324 554 c 0,5,6
 404 554 404 554 457 514.5 c 128,-1,7
 510 475 510 475 498 398 c 0,8,9
 486 323 486 323 425 285 c 1,10,-1
 426 285 l 1,11,12
 491 246 491 246 477 160 c 0,13,14
 469 112 469 112 444.5 77 c 128,-1,15
 420 42 420 42 384 22.5 c 128,-1,16
 348 3 348 3 309.5 -6.5 c 128,-1,17
 271 -16 271 -16 230 -16 c 0,18,19
 163 -16 163 -16 117 6.5 c 128,-1,20
 71 29 71 29 49 69.5 c 128,-1,21
 27 110 27 110 21.5 159.5 c 128,-1,22
 16 209 16 209 26 269 c 0,0,1
152 269 m 0,23,24
 136 174 136 174 166.5 134.5 c 128,-1,25
 197 95 197 95 250 95 c 0,26,27
 339 95 339 95 350 160 c 0,28,29
 354 186 354 186 333 206 c 128,-1,30
 312 226 312 226 269 226 c 2,31,-1
 231 226 l 1,32,-1
 248 328 l 1,33,-1
 286 328 l 2,34,35
 320 328 320 328 342.5 345 c 128,-1,36
 365 362 365 362 369 388 c 0,37,38
 373 415 373 415 355.5 429.5 c 128,-1,39
 338 444 338 444 307 444 c 0,40,41
 258 444 258 444 212.5 402.5 c 128,-1,42
 167 361 167 361 152 269 c 0,23,24
EndSplineSet
EndChar

StartChar: uni025F
Encoding: 607 607 531
Width: 260
GlyphClass: 2
Flags: W
LayerCount: 2
Fore
SplineSet
-24 244 m 1,0,-1
 -6 351 l 1,1,-1
 82 351 l 1,2,-1
 113 538 l 1,3,-1
 236 538 l 1,4,-1
 205 351 l 1,5,-1
 291 351 l 1,6,-1
 273 244 l 1,7,-1
 188 244 l 1,8,-1
 147 -3 l 2,9,10
 130 -105 130 -105 78.5 -157 c 128,-1,11
 27 -209 27 -209 -55 -209 c 2,12,-1
 -91 -209 l 1,13,-1
 -73 -97 l 1,14,-1
 -58 -97 l 2,15,16
 -25 -97 -25 -97 -4.5 -73.5 c 128,-1,17
 16 -50 16 -50 24 2 c 2,18,-1
 64 244 l 1,19,-1
 -24 244 l 1,0,-1
EndSplineSet
EndChar

StartChar: uni0260
Encoding: 608 608 532
Width: 552
GlyphClass: 2
Flags: W
LayerCount: 2
Fore
SplineSet
30 279 m 256,0,1
 51 405 51 405 123.5 479.5 c 128,-1,2
 196 554 196 554 288 554 c 0,3,4
 366 554 366 554 392 484 c 1,5,-1
 413 610 l 2,6,7
 427 693 427 693 484.5 737.5 c 128,-1,8
 542 782 542 782 618 782 c 0,9,10
 661 782 661 782 709 778 c 1,11,-1
 690 663 l 1,12,13
 666 666 666 666 622 666 c 0,14,15
 590 666 590 666 563.5 644 c 128,-1,16
 537 622 537 622 531 584 c 2,17,-1
 447 78 l 2,18,19
 423 -66 423 -66 356.5 -142.5 c 128,-1,20
 290 -219 290 -219 166 -219 c 0,21,22
 39 -219 39 -219 -18 -113 c 1,23,-1
 73 -53 l 1,24,25
 113 -115 113 -115 185 -115 c 0,26,27
 235 -115 235 -115 269.5 -76 c 128,-1,28
 304 -37 304 -37 316 23 c 2,29,-1
 324 66 l 1,30,31
 302 39 302 39 268.5 22 c 128,-1,32
 235 5 235 5 200 5 c 0,33,34
 104 5 104 5 56.5 79 c 128,-1,35
 9 153 9 153 30 279 c 256,0,1
155 280 m 0,36,37
 141 198 141 198 163.5 157.5 c 128,-1,38
 186 117 186 117 231 117 c 0,39,40
 278 117 278 117 311.5 159 c 128,-1,41
 345 201 345 201 358 280 c 0,42,43
 370 355 370 355 350.5 399 c 128,-1,44
 331 443 331 443 285 443 c 256,45,46
 238 443 238 443 203 401.5 c 128,-1,47
 168 360 168 360 155 280 c 0,36,37
EndSplineSet
EndChar

StartChar: uni0262
Encoding: 610 610 534
Width: 517
GlyphClass: 2
Flags: W
LayerCount: 2
Fore
SplineSet
25 267 m 0,0,1
 47 398 47 398 124 476 c 128,-1,2
 201 554 201 554 316 554 c 0,3,4
 456 554 456 554 494 412 c 1,5,-1
 385 367 l 1,6,7
 377 396 377 396 355 419.5 c 128,-1,8
 333 443 333 443 297 443 c 0,9,10
 242 443 242 443 203.5 397 c 128,-1,11
 165 351 165 351 151 267 c 0,12,13
 137 185 137 185 162 140.5 c 128,-1,14
 187 96 187 96 240 96 c 0,15,16
 277 96 277 96 306 119 c 128,-1,17
 335 142 335 142 348 184 c 1,18,-1
 353 210 l 1,19,-1
 241 210 l 1,20,-1
 257 310 l 1,21,-1
 484 310 l 1,22,-1
 433 0 l 1,23,-1
 342 0 l 1,24,-1
 343 40 l 1,25,26
 325 17 325 17 288.5 0.5 c 128,-1,27
 252 -16 252 -16 214 -16 c 0,28,29
 113 -16 113 -16 57.5 57.5 c 128,-1,30
 2 131 2 131 25 267 c 0,0,1
EndSplineSet
EndChar

StartChar: uni0263
Encoding: 611 611 535
Width: 498
GlyphClass: 2
Flags: W
LayerCount: 2
Fore
SplineSet
49 538 m 1,0,-1
 184 538 l 1,1,-1
 221 120 l 1,2,-1
 222 120 l 1,3,-1
 241 158 l 1,4,-1
 400 538 l 1,5,-1
 535 538 l 1,6,-1
 297 62 l 1,7,8
 321 37 321 37 333.5 1.5 c 128,-1,9
 346 -34 346 -34 340 -69 c 0,10,11
 329 -134 329 -134 280.5 -176.5 c 128,-1,12
 232 -219 232 -219 166 -219 c 0,13,14
 102 -219 102 -219 67 -178 c 128,-1,15
 32 -137 32 -137 43 -69 c 0,16,17
 54 0 54 0 126 60 c 1,18,-1
 49 538 l 1,0,-1
144 -69 m 0,19,20
 140 -93 140 -93 150 -110.5 c 128,-1,21
 160 -128 160 -128 181 -128 c 0,22,23
 203 -128 203 -128 219.5 -110 c 128,-1,24
 236 -92 236 -92 239 -69 c 0,25,26
 242 -49 242 -49 233 -24.5 c 128,-1,27
 224 0 224 0 205 16 c 1,28,29
 153 -17 153 -17 144 -69 c 0,19,20
EndSplineSet
Substitution2: "'sups' Superscript lookup 5 subtable" uni02E0
Substitution2: "'aalt' Access All Alternates lookup 0 subtable" uni02E0
EndChar

StartChar: uni0264
Encoding: 612 612 536
Width: 460
GlyphClass: 2
Flags: W
LayerCount: 2
Fore
SplineSet
235 304 m 1,0,1
 171 234 171 234 161 173 c 0,2,3
 156 140 156 140 165.5 117.5 c 128,-1,4
 175 95 175 95 201 95 c 0,5,6
 224 95 224 95 241.5 117.5 c 128,-1,7
 259 140 259 140 264 173 c 0,8,9
 274 238 274 238 235 304 c 1,0,1
35 434 m 1,10,-1
 53 543 l 1,11,12
 94 554 94 554 127 554 c 0,13,14
 207 554 207 554 266 488 c 1,15,16
 342 554 342 554 426 554 c 0,17,18
 464 554 464 554 495 544 c 1,19,-1
 477 432 l 1,20,21
 444 442 444 442 410 442 c 0,22,23
 371 442 371 442 325 402 c 1,24,25
 351 355 351 355 363 328.5 c 128,-1,26
 375 302 375 302 382.5 259.5 c 128,-1,27
 390 217 390 217 382 171 c 0,28,29
 368 87 368 87 315.5 35.5 c 128,-1,30
 263 -16 263 -16 182 -16 c 0,31,32
 98 -16 98 -16 64.5 36.5 c 128,-1,33
 31 89 31 89 45 171 c 0,34,35
 56 236 56 236 90 289.5 c 128,-1,36
 124 343 124 343 178 402 c 1,37,38
 143 442 143 442 102 442 c 0,39,40
 90 442 90 442 79.5 440.5 c 128,-1,41
 69 439 69 439 56 437 c 128,-1,42
 43 435 43 435 35 434 c 1,10,-1
EndSplineSet
EndChar

StartChar: uni0265
Encoding: 613 613 537
Width: 527
GlyphClass: 2
Flags: W
LayerCount: 2
Fore
SplineSet
33 193 m 2,0,-1
 90 538 l 1,1,-1
 213 538 l 1,2,-1
 159 207 l 2,3,4
 140 95 140 95 214 95 c 0,5,6
 257 95 257 95 293.5 137 c 128,-1,7
 330 179 330 179 339 233 c 2,8,-1
 389 538 l 1,9,-1
 510 538 l 1,10,-1
 386 -215 l 1,11,-1
 265 -215 l 1,12,-1
 308 45 l 1,13,-1
 307 45 l 1,14,15
 252 -16 252 -16 171 -16 c 0,16,17
 146 -16 146 -16 124.5 -10.5 c 128,-1,18
 103 -5 103 -5 81.5 9.5 c 128,-1,19
 60 24 60 24 47 46.5 c 128,-1,20
 34 69 34 69 29.5 106.5 c 128,-1,21
 25 144 25 144 33 193 c 2,0,-1
EndSplineSet
EndChar

StartChar: uni0266
Encoding: 614 614 538
Width: 527
GlyphClass: 2
Flags: W
LayerCount: 2
Fore
SplineSet
13 0 m 1,0,-1
 114 608 l 2,1,2
 128 693 128 693 184.5 737.5 c 128,-1,3
 241 782 241 782 316 782 c 0,4,5
 362 782 362 782 412 778 c 1,6,-1
 393 663 l 1,7,8
 366 666 366 666 322 666 c 0,9,10
 289 666 289 666 262.5 643.5 c 128,-1,11
 236 621 236 621 230 584 c 2,12,-1
 215 493 l 1,13,-1
 216 493 l 1,14,15
 279 554 279 554 353 554 c 0,16,17
 424 554 424 554 466 505.5 c 128,-1,18
 508 457 508 457 489 345 c 2,19,-1
 432 0 l 1,20,-1
 310 0 l 1,21,-1
 365 331 l 2,22,23
 384 443 384 443 311 443 c 0,24,25
 266 443 266 443 229.5 402 c 128,-1,26
 193 361 193 361 184 305 c 2,27,-1
 133 0 l 1,28,-1
 13 0 l 1,0,-1
EndSplineSet
Substitution2: "'sups' Superscript lookup 5 subtable" uni02B1
Substitution2: "'aalt' Access All Alternates lookup 0 subtable" uni02B1
EndChar

StartChar: uni0267
Encoding: 615 615 539
Width: 528
GlyphClass: 2
Flags: W
LayerCount: 2
Fore
SplineSet
13 0 m 1,0,-1
 114 608 l 2,1,2
 128 693 128 693 184.5 737.5 c 128,-1,3
 241 782 241 782 316 782 c 0,4,5
 362 782 362 782 412 778 c 1,6,-1
 393 663 l 1,7,8
 368 666 368 666 322 666 c 0,9,10
 289 666 289 666 262.5 643 c 128,-1,11
 236 620 236 620 230 582 c 2,12,-1
 215 493 l 1,13,-1
 216 493 l 1,14,15
 279 554 279 554 353 554 c 0,16,17
 384 554 384 554 410 545 c 128,-1,18
 436 536 436 536 459.5 514.5 c 128,-1,19
 483 493 483 493 491 449.5 c 128,-1,20
 499 406 499 406 489 345 c 2,21,-1
 430 -16 l 2,22,23
 413 -120 413 -120 360.5 -169 c 128,-1,24
 308 -218 308 -218 218 -218 c 0,25,26
 176 -218 176 -218 131 -212 c 1,27,-1
 149 -100 l 1,28,29
 195 -107 195 -107 214 -107 c 0,30,31
 256 -107 256 -107 277.5 -86.5 c 128,-1,32
 299 -66 299 -66 309 -7 c 2,33,-1
 365 331 l 2,34,35
 384 443 384 443 311 443 c 0,36,37
 266 443 266 443 229.5 402 c 128,-1,38
 193 361 193 361 184 305 c 2,39,-1
 133 0 l 1,40,-1
 13 0 l 1,0,-1
EndSplineSet
EndChar

StartChar: uni0268
Encoding: 616 616 540
Width: 253
GlyphClass: 2
Flags: W
LayerCount: 2
Fore
SplineSet
116 606 m 1,0,-1
 139 745 l 1,1,-1
 267 745 l 1,2,-1
 244 606 l 1,3,-1
 116 606 l 1,0,-1
-14 243 m 1,4,-1
 4 351 l 1,5,-1
 77 351 l 1,6,-1
 108 538 l 1,7,-1
 230 538 l 1,8,-1
 199 351 l 1,9,-1
 272 351 l 1,10,-1
 254 243 l 1,11,-1
 181 243 l 1,12,-1
 141 0 l 1,13,-1
 19 0 l 1,14,-1
 59 243 l 1,15,-1
 -14 243 l 1,4,-1
EndSplineSet
EndChar

StartChar: uni0269
Encoding: 617 617 541
Width: 316
GlyphClass: 2
Flags: W
LayerCount: 2
Fore
SplineSet
29 163 m 2,0,-1
 91 538 l 1,1,-1
 214 538 l 1,2,-1
 154 172 l 2,3,4
 142 100 142 100 203 100 c 0,5,6
 243 100 243 100 276 106 c 1,7,-1
 257 -7 l 1,8,9
 191 -16 191 -16 157 -16 c 0,10,11
 89 -16 89 -16 51 26 c 128,-1,12
 13 68 13 68 29 163 c 2,0,-1
EndSplineSet
EndChar

StartChar: uni026B
Encoding: 619 619 543
Width: 255
GlyphClass: 2
Flags: W
LayerCount: 2
Fore
SplineSet
-13 331 m 1,0,-1
 6 444 l 1,1,2
 56 457 56 457 74 457 c 2,3,-1
 94 457 l 1,4,-1
 144 759 l 1,5,-1
 267 759 l 1,6,-1
 214 434 l 1,7,8
 230 434 230 434 257 437 c 0,9,10
 274 439 274 439 302 446 c 1,11,-1
 283 334 l 1,12,13
 266 330 266 330 240 326 c 0,14,15
 224 324 224 324 195 324 c 1,16,-1
 142 0 l 1,17,-1
 19 0 l 1,18,-1
 76 345 l 1,19,-1
 67 346 l 2,20,21
 57 346 57 346 56 346 c 0,22,23
 33 346 33 346 -13 331 c 1,0,-1
EndSplineSet
EndChar

StartChar: uni026C
Encoding: 620 620 544
Width: 432
GlyphClass: 2
Flags: W
LayerCount: 2
Fore
SplineSet
50 414 m 0,0,1
 59 467 59 467 98 504 c 128,-1,2
 137 541 137 541 195 541 c 0,3,4
 235 541 235 541 265 518 c 1,5,-1
 305 759 l 1,6,-1
 428 759 l 1,7,-1
 364 371 l 1,8,-1
 461 371 l 1,9,-1
 444 266 l 1,10,-1
 347 266 l 1,11,-1
 303 0 l 1,12,-1
 180 0 l 1,13,-1
 224 266 l 1,14,-1
 199 266 l 2,15,16
 123 266 123 266 81 306.5 c 128,-1,17
 39 347 39 347 50 414 c 0,0,1
150 414 m 0,18,19
 147 394 147 394 160.5 382.5 c 128,-1,20
 174 371 174 371 196 371 c 2,21,-1
 241 371 l 1,22,-1
 243 389 l 2,23,24
 245 411 245 411 230.5 429 c 128,-1,25
 216 447 216 447 194 447 c 0,26,27
 178 447 178 447 165.5 438.5 c 128,-1,28
 153 430 153 430 150 414 c 0,18,19
EndSplineSet
EndChar

StartChar: uni026D
Encoding: 621 621 545
Width: 329
GlyphClass: 2
Flags: W
LayerCount: 2
Fore
SplineSet
9 -38 m 2,0,-1
 141 759 l 1,1,-1
 264 759 l 1,2,-1
 133 -31 l 2,3,4
 121 -104 121 -104 181 -104 c 0,5,6
 213 -104 213 -104 255 -96 c 1,7,-1
 236 -210 l 1,8,9
 169 -219 169 -219 136 -219 c 0,10,11
 68 -219 68 -219 30.5 -176.5 c 128,-1,12
 -7 -134 -7 -134 9 -38 c 2,0,-1
EndSplineSet
EndChar

StartChar: uni026E
Encoding: 622 622 546
Width: 676
GlyphClass: 2
Flags: W
LayerCount: 2
Fore
SplineSet
109 -66 m 1,0,-1
 225 -30 l 1,1,2
 248 -108 248 -108 325 -108 c 0,3,4
 383 -108 383 -108 423.5 -69 c 128,-1,5
 464 -30 464 -30 474 30 c 256,6,7
 484 90 484 90 452 132 c 128,-1,8
 420 174 420 174 354 174 c 2,9,-1
 264 174 l 1,10,-1
 278 262 l 1,11,-1
 449 427 l 1,12,-1
 208 427 l 1,13,-1
 137 0 l 1,14,-1
 15 0 l 1,15,-1
 141 759 l 1,16,-1
 263 759 l 1,17,-1
 226 538 l 1,18,-1
 651 538 l 1,19,-1
 638 458 l 1,20,-1
 447 283 l 1,21,-1
 435 269 l 1,22,23
 521 260 521 260 568 191 c 128,-1,24
 615 122 615 122 600 30 c 0,25,26
 582 -79 582 -79 500.5 -149 c 128,-1,27
 419 -219 419 -219 311 -219 c 0,28,29
 138 -219 138 -219 109 -66 c 1,0,-1
EndSplineSet
EndChar

StartChar: uni026F
Encoding: 623 623 547
Width: 777
GlyphClass: 2
Flags: W
LayerCount: 2
Fore
SplineSet
34 195 m 2,0,-1
 90 538 l 1,1,-1
 213 538 l 1,2,-1
 157 199 l 2,3,4
 148 147 148 147 159 122.5 c 128,-1,5
 170 98 170 98 203 98 c 0,6,7
 245 98 245 98 276 135 c 128,-1,8
 307 172 307 172 315 224 c 2,9,-1
 367 538 l 1,10,-1
 490 538 l 1,11,-1
 433 194 l 2,12,13
 417 98 417 98 477 98 c 0,14,15
 523 98 523 98 552 132 c 128,-1,16
 581 166 581 166 590 223 c 2,17,-1
 642 538 l 1,18,-1
 766 538 l 1,19,-1
 677 0 l 1,20,-1
 559 0 l 1,21,-1
 568 57 l 1,22,-1
 567 57 l 1,23,24
 509 -14 509 -14 430 -14 c 0,25,26
 347 -14 347 -14 323 75 c 1,27,28
 314 63 314 63 302.5 51.5 c 128,-1,29
 291 40 291 40 271 23.5 c 128,-1,30
 251 7 251 7 221.5 -3.5 c 128,-1,31
 192 -14 192 -14 158 -14 c 0,32,33
 -1 -14 -1 -14 34 195 c 2,0,-1
EndSplineSet
EndChar

